<svg width="224" height="130" fill="none" xmlns="http://www.w3.org/2000/svg"><g clip-path="url(#a)"><path d="M13.45 121.8c-.26 0-.52.1-.74.26-.63-1.67-1.6-2.74-2.7-2.74s-2.08 1.07-2.71 2.74a1.26 1.26 0 0 0-.74-.26c-1.25 0-2.26 2.1-2.26 4.7h11.41c0-2.6-1-4.7-2.26-4.7Z" fill="#00BAFC"/><path d="M58.8 126.25H.94v.52H58.8v-.52Z" fill="#3F3D56"/><path d="M219.14 110.74c-.27 0-.53.1-.74.26-.63-1.67-1.6-2.74-2.7-2.74s-2.08 1.07-2.71 2.74a1.25 1.25 0 0 0-.74-.26c-1.25 0-2.26 2.11-2.26 4.72h11.41c0-2.6-1.01-4.72-2.26-4.72Z" fill="#00BAFC"/><path d="M194.59 24.16h-55.1v-1.14h-25v1.14H59.18a3.73 3.73 0 0 0-3.73 3.73v75.45a3.73 3.73 0 0 0 3.73 3.72h135.41a3.73 3.73 0 0 0 3.73-3.72V27.89a3.71 3.71 0 0 0-3.72-3.73Z" fill="#3F3D56"/><path opacity=".2" d="M193.31 30.75H60.44v74.95h132.87V30.75Z" fill="#000"/><path d="M126.76 28.7a1.36 1.36 0 1 0 0-2.72 1.36 1.36 0 0 0 0 2.72Z" fill="#00BAFC"/><path d="M223.06 114.93H30.26v.52h192.8v-.52Z" fill="#3F3D56"/><path d="M145.03 58.75v-5.54a6.8 6.8 0 0 0-6.8-6.8h-5.55c0-.76-2.4-1.37-5.46-1.43V38.3a3.8 3.8 0 1 0-.95 0V45c-3.06.05-5.46.66-5.46 1.41h-6.5a6.8 6.8 0 0 0-6.8 6.8v5.55c-.79 0-1.43 2.66-1.43 5.94 0 3.28.64 5.94 1.43 5.94v6.5a6.8 6.8 0 0 0 6.8 6.8h23.92a6.8 6.8 0 0 0 6.8-6.8v-6.5c.79 0 1.43-2.66 1.43-5.94 0-3.28-.64-5.94-1.43-5.94Z" fill="#00BAFC"/><path d="M115.67 48.54h21.2a6.03 6.03 0 0 1 6.02 6.03v21.19a6.03 6.03 0 0 1-6.02 6.03h-21.2a6.03 6.03 0 0 1-6.03-6.03v-21.2a6.03 6.03 0 0 1 6.03-6.02Z" fill="#3F3D56"/><path d="M118.67 64.33a4.28 4.28 0 0 1-4.28-4.27.24.24 0 0 1 .24-.24.24.24 0 0 1 .24.24 3.8 3.8 0 0 0 7.6 0c0-.07.02-.13.07-.17a.24.24 0 0 1 .4.17 4.28 4.28 0 0 1-4.27 4.27ZM126.27 72.4a3.33 3.33 0 0 1-3.33-3.32c0-.06.03-.12.07-.17a.24.24 0 0 1 .4.17 2.85 2.85 0 0 0 5.7 0c0-.06.03-.12.08-.17a.24.24 0 0 1 .4.17 3.33 3.33 0 0 1-3.32 3.33ZM133.87 64.33a4.28 4.28 0 0 1-4.28-4.27.24.24 0 1 1 .47 0 3.8 3.8 0 0 0 7.6 0c0-.07.03-.13.08-.17a.24.24 0 0 1 .4.17 4.28 4.28 0 0 1-4.27 4.27Z" fill="#00BAFC"/><path d="M118.67 62.43a2.14 2.14 0 1 0 0-4.27 2.14 2.14 0 0 0 0 4.27ZM133.87 62.43a2.14 2.14 0 1 0 0-4.27 2.14 2.14 0 0 0 0 4.27ZM126.27 71.22c1.05 0 1.9-.43 1.9-.95s-.85-.95-1.9-.95c-1.05 0-1.9.43-1.9.95s.85.95 1.9.95Z" fill="#00BAFC"/><path d="M202.04 104.34h-12.97v-.94a.19.19 0 0 0-.19-.19h-4.44a.19.19 0 0 0-.13.06.19.19 0 0 0-.05.14v.93h-2.78v-.94a.2.2 0 0 0-.01-.07.19.19 0 0 0-.18-.11h-4.44a.19.19 0 0 0-.19.19v.93h-2.78v-.94l-.01-.07a.19.19 0 0 0-.17-.11h-4.45a.19.19 0 0 0-.18.19v.93h-2.78v-.94a.19.19 0 0 0-.18-.19h-4.45a.19.19 0 0 0-.17.12.2.2 0 0 0-.02.08v.93h-2.78v-.94l-.01-.07a.19.19 0 0 0-.17-.11h-4.45a.19.19 0 0 0-.19.19v.93h-2.77v-.94a.19.19 0 0 0-.19-.19h-4.44a.19.19 0 0 0-.13.06.19.19 0 0 0-.06.14v.93h-2.78v-.94a.2.2 0 0 0-.01-.07.19.19 0 0 0-.17-.11h-34.83a.19.19 0 0 0-.17.11.2.2 0 0 0-.02.08v.93h-2.77v-.94a.2.2 0 0 0-.02-.07.19.19 0 0 0-.17-.11h-4.45a.19.19 0 0 0-.19.19v.93h-2.77v-.94a.19.19 0 0 0-.05-.13.18.18 0 0 0-.14-.05H93.3a.2.2 0 0 0-.13.05.19.19 0 0 0-.06.14v.93h-2.78v-.94a.19.19 0 0 0-.05-.13.18.18 0 0 0-.13-.05H85.7a.2.2 0 0 0-.13.05.19.19 0 0 0-.05.14v.93h-2.78v-.94a.19.19 0 0 0-.05-.13.18.18 0 0 0-.14-.05h-4.44a.2.2 0 0 0-.13.05.19.19 0 0 0-.06.14v.93h-2.78v-.94a.19.19 0 0 0-.05-.13.18.18 0 0 0-.13-.05H70.5a.2.2 0 0 0-.13.05.19.19 0 0 0-.05.14v.93h-2.78v-.94a.19.19 0 0 0-.06-.13.18.18 0 0 0-.13-.05h-4.44a.2.2 0 0 0-.13.05.19.19 0 0 0-.06.14v.93h-8.52a4.44 4.44 0 0 0-4.45 4.45v2a4.45 4.45 0 0 0 4.45 4.45h147.83a4.45 4.45 0 0 0 4.45-4.44v-2.01a4.46 4.46 0 0 0-4.45-4.45Z" fill="#3F3D56"/><path d="M169.4 83.63H80.78v.52h88.64v-.52Z" fill="#00BAFC"/><path d="M87.08 83.37H65.25c.7-8.23.7-16.5 0-24.73h21.83a82.8 82.8 0 0 0 0 24.73Z" fill="#D0CDE1"/><path d="M84.19 63.64H68.4v1.05h15.78v-1.05ZM84.19 67.06H68.4v1.05h15.78v-1.05ZM84.19 70.48H68.4v1.05h15.78v-1.05ZM84.19 73.9H68.4v1.05h15.78V73.9ZM84.19 77.32H68.4v1.05h15.78v-1.05Z" fill="#3F3D56"/><path d="M29.07.84s-3.43-1.22-5.64 3.68c-2.2 4.9-5.63 10.29-5.63 10.29l1.96.49s.49-3.43 1.71-3.92l-.49 4.4s14.7 5.15 21.32-.48l-.25-1.72s.98.25.98 1.72l.74-.74s-.74-1.47-2.94-3.43c-1.45-1.28-1.95-3.73-2.12-5.26a6.37 6.37 0 0 0-1.47-3.47C35.78.7 33.11-1.1 29.07.84Z" fill="#2F2E41"/><path d="m19.17 108.93 1.06 6.05 4.2-.8.8-5.25h-6.06Z" fill="#FFB9B9"/><path d="m25.22 112.35-5.78.52.26 4.74-.26 6.05s-3.42 6.84 1.58 6.31c5-.53 4.47-3.16 4.47-3.16l1.31-1.57-.79-3.95-.79-8.94Z" fill="#2F2E41"/><path d="m42.85 108.93-1.06 6.05-4.2-.8-.8-5.25h6.06Z" fill="#FFB9B9"/><path d="m36.8 112.35 5.78.52-.26 4.74.26 6.05s3.42 6.84-1.57 6.31c-5-.53-4.48-3.16-4.48-3.16l-1.31-1.57.79-3.95.79-8.94Z" fill="#2F2E41"/><path d="M30.75 17.13a6.05 6.05 0 1 0 0-12.1 6.05 6.05 0 0 0 0 12.1Z" fill="#FFB9B9"/><path d="m26.8 14.24.8 9.47 7.36-.26s-2.1-6.05-.8-8.42l-7.36-.8Z" fill="#FFB9B9"/><path d="m31.01 21.87 3.03-1.9 3.28 1.63 5.26 2.37-1.84 22.36s4.21 13.94 3.42 20.78c-.79 6.84 8.68 41.03 1.05 42.6-7.62 1.59-13.15 3.16-13.41.53-.26-2.63-.79-42.87-.79-42.87s-.79 42.61-3.95 43.14c-3.15.52-16.83 2.63-15.78-.53 1.06-3.16 8.16-58.4 11.58-61.55l.52-2.63-4.47-21.3 8.4-4.19 3.7 1.56Z" fill="#2F2E41"/><path d="m15.23 54.48-.26 10.79s-2.54 10.64 1.75 10.58c4.3-.06 1.14-10.58 1.14-10.58l1.84-10.52-4.47-.27ZM55 43.16l7.4 7.86s8.98 6.24 5.75 9.06c-3.24 2.81-7.91-7.13-7.91-7.13l-8.4-6.6L55 43.15Z" fill="#FFB9B9"/><path d="M22.99 47.78 41 47.22 40.77 46l-17.41-.32-.37 2.1Z" fill="#D0CDE1"/><path d="M26.67 48.3a1.58 1.58 0 1 0 0-3.15 1.58 1.58 0 0 0 0 3.15ZM21.02 24.76l-1.71-.4s-2.24.93-2.77 3.82c-.52 2.9-7.36 25.51-3.94 26.83 3.42 1.31 8.42 1.84 8.42 1.31 0-.52 2.1-20.25 2.1-20.25l-2.1-11.31ZM37.1 25.76l5.48-1.79s2.63 0 2.63 2.9c0 1.19 5.04 11 5.04 11s12.12 8.63 10.26 8.94c-3.15.52-5 6.04-5 6.04L43.69 42.33 37.1 25.76ZM23.37 11.53s1.96-2.7 3.67-3.18C28.76 7.85 29 5.4 29 5.4s4.41 4.9 7.1 5.14c2.7.25.25-5.88.25-5.88l-4.9-1.22-4.65.49-3.68 2.45.25 5.14Z" fill="#2F2E41"/><path d="M24.83 11.35c.43 0 .79-.53.79-1.19 0-.65-.36-1.18-.8-1.18-.43 0-.78.53-.78 1.18 0 .66.35 1.19.79 1.19Z" fill="#FFB9B9"/></g><defs><clipPath id="a"><path fill="#fff" transform="translate(.94)" d="M0 0h222.13v130H0z"/></clipPath></defs></svg>