<svg width="300" height="233" fill="none" xmlns="http://www.w3.org/2000/svg"><g clip-path="url(#a)"><path opacity=".8" d="M273.7 221.08H15.51V54.1a5.27 5.27 0 0 1 5.27-5.27h247.64a5.27 5.27 0 0 1 5.26 5.27v166.98Z" fill="url(#b)"/><path d="M24.33 51.86h240.54a5.27 5.27 0 0 1 5.26 5.27v163.95H19.08V57.13a5.27 5.27 0 0 1 5.25-5.27Z" fill="#fff"/><path d="M262.05 61.7H27.16v154.07h234.9V61.71Z" fill="#F5F5F5"/><path opacity=".8" d="M261.95 69.19H28.06v138.6h233.9V69.2Z" fill="#E0E0E0"/><path d="M261.95 61.82H28.06v7.37h233.9v-7.37Z" fill="#F5F5F5"/><path d="M33.08 67.18a1.79 1.79 0 1 0 0-3.57 1.79 1.79 0 0 0 0 3.57Z" fill="#FF5252"/><path d="M37.99 67.18a1.79 1.79 0 1 0 0-3.57 1.79 1.79 0 0 0 0 3.57Z" fill="#FF0"/><path d="M42.9 67.18a1.79 1.79 0 1 0 0-3.57 1.79 1.79 0 0 0 0 3.57Z" fill="#69F0AE"/><path opacity=".8" d="M280.92 232.15c-14.38 1.09-261.18.66-269.8 0C-.2 226.7.02 205.55.02 205.55l113.18-.75.38 6.44h48.44l1.9-5.67h125.43s2.49 19.38-8.44 26.58Z" fill="url(#c)"/><path d="M287.5 207.26H164.53a3.78 3.78 0 0 1-2.87 6.24H114.7a3.78 3.78 0 0 1-2.87-6.24H1.7s-.19 18.36 10.98 23.1c8.52.57 252.3.95 266.5 0 10.8-6.26 8.33-23.1 8.33-23.1Z" fill="#F5F5F5"/><path d="M27.26 212.75a1.51 1.51 0 1 0 0-3.03 1.51 1.51 0 0 0 0 3.03ZM31.8 212.75a1.51 1.51 0 1 0 0-3.03 1.51 1.51 0 0 0 0 3.03ZM36.34 212.75a1.51 1.51 0 1 0 0-3.03 1.51 1.51 0 0 0 0 3.03Z" fill="#E0E0E0"/><path d="M139.94 125.88h10.73a46.5 46.5 0 0 1 46.5 46.5v33.8H93.45v-33.8a46.5 46.5 0 0 1 46.5-46.5Z" fill="#00BAFC"/><path d="M145.41 107.8a47.4 47.4 0 1 0 0-94.8 47.4 47.4 0 0 0 0 94.8Z" fill="#333"/><path opacity=".1" d="M138.43 112.08h13.71a9.67 9.67 0 0 1 9.67 9.66v9.42a14.78 14.78 0 0 1-14.78 14.78h-3.5a14.78 14.78 0 0 1-14.78-14.78v-9.4a9.67 9.67 0 0 1 9.67-9.67l.01-.02Z" fill="#000"/><path d="M128.75 111.1h33.07v19.1A14.78 14.78 0 0 1 147.04 145h-3.5a14.78 14.78 0 0 1-14.79-14.78v-19.1Z" fill="#FDB797"/><path opacity=".1" d="M128.81 115.88a47.6 47.6 0 0 0 33.07.09v-4.06h-33.07v3.97Z" fill="#000"/><path d="M145.41 118.1a47.4 47.4 0 1 0 0-94.81 47.4 47.4 0 0 0 0 94.8Z" fill="#FDB797"/><path opacity=".1" d="M100.1 53.91h90.38s-7.71-36.5-41.89-34.19c-34.17 2.31-48.5 34.2-48.5 34.2Z" fill="#000"/><path d="M100.1 52.69h90.38s-7.71-36.5-41.89-34.18c-34.17 2.33-48.5 34.18-48.5 34.18Z" fill="#333"/><path d="M98.99 76.94c2.43 0 4.4-3.7 4.4-8.27 0-4.57-1.97-8.27-4.4-8.27-2.44 0-4.41 3.7-4.41 8.27 0 4.57 1.97 8.27 4.4 8.27ZM191.59 76.94c2.43 0 4.4-3.7 4.4-8.27 0-4.57-1.97-8.27-4.4-8.27-2.44 0-4.41 3.7-4.41 8.27 0 4.57 1.97 8.27 4.4 8.27Z" fill="#FDB797"/><path d="M107.1 28.5c1.1-3.54 3.06-6.92 6.1-9.03 2.31-1.6 5.07-2.37 7.72-3.31a59.03 59.03 0 0 0 11.23-5.37c4.02-2.48 7.8-5.46 12.22-7.1 7.62-2.82 16.1-1.3 23.96.73 1.94.5 3.9 1.03 5.6 2.08 1.98 1.21 3.5 3.03 4.98 4.81l12.47 15.05a23.75 23.75 0 0 1 3.1 4.37 15.03 15.03 0 0 1 1.43 4.93c.33 2.76.07 5.69-1.34 8.1-2.1 3.6-6.46 5.4-10.63 5.57-4.17.17-8.26-1.04-12.27-2.21-12.91-3.79-26-7.31-39.4-8.88a111.13 111.13 0 0 0-20.04-.65c-2.1.13-4.87 1.1-6.15-1.04-1.1-1.86.46-6.19 1.03-8.05Z" fill="#333"/><path opacity=".05" d="M113.75 169.37v36.8M177.7 169.37v36.8" stroke="#000" stroke-width="4" stroke-miterlimit="10"/><path opacity=".8" d="M300 66.76h-59.48L220.44 83.5V66.76h-13.38V.61H300v66.15Z" fill="url(#d)"/><path d="M298.74 1.4h-90.42v63.25h90.42V1.4Z" fill="#fff"/><path d="M290.15 10.7H218.5v1.88h71.64V10.7ZM267.76 19.16h-49.25v1.88h49.25v-1.88ZM277.61 27.62h-59.1v1.88h59.1v-1.88Z" fill="#E0E0E0"/><path d="M265.97 36.1h-47.46v1.87h47.46v-1.88ZM290.15 44.55H218.5v1.88h71.64v-1.88Z" fill="#00BAFC"/><path d="M290.15 53.02H218.5v1.88h71.64v-1.88Z" fill="#E0E0E0"/><path d="M223.8 63.42v16.74l18.4-18.4-18.4 1.66Z" fill="#fff"/></g><defs><linearGradient id="b" x1="144.61" y1="221.08" x2="144.61" y2="48.84" gradientUnits="userSpaceOnUse"><stop stop-color="gray" stop-opacity=".25"/><stop offset=".54" stop-color="gray" stop-opacity=".12"/><stop offset="1" stop-color="gray" stop-opacity=".1"/></linearGradient><linearGradient id="c" x1="169221" y1="22572.9" x2="169221" y2="20217.9" gradientUnits="userSpaceOnUse"><stop stop-color="gray" stop-opacity=".25"/><stop offset=".54" stop-color="gray" stop-opacity=".12"/><stop offset="1" stop-color="gray" stop-opacity=".1"/></linearGradient><linearGradient id="d" x1="70901.9" y1="20613.9" x2="70901.9" y2=".61" gradientUnits="userSpaceOnUse"><stop stop-color="gray" stop-opacity=".25"/><stop offset=".54" stop-color="gray" stop-opacity=".12"/><stop offset="1" stop-color="gray" stop-opacity=".1"/></linearGradient><clipPath id="a"><path fill="#fff" transform="translate(0 .61)" d="M0 0h300v232.2H0z"/></clipPath></defs></svg>