<svg width="170" height="130" fill="none" xmlns="http://www.w3.org/2000/svg"><g clip-path="url(#a)"><path opacity=".1" d="M166.34 29.6c-1.73-3.36-4-6.41-6.72-9.04l-93.12-.78 76.67-9.1a50.52 50.52 0 0 0-15.55-2.61C120.22 3.03 110.74.01 100.4.01a48.9 48.9 0 0 0-24.87 6.58A49.94 49.94 0 0 0 55.6 2.53c-20.7 0-37.94 12.11-41.8 28.18l152.54-1.11ZM169.61 43.07c0-4.4-1-8.74-2.9-12.71L5.3 44.68a31.38 31.38 0 0 0-3.78 8.07l49.98 6.3-51.12 4.6C1.93 81.82 20.37 96.18 42.9 96.18c11.34 0 21.65-3.64 29.28-9.57 7.66 6.05 18.07 9.77 29.53 9.77 17 0 31.69-8.2 38.52-20.03 13.72-3.68 24.37-12.92 28.02-24.48l-63.2-8.29h64.56v-.52ZM75.26 130c23.99 0 43.43-.87 43.43-1.94 0-1.07-19.44-1.94-43.43-1.94-23.98 0-43.42.87-43.42 1.94 0 1.07 19.44 1.94 43.42 1.94Z" fill="#00BAFC"/><path d="M101.04 124.65v1.17H66.4v-.95a11.37 11.37 0 0 0 .78-21.02h33.61a11.37 11.37 0 0 0 .24 20.8Z" fill="#C8CAD7"/><path opacity=".1" d="M100.8 103.85a11.4 11.4 0 0 0-6.29 7.55H73.48a11.4 11.4 0 0 0-6.29-7.55h33.61Z" fill="#000"/><path d="M26.75 97.89v6.57c0 3.63 2.65 6.57 5.93 6.57h101.9c3.27 0 5.93-2.94 5.93-6.57v-6.57H26.75Z" fill="#C8CAD7"/><path opacity=".1" d="M101.04 124.65v1.17H66.4v-.95c.95-.35 1.84-.83 2.67-1.42H98.9c.67.47 1.38.88 2.13 1.2Z" fill="#000"/><path d="M111.06 123.81H56.39c-.79 0-1.43.64-1.43 1.43v.62c0 .79.64 1.42 1.43 1.42h54.67c.78 0 1.42-.63 1.42-1.42v-.62c0-.79-.64-1.42-1.42-1.42Z" fill="#C8CAD7"/><path d="M140.51 25.85a5.93 5.93 0 0 0-5.93-5.93H32.68a5.93 5.93 0 0 0-5.93 5.93v73.31H140.5V25.85Z" fill="#474157"/><path d="M137.41 28.5v63a2.9 2.9 0 0 1-1.8 2.7c-.36.14-.74.22-1.12.22H32.78a2.92 2.92 0 0 1-2.92-2.93v-63a2.92 2.92 0 0 1 2.92-2.91h101.7a2.93 2.93 0 0 1 2.93 2.92Z" fill="#4C4C78"/><path d="M83.63 24.12a1.37 1.37 0 1 0 0-2.74 1.37 1.37 0 0 0 0 2.74ZM83.63 108.11a3.38 3.38 0 1 0 0-6.75 3.38 3.38 0 0 0 0 6.75ZM52.58 27.04v67.38h-19.8a2.92 2.92 0 0 1-2.92-2.93v-63l.1-.39.29-1.06h22.33Z" fill="#fff"/><path d="M55.12 28.1v6.07H29.86V28.5l.1-.4h25.16Z" fill="#4C4C78"/><path d="M137.41 28.5H29.86a2.92 2.92 0 0 1 2.92-2.92h101.7a2.92 2.92 0 0 1 2.93 2.92Z" fill="#C8CAD7"/><path d="M32.78 27.77a.73.73 0 1 0 0-1.46.73.73 0 0 0 0 1.46ZM34.97 27.77a.73.73 0 1 0 0-1.46.73.73 0 0 0 0 1.46ZM37.16 27.77a.73.73 0 1 0 0-1.46.73.73 0 0 0 0 1.46Z" fill="#EDEDF4"/><path d="M48.8 30.77H33.64v1.4h15.18v-1.4Z" fill="#00BAFC"/><path opacity=".5" d="M48.8 37.58H33.64v1.4h15.18v-1.4ZM48.8 42.4H33.64v1.4h15.18v-1.4ZM48.8 47.22H33.64v1.4h15.18v-1.4ZM48.8 52.04H33.64v1.4h15.18v-1.4ZM48.8 56.85H33.64v1.4h15.18v-1.4ZM48.8 61.67H33.64v1.4h15.18v-1.4ZM48.8 66.49H33.64v1.4h15.18v-1.4Z" fill="#00BAFC"/><path opacity=".5" d="M132.25 35.9H65v.23h67.24v-.22ZM132.25 41.13H65v.22h67.24v-.23ZM132.25 46.34H65v.23h67.24v-.23ZM132.25 51.56H65v.22h67.24v-.22ZM132.25 56.77H65V57h67.24v-.23Z" fill="#DCE0ED"/><path opacity=".5" d="M132.25 57H64.92V46.74l6.18 3.04 6.39.87 5.6-1.7 6.77-5.24 3.4-1.96 2.49-.48 2.38.12 3.91 1.94 5.32 3.39 4.18.53 3.3-1.14 7.02-5.74 3.59-1.28 3.74.58 3.06 1.76V57Z" fill="#00BAFC"/><path d="M76.66 50.65c-6.06 0-11.67-3.7-11.74-3.75l.17-.25c.09.05 8.71 5.76 16.04 2.9 2.67-1.04 4.57-2.66 6.42-4.23 1.92-1.63 3.73-3.18 6.2-3.85a9.29 9.29 0 0 1 8.3 1.86c2.01 1.66 6.02 4.31 10.26 3.52 2.16-.4 3.98-1.98 5.9-3.65 3.7-3.2 7.52-6.52 14.13-1.77l-.18.25c-6.42-4.61-10.15-1.38-13.75 1.74-1.96 1.7-3.81 3.3-6.05 3.72-4.36.82-8.45-1.89-10.5-3.58a9 9 0 0 0-8.03-1.8c-2.41.65-4.2 2.18-6.1 3.79-1.85 1.58-3.78 3.22-6.5 4.28-1.45.56-3 .84-4.57.82Z" fill="#00BAFC"/><path d="M97.36 42.9a1.67 1.67 0 1 0 0-3.33 1.67 1.67 0 0 0 0 3.33Z" fill="#00BAFC"/><path d="M55.6 77.46c-2.29-1.31-3.15-1.64-3.15-1.64l-.05-.03a1.9 1.9 0 0 1-.57-.73v-.15.02c.03-.7.53-1.33 1-1.88l1.2-1.41c.13-.14.24-.31.3-.5.03-.1.04-.2.03-.3v-.12l-.02-1.05c-.02-.3-.1-.7-.4-.75-.16-.03-.37.02-.45-.11a.25.25 0 0 1-.02-.18v.01-.02c.06-.23.1-.47.11-.72 0-.12 0-.24-.05-.36-.18-.5-.79-.72-1.32-.81-.54-.1-1.15-.18-1.49-.6-.09-.14-.19-.28-.3-.4a1.18 1.18 0 0 0-.55-.28 3.1 3.1 0 0 0-2 .18c-.26.11-.53.27-.81.25-.29-.01-.55-.22-.85-.27-.47-.08-.92.27-1.16.68-.13.24-.2.52-.21.8v.05c0 .3.1.59.3.81.21.22.52.36.6.64.04.11.03.24.06.35l.02.04-.02.02a3.56 3.56 0 0 0-.04 4.33c.46.62 1.1 1.08 1.84 1.3v.11a1.55 1.55 0 0 1-.5 1.21l-3.23 1.3s-1.94-.23-2.65 2.61c-.1.47-.15.96-.12 1.44.03.43-.03 1.19-.53 2.16-.8 1.57-.62 5.15 1.02 5.5 1.54.34 2.14.2 2.2.19v.06c-.02.67-.27 6.48-1.15 7.19-.25.2-.2.32 0 .41v.1c-.03.43-.17 2.05-.76 2.97-.69 1.06-.6 7.2-.6 7.2l-.48 3.62s.3 2.24 0 2.63c-.26.35-.6 8.63-.67 10.42h-.03a.88.88 0 0 0-.7.43c-.39.62-1.72 1.76-1.72 1.76-.3.41-1.36.8-1.93 1a1.17 1.17 0 0 0-.77.8c-.01.08 0 .15.01.23.15.35 3.16.6 3.92.24a26 26 0 0 1 3.96-.79.81.81 0 0 0 .7-.7.46.46 0 0 0-.09-.35c-.19-.24-.28-.88-.33-1.3a.87.87 0 0 0 .22-.12c-.08-1.3.1-2.59.55-3.8.72-1.92.94-5.47.76-7.78 0 0 2.21-9.52 3.95-10.4.03.02.87 1.1.98 4.47.11 3.4 1.34 5.64 1.34 5.64s-.54 5.8 0 7.96l-.71 3.41a1.35 1.35 0 0 1-.09-.08l.05.25-.01.07.03.01c.08.43.2 1.17.15 1.6-.03.26-.1.6-.15.93-.08.53-.1 1.04.18 1.15.45.18 3.12.43 3.57-.15a.84.84 0 0 0 .13-.88.87.87 0 0 0-.13-.22s-.7-1.16-.5-1.97a.6.6 0 0 0-.09-.47c.1-1.3.31-2.57.62-3.83.45-1.71 1.41-5.46.7-7.92l-.08-.29c-.4-1.34-.54-2.76-.4-4.15a8.45 8.45 0 0 1 0-3.63c.43-1.98.73-3.93.73-3.93s.24-2.63.03-4.24l-.01-.1.11-.03s-.61-2.73-.83-4.47l-.2-1.49c.2-.03.4-.08.6-.15 1.96-.67 2.57-6.78 2.57-6.78v-1.94s.66-2.96-1.63-4.28ZM41 124.63l-.1-.05.1.05Z" fill="url(#b)"/><path d="M54.41 112.71c.85 2.44-.15 6.4-.6 8.18-.3 1.28-.5 2.58-.6 3.9-1.03.17-2.09.14-3.11-.08l.75-3.65c-.53-2.16 0-7.92 0-7.92s-1.2-2.24-1.31-5.63c-.1-3.35-.93-4.43-.96-4.46-1.71.89-3.86 10.37-3.86 10.37.17 2.3-.04 5.84-.75 7.75a9.6 9.6 0 0 0-.53 3.79c-.25.2-.6.24-.97.18-1-.16-2.22-1.03-2.22-1.03s.39-10.33.67-10.73c.29-.39 0-2.62 0-2.62l.46-3.6s-.07-6.13.6-7.2c.58-.91.72-2.52.74-2.95v-.1l1.03-1.23s9.91-.75 10.65 0c.19.19.3.6.37 1.12.2 1.6-.03 4.23-.03 4.23s-.3 1.94-.73 3.92a8.6 8.6 0 0 0 0 3.62c-.13 1.39 0 2.8.4 4.14Z" fill="#65617D"/><path d="M53.79 128.23c-.44.59-3.04.34-3.49.15-.27-.11-.25-.62-.17-1.14.04-.33.11-.67.14-.92a8.44 8.44 0 0 0-.21-1.93s.58.62.72 0a.68.68 0 0 1 .5-.48c.31-.1.64-.07.93.06.46.2 1.22.62 1.08 1.2-.19.8.5 1.96.5 1.96.05.07.1.14.13.22a.85.85 0 0 1-.13.88Z" fill="#A27772"/><path opacity=".1" d="M53.79 128.23c-.44.59-3.04.34-3.49.15-.27-.11-.25-.62-.17-1.14a3 3 0 0 0 1.54.17c.19-.02.37-.03.56-.02.56.02 1.13.01 1.69-.04a.85.85 0 0 1-.13.88ZM44.72 113.42c.17 2.3-.04 5.84-.75 7.75a9.6 9.6 0 0 0-.53 3.79c-.25.2-.6.24-.97.18.22-1.5 1.13-7.92 1.71-13 .66-5.8 3.77-9.77 3.77-9.77l.62.68c-1.7.89-3.85 10.37-3.85 10.37Z" fill="#000"/><path d="m52.73 76.22-.43 2.12-2.12 3.56-2.61-1.12s-3.55-3.71-1.32-4.24c.27-.06.52-.17.74-.33.44-.33.58-.81.58-1.28a3.94 3.94 0 0 0-.36-1.53l4.56-1.43c-.19.6-.3 1.22-.33 1.85-.03 1.24.43 1.86.81 2.15.14.11.3.2.48.25Z" fill="#FBBEBE"/><path opacity=".1" d="M51.77 71.97c-.19.6-.3 1.22-.33 1.85a3.6 3.6 0 0 1-3.87 1.1 3.94 3.94 0 0 0-.36-1.52l4.56-1.43Z" fill="#000"/><path d="M52.3 71.39a3.61 3.61 0 1 1-7.23 0 3.61 3.61 0 0 1 7.23 0Z" fill="#FBBEBE"/><path opacity=".1" d="m52.73 76.22-.43 2.12-2.12 3.56-2.61-1.12s-3.55-3.71-1.32-4.24c.27-.06.52-.17.74-.33-.4 1.1 1.26 3.4 1.26 3.4.2.29.64.11.64.11 1.07-.16 3.04-3.24 3.36-3.75.14.11.3.2.48.25ZM54.77 96.8c-.63.16-4.1.92-5.42.73-1.45-.22-4.28-.36-4.28-.36s-1.8.1-2.34-.15v-.1l1.02-1.23s9.91-.75 10.66 0c.19.18.3.6.36 1.12Z" fill="#000"/><path d="M48.25 79.72s-1.87-2.59-1.16-3.6l-3.16 1.3s-1.9-.23-2.58 2.6c-.11.47-.15.96-.12 1.44.03.43-.03 1.18-.52 2.15-.78 1.56-.6 5.14 1 5.5 1.58.34 2.15.17 2.15.17s-.21 6.48-1.13 7.22c-.92.74 2.35.56 2.35.56s2.82.15 4.27.36c1.45.2 5.52-.75 5.52-.75s-.6-2.72-.81-4.46l-.71-5.43 3.6-4.89s.65-2.95-1.58-4.26A25.58 25.58 0 0 0 52.3 76s-2.25 3.65-3.41 3.82c0 0-.45.19-.64-.1Z" fill="#FF748E"/><path opacity=".1" d="M44.1 80.75s-.03 1.17.19 1.63c.2.46.99 3 .99 3H43.5s.95-1.02.88-1.52c-.07-.5-.28-3.11-.28-3.11Z" fill="#000"/><path d="M49.35 89.56s-3.91-.96-4.27-1.77c-.37-.81-1.37-2.64-1.37-2.64l.4-.55 1.91 1.5s2.27 1.8 3.33 1.98c1.06.18 0 1.48 0 1.48Z" fill="#FBBEBE"/><path opacity=".05" d="M49.35 89.56s-3.91-.96-4.27-1.77c-.37-.81-1.37-2.64-1.37-2.64l.4-.55 1.91 1.5s2.27 1.8 3.33 1.98c1.06.18 0 1.48 0 1.48Z" fill="#000"/><path d="M52.73 84.96v2.12h-.34c-1.69 0-3.34.43-4.82 1.25l-.63.35-.18.1-1.1-2.47 1.03-.93h.06a6.2 6.2 0 0 0 1.8-.04c.45-.15.97-.62 2.26-.29.63.17 1.18.88 1.8.65l.12-.74Z" fill="#FBBEBE"/><path opacity=".1" d="m56.14 81.1.71.8v1.93s-.6 6.09-2.51 6.76c-1.91.67-5.32-.4-5.32-.4s-.89-2.33-.47-2.47c.4-.14 3.64-1 3.64-1s-.05-3.57.66-4.63c0 0-.46-3.32 1.13-3.4 1.6-.07 2.16 2.41 2.16 2.41Z" fill="#000"/><path d="m56.25 81.1.7.8v1.93s-.6 6.09-2.5 6.76c-1.92.67-5.33-.4-5.33-.4s-.88-2.33-.47-2.47c.41-.14 3.64-1 3.64-1s-.04-3.57.67-4.63c0 0-.47-3.32 1.13-3.4 1.6-.07 2.16 2.41 2.16 2.41Z" fill="#FF748E"/><path opacity=".1" d="M51.3 72.92c.04-.23 0-.47-.08-.69a.53.53 0 0 0-.56-.32c-.3.07-.43.46-.73.56-.25.07-.52-.1-.64-.34a1.7 1.7 0 0 1-.12-.77v-.88c0-.33-.01-.67-.21-.93-.25-.31-.83-.45-1.22-.43-.25 0-.5.1-.69.27a.9.9 0 0 1-.73.26.63.63 0 0 1-.5-.44 3.61 3.61 0 1 1 5.36 4.78 10 10 0 0 0 .13-1.07Z" fill="#000"/><path d="M46.32 69.55a.64.64 0 0 1-.5-.44c-.04-.12-.03-.24-.06-.35-.09-.28-.38-.43-.58-.64-.4-.42-.38-1.11-.1-1.62.24-.41.68-.76 1.14-.68.29.05.53.25.82.27.3.02.54-.14.8-.25.6-.28 1.3-.34 1.95-.18.2.04.39.14.54.27l.29.4c.32.43.92.51 1.44.6.53.1 1.12.3 1.3.82.11.33 0 .7-.07 1.05a.3.3 0 0 0 .02.21c.08.14.29.08.45.11.3.07.37.45.38.75l.03 1.05c0 .13 0 .26-.03.39-.06.18-.17.35-.3.49l-1.17 1.4c-.52.62-1.07 1.35-.96 2.15-.25.11-.54-.1-.62-.36-.08-.25-.02-.53.04-.8.1-.45.15-.91.18-1.38.03-.23 0-.47-.08-.69a.53.53 0 0 0-.56-.32c-.3.07-.43.46-.73.56-.25.08-.52-.1-.64-.33-.1-.25-.14-.5-.13-.77v-.89c0-.32 0-.67-.2-.92-.25-.32-.83-.45-1.22-.44-.26 0-.5.1-.7.28a.9.9 0 0 1-.73.26Z" fill="#7C5C5C"/><path opacity=".1" d="m47.14 80.66 1.1 4.55s.88 0-1.1-4.55ZM50.92 79.9s-1.45 2.38-.88 4.83l.27.02s-.48-1.14.61-4.85ZM51.84 93.35s1.79-.59 1.92.78c0 0-.34-.94-1.92-.78ZM46.7 85.5s-.36 2.47.28 3.46c-1 .35-2.06.5-3.12.42l-.21-3.89h3.04Z" fill="#000"/><path opacity=".1" d="m46.94 88.68-.18.1-1.1-2.47 1.03-.93h.06c-.02.12-.3 2.25.19 3.3Z" fill="#000"/><path d="M46.7 85.38s-.36 2.48.28 3.47c-1 .36-2.06.5-3.12.43l-1.24-3.9h4.07Z" fill="#FF748E"/><path d="M43.63 126.73a.8.8 0 0 1-.69.7c-.96.15-3.27.5-3.86.78-.75.36-3.68.11-3.82-.24a.56.56 0 0 1 .05-.43 1.16 1.16 0 0 1 .69-.6c.55-.18 1.6-.58 1.88-.98 0 0 1.3-1.15 1.67-1.76a.84.84 0 0 1 .68-.42c.31-.02.66.14.8.81 0 0 1.7.97 2.16.13 0 0 .07 1.3.35 1.66a.47.47 0 0 1 .1.35Z" fill="#A27772"/><path opacity=".1" d="M43.63 126.73a.8.8 0 0 1-.69.7c-.96.15-3.27.5-3.86.78-.75.36-3.68.11-3.82-.24a.56.56 0 0 1 .05-.43c.1-.21.27-.4.48-.5.47.3 1.54.62 3.88.25 2.23-.34 3.33-.69 3.87-.92a.47.47 0 0 1 .1.36Z" fill="#000"/><g opacity=".1" fill="#000"><path opacity=".1" d="M53.29 68.84v-.01c.07-.27.1-.54.1-.8-.01.21-.05.43-.1.64a.4.4 0 0 0 0 .17ZM51.22 72.16c.06.12.09.26.1.4 0-.2-.02-.38-.1-.56a.53.53 0 0 0-.56-.33c-.3.07-.43.47-.73.56-.25.08-.52-.1-.64-.33-.1-.24-.14-.5-.12-.77v-.89c0-.32-.01-.66-.21-.92-.25-.31-.83-.45-1.22-.44-.25 0-.5.1-.69.28a.9.9 0 0 1-.73.26.63.63 0 0 1-.5-.44c-.04-.11-.03-.23-.06-.35-.09-.28-.38-.42-.58-.63-.19-.2-.3-.47-.3-.75a1.21 1.21 0 0 0 .3.9c.2.22.5.36.58.64.03.11.02.24.05.35a.63.63 0 0 0 .51.44.9.9 0 0 0 .73-.26c.19-.17.44-.27.7-.28.38 0 .96.13 1.2.44.2.26.21.6.22.93v.88c-.02.27.02.53.12.77.12.24.4.41.64.33.3-.09.43-.48.73-.56a.53.53 0 0 1 .56.33ZM54.13 71.18a1.4 1.4 0 0 1-.3.49l-1.16 1.4c-.5.6-1.02 1.28-.98 2.03.04-.69.52-1.32.98-1.87l1.16-1.4c.14-.14.24-.3.3-.49.03-.13.04-.26.03-.39 0 .08 0 .16-.03.23ZM51.08 74.87a.83.83 0 0 1-.03-.2c-.01.12 0 .24.03.36.08.25.37.46.62.36l-.01-.15c-.25.1-.53-.12-.6-.37Z"/></g><path opacity=".1" d="M39.33 124.52s.37.65 1.7.07l-1.7-.08ZM50.65 124.67s1.16 1.36 2.62.45l-2.62-.45ZM54.02 108.57s-.82.51-.84.8c-.03.3.42-.21.42-.21l.42-.6ZM54.34 112.48a1.7 1.7 0 0 1-1 .4c-.61.02-.56.82-.16.58s1.16-.98 1.16-.98ZM54.5 113s-.4 1.92-.71 1.55l.7-1.56Z" fill="#000"/><g opacity=".5" fill="#DCE0ED"><path opacity=".5" d="M80.83 68.68h-9.88v2.1h9.88v-2.1ZM103.53 68.68h-9.89v2.1h9.89v-2.1ZM126.22 68.68h-9.88v2.1h9.88v-2.1Z"/></g><path opacity=".1" d="M143.06 120.68c2.23 0 4.04-.3 4.04-.69 0-.37-1.8-.68-4.04-.68-2.22 0-4.03.3-4.03.69 0 .37 1.8.68 4.03.68ZM17.64 129.28c2.23 0 4.04-.3 4.04-.68 0-.38-1.8-.68-4.04-.68-2.22 0-4.03.3-4.03.68 0 .38 1.8.68 4.03.68Z" fill="#00BAFC"/><path d="M134.24 128.31c3.32 0 6.02-.45 6.02-1.01s-2.7-1.02-6.02-1.02c-3.33 0-6.02.45-6.02 1.02 0 .56 2.7 1.02 6.02 1.02Z" fill="#00BAFC"/><path d="M136.73 125.63c.27-.22.47-.52.57-.86.07-.35-.07-.76-.4-.89-.37-.14-.76.12-1.06.38-.3.26-.64.55-1.03.5a1.57 1.57 0 0 0 .48-1.48.61.61 0 0 0-.13-.3c-.2-.21-.58-.12-.82.05-.78.55-1 1.6-1 2.56-.08-.34-.02-.7-.02-1.05 0-.35-.1-.75-.4-.93a1.2 1.2 0 0 0-.6-.14c-.34-.02-.73.02-.97.28-.3.31-.22.85.04 1.2.26.34.65.56 1.01.8.3.18.54.41.73.7a.7.7 0 0 1 .05.12h2.2c.48-.25.94-.57 1.35-.94ZM17.83 118.49s.82 1.08-.38 2.7c-1.2 1.61-2.2 3-1.8 4 0 0 1.82-3.01 3.3-3.05 1.48-.05.5-1.83-1.12-3.65Z" fill="#00BAFC"/><path opacity=".1" d="M17.83 118.49c.07.1.13.22.17.34 1.44 1.7 2.2 3.27.82 3.31-1.29.04-2.84 2.34-3.2 2.93 0 .04.02.09.04.13 0 0 1.81-3.02 3.29-3.06 1.48-.04.5-1.83-1.12-3.65Z" fill="#000"/><path d="M19.36 119.86c0 .38-.04.69-.1.69-.05 0-.1-.3-.1-.69 0-.39.06-.2.11-.2.06 0 .09-.18.09.2Z" fill="#FFD037"/><path d="M19.88 120.31c-.33.19-.62.3-.64.25-.03-.05.22-.23.55-.41.33-.19.2-.05.23 0 .02.05.2-.02-.14.16Z" fill="#FFD037"/><path d="M13.48 118.49s-.82 1.08.38 2.7c1.2 1.61 2.2 3 1.8 4 0 0-1.81-3.01-3.3-3.05-1.48-.05-.5-1.83 1.12-3.65Z" fill="#00BAFC"/><path opacity=".1" d="M13.48 118.49c-.07.1-.12.22-.16.34-1.45 1.7-2.21 3.27-.83 3.31 1.3.04 2.84 2.34 3.21 2.93l-.04.13s-1.82-3.02-3.3-3.06c-1.48-.04-.5-1.83 1.12-3.65Z" fill="#000"/><path d="M11.95 119.86c0 .38.05.69.1.69s.1-.3.1-.69c0-.39-.06-.2-.11-.2s-.09-.18-.09.2Z" fill="#FFD037"/><path d="M11.43 120.31c.33.19.62.3.65.25.02-.05-.23-.23-.56-.41-.33-.19-.2-.05-.23 0-.02.05-.2-.02.14.16Z" fill="#FFD037"/><path d="M12.22 125.06s2.3-.07 3-.57c.69-.49 3.53-1.08 3.7-.29.18.8 3.46 3.94.87 3.96-2.6.02-6.04-.4-6.73-.83-.7-.42-.84-2.27-.84-2.27Z" fill="#A8A8A8"/><path opacity=".2" d="M19.83 127.88c-2.6.03-6.04-.4-6.73-.82-.53-.32-.74-1.48-.8-2h-.08s.15 1.85.83 2.27c.7.42 4.13.85 6.73.83.75 0 1-.28 1-.67-.11.24-.4.39-.95.4Z" fill="#000"/><path d="M70.25 83.33a5.44 5.44 0 0 1 5.55-5.42h.05v-1.39h-.05a6.83 6.83 0 0 0-4.56 12.03l.98-.99a5.54 5.54 0 0 1-1.97-4.23Z" fill="#00BAFC"/><path opacity=".5" d="M75.98 76.52v1.4a5.55 5.55 0 1 1-3.62 9.78l-.99 1a6.94 6.94 0 1 0 4.61-12.18ZM121.51 77.84a5.44 5.44 0 0 1 5.41 5.56v.04h1.4v-.04a6.83 6.83 0 0 0-12.04-4.57l.99.99a5.54 5.54 0 0 1 4.24-1.98Z" fill="#00BAFC"/><path d="M128.31 83.58h-1.39a5.55 5.55 0 1 1-9.79-3.62l-.98-1a6.95 6.95 0 1 0 12.17 4.62Z" fill="#00BAFC"/><path opacity=".5" d="m101.32 76.93-.27 1.39a5.44 5.44 0 0 1 3.34 5.14 5.56 5.56 0 1 1-7.78-5.08l-.62-1.25a6.94 6.94 0 1 0 9.8 6.33c0-3-1.78-5.56-4.47-6.53Z" fill="#00BAFC"/><path d="M99.02 77.83c.66 0 1.32.14 1.93.4l.28-1.38a6.13 6.13 0 0 0-2.21-.41c-.99 0-1.96.2-2.85.61l.62 1.25a5.5 5.5 0 0 1 2.23-.47Z" fill="#00BAFC"/></g><defs><linearGradient id="b" x1="46.14" y1="128.6" x2="46.14" y2="65.35" gradientUnits="userSpaceOnUse"><stop stop-color="gray" stop-opacity=".25"/><stop offset=".54" stop-color="gray" stop-opacity=".12"/><stop offset="1" stop-color="gray" stop-opacity=".1"/></linearGradient><clipPath id="a"><path fill="#fff" transform="translate(.39)" d="M0 0h169.22v130H0z"/></clipPath></defs></svg>