<svg width="300" height="172" fill="none" xmlns="http://www.w3.org/2000/svg"><g clip-path="url(#a)"><path opacity=".1" d="M180.35 123.83c5.8-.33 12.98-4.26 18.57-6a876.82 876.82 0 0 1 90.34-22.81c2.2-.44 4.43-.86 6.65-1.28a47.06 47.06 0 0 0-15.54-18.66c.17-1.64.26-3.28.26-4.93 0-26-20.78-47.07-46.42-47.07-7.9 0-15.65 2.03-22.52 5.91-18.15-11.93-41.84-19.16-67.75-19.16-36.82 0-69.15 14.59-87.47 36.56l86.09 14.54 52.8 8.92c-60.2 1.8-120.57 3.58-180.59-.64a47.58 47.58 0 0 0-6.85 60.05c0 .95.04 1.88.11 2.8 1.53.44 3 .87 4.33 1.15a950.47 950.47 0 0 0 64.2 11.27c-15.88 9.79-35.2 11.17-53.5 15.31 8.86 7.32 20.9 11.8 34.16 11.8h197.5c21.38 0 38.72-14.88 38.72-33.25a47.26 47.26 0 0 0 6.29-17.28c-39.57 3.82-79.64.5-119.38 2.77Z" fill="#00BAFC"/><path opacity=".1" d="M300 113.24a47.2 47.2 0 0 0-19.93-38.66c.17-1.63.26-3.28.26-4.92 0-26-20.78-47.07-46.41-47.07a45.7 45.7 0 0 0-22.53 5.91c-18.15-11.94-41.84-19.17-67.75-19.17-42.15 0-78.44 19.13-94.53 46.57-.9-.06-1.8-.09-2.7-.09C20.78 55.81 0 76.9 0 102.9a47.34 47.34 0 0 0 7.64 25.87c0 23.4 22.08 42.36 49.3 42.36h197.5c21.39 0 38.72-14.9 38.72-33.26a47.33 47.33 0 0 0 6.85-24.62Z" fill="#00BAFC"/><path d="M245 84.4a2.92 2.92 0 0 0-1.28-.56c-.49-.12-.99-.19-1.49-.26l-6.45-.94a7.6 7.6 0 0 0-1.98-.1 2.5 2.5 0 0 0-1.72.9c-.2.23-.3.52-.3.83.04.3.14.6.3.87l.16.39c.06.3.13.59.23.87.02.07.06.13.1.18v.04c-.06.36.16.74.06 1.1-.09.29-.38.47-.56.72a1.1 1.1 0 0 0-.03 1.2c.2.31.55.52.66.87.13.46-.23.9-.55 1.25-.6.66-1.15 1.35-1.65 2.07-.14.18-.23.4-.26.62-.03.46.41.86.33 1.31-.06.36-.4.58-.7.79-1.12.73-2.01 1.91-2.1 3.25a11.38 11.38 0 0 0-2.54-5.77c-.38-.45-.79-.9-.94-1.48-.06-.23-.07-.47-.15-.7-.26-.69-1.1-.98-1.46-1.62-.26-.46-.26-1.03-.59-1.43-.32-.4-.84-.49-1.12-.87a5.54 5.54 0 0 1-.35-.8 1.77 1.77 0 0 0-.6-.68.41.41 0 0 0 .13-.3c0-.31-.3-.51-.57-.67-.34-.19-.67-.4-1-.62.36-.16.66-.41.9-.73.29-.47.4-1.02.34-1.57a1.99 1.99 0 0 0-.47-1.2c-.17-.18-.37-.3-.55-.47-.45-.44-.6-1.09-.78-1.69-.25-.78-.64-1.6-1.35-2.03-.35-.2-.75-.3-1.1-.5-.33-.22-.61-.62-.5-1 .08-.27.33-.45.5-.67a1.33 1.33 0 0 0-.34-1.84c-.2-.12-.43-.23-.47-.45a.83.83 0 0 1-.61-.65c-.06-.3-.06-.62 0-.93l.2-1.46a.95.95 0 0 0 .73 0c.23.37.49.71.79 1.03.8.94 1.42 2.02 1.83 3.19.15.42.3.88.7 1.1.13.08.28.12.4.2.17.12.3.26.42.42l.94 1.25.02.06c0 .04.02.08.04.11.06.07.13.1.22.12.97.22 2.05.42 2.89-.1.75-.48 1.08-1.41 1.72-2.03.46-.45 1.1-.8 1.23-1.41-.16-.05-.3-.1-.45-.17l.44-.46c.26-.25.49-.53.7-.83.22-.37.4-.76.52-1.17l1.52-4.33c.24-.68.48-1.37.79-2.03.31-.72.68-1.4 1.03-2.11a28 28 0 0 0 2.04-5.75c.08-.27.1-.55.08-.83-.07-.46-.42-.81-.75-1.14a5.5 5.5 0 0 0-1.11-.92 1.84 1.84 0 0 0-1.4-.23c-.68.2-1.1.89-1.25 1.58-.16.69-.1 1.4-.16 2.1-.1 1-.44 1.98-.53 3-.04.58 0 1.17-.07 1.75-.13.77-.4 1.5-.79 2.18-.85 1.6-2 3.01-3.39 4.18l-.48.4.03-.34-.33.12a1 1 0 0 0-.04-.4c-.2-.62-1.14-.78-1.3-1.42a2.94 2.94 0 0 1-.05-.48c-.06-.55-.44-1.03-.57-1.57-.12-.5-.03-1.05-.26-1.51a4.2 4.2 0 0 0-.7-.79 3.1 3.1 0 0 1-.66-1.25l-.1-.39c.03-.3 0-.59-.1-.86-.24-.6-.85-.98-1.08-1.58-.17-.46-.1-1.05-.42-1.4-.18-.18-.39-.3-.62-.38-1.2-.47-2.46-.77-3.75-.89-.72-.06-1.5-.1-2.02-.6-.6-.6-.63-1.65-1.33-2.1-.62-.4-1.5-.1-1.98.46l-.2.26a2.8 2.8 0 0 1-.05-1.08l.02-.26a5.25 5.25 0 0 0 2.85-2.24v.01l.03.08c.07.2.2.38.37.4.12 0 .24-.04.33-.12a2.7 2.7 0 0 0 .93-1.13c.13-.28.22-.57.26-.88.05-.3.06-.61.1-.92a5.76 5.76 0 0 1 .28-.92l.08-.26c.16-.54.25-1.1.26-1.67v-.28a2.78 2.78 0 0 0-.88-1.95c-.45-.37-1.05-.53-1.38-1.03-.21-.33-.26-.77-.39-1.16a2.62 2.62 0 0 0-2.06-1.85 2.3 2.3 0 0 0-1.63.45l-.03.02c-.26.2-.49.45-.66.73-.34-.1-.66-.28-.92-.53-.26-.24-.46-.55-.73-.78a1.88 1.88 0 0 0-1.86-.4 2.23 2.23 0 0 0-1.34 1.53c-.14.54-.12 1.16-.42 1.62-.23.35-.61.52-.88.84-.17.2-.28.44-.33.7-.03.14-.05.29-.05.44 0 .06 0 .13.02.2v.02a1.84 1.84 0 0 0 1.07 1.39l.3.1.31.07.11.02a5.22 5.22 0 0 0-.15 4.62l-.02.22c-.04 1.04 0 2.07.13 3.1.04.4.06.85-.19 1.17-.11.13-.24.24-.38.34l.44-.55c-.37-.37-.96-.41-1.48-.38-1.02.08-2 .38-2.89.88-.59.34-1.19.79-1.86.71-.4-.04-.79-.26-1.17-.16-.22.1-.42.21-.6.36a.81.81 0 0 1-.5.15c-.4-.5-1.04-.85-1.54-1.26-.56-.5-1.07-1.05-1.53-1.64-.85-1.03-1.7-2.06-2.53-3.1-.7-.86-1.43-1.8-1.55-2.92a8.42 8.42 0 0 1 .18-1.9.79.79 0 0 0 0-.39c-.08-.26-.38-.35-.64-.41.04-.2.06-.41.07-.6.15-2.26-.01-4.56.47-6.76a4.6 4.6 0 0 1 1.09-2.33c.95-.97 2.56-1.2 3.29-2.35.61-.95.37-2.3-.4-3.14a3.97 3.97 0 0 0-3.1-1.15 1.6 1.6 0 0 0-.9.24c-.24.23-.43.51-.54.83l-1.12 2.74c-.33.71-.6 1.44-.83 2.2-.3 1.14-.38 2.36-.63 3.51 0 .9-.57 2-.89 2.83-.35.92-.73 1.83-1.05 2.78-.08.23-.35.93-.52 1.57a.97.97 0 0 0-.18.13c-.14.18-.26.36-.37.56-.24.31-.63.48-.9.78-.25.3-.3.87.06 1.02l.22.05.15.02c.39.11.54.6.49 1.02-.06.4-.27.78-.3 1.2-.07.72.35 1.39.76 2 .43.66.9 1.29 1.4 1.88.37.42.79.8 1.16 1.19 1.42 1.46 2.55 3.16 3.82 4.75.46.6.98 1.14 1.56 1.63.37.3.77.56 1.18.8l2.19 1.4c.25.18.53.31.83.39h.29l.04.2c.17.68.54 1.3.59 2 .04.7-.02 1.42.03 2.13.04.65.19 1.3.22 1.95.08 1.24-.23 2.46-.52 3.67-.44 1.78-.71 3.58-1.57 5.2-.25.44-.53.89-.53 1.4 0 .05 0 .12.02.18l-.4.22-.33.2c-.5.32-1.03.68-1.24 1.24-.16.46-.09.98-.29 1.42a.62.62 0 0 1-.03.06c-.2.4-.62.7-.72 1.16-.07.34.07.7 0 1.05-.06.18-.1.36-.14.53 0 .06 0 .12.02.18a1 1 0 0 0 .31.5c.1.1.2.18.3.25l.35.2.07.04.3.15.07.03.36.14.08.03.3.08.06.02.06.02.26.05.1.02.35.05h.1l.27.01h.48l.37-.03h.04l.33-.06.08-.02c.1-.02.2-.04.31-.08l.06-.01.36-.12c.42-.18.82-.38 1.21-.6.27-.15.53-.3.79-.43.2-.1.4-.19.6-.26a3.38 3.38 0 0 1 2.36-.1v.08l.63 3.78c.34-.25.7-.47 1.09-.65a2.4 2.4 0 0 0-.14 1.05c.02.25.07.53-.08.73-.09.12-.26.18-.3.32-.04.14-.05.29-.03.43a.68.68 0 0 1-.63.63 1 1 0 0 1-.4 1.17c-.1.06-.2.12-.3.2a.9.9 0 0 0-.18.4 7 7 0 0 1-2.05 3.37c-.37.3-.71.63-1.01 1-.19.28-.34.58-.46.9l-2.13 5.13c-.4.96-.79 1.93-.91 2.96-.32 2.83-2.84 5.23-2.36 8.03.1.7.37 1.37.81 1.92.53.63 1.31 1 2.1 1.29 2.02.78 4.16 1.21 6.28 1.65l3.34.68c.65.15 1.31.26 1.98.31.8.06 1.63-.02 2.42.19.48.12.95.36 1.45.38.43.03.96-.06 1.21.29.26.35.06.81.3 1.13.39.49 1.34 0 1.76.46.11.18.2.38.26.58.06.13.16.24.26.33.03.15.04.3.03.45-.05.6-.18 1.2-.37 1.79l-.94 3.2c-.12.37-.21.76-.27 1.15-.02.19-.02.38 0 .57.06.58.4 1.18.94 1.37.43.11.9.05 1.28-.16.38-.2.73-.43 1.05-.7a7.19 7.19 0 0 0 1.51-1.57c1.31-1.96.89-4.61 1.8-6.78.62-1.45 1.81-2.62 2.2-4.15.1-.29.11-.6.04-.9-.17-.52-.73-.82-1.25-1h-.02a10.6 10.6 0 0 0-1.31-.38c-.11-.03-.23-.05-.34-.06-.25-.2-.45-.47-.58-.76-.02-.16-.06-.3-.12-.45a.47.47 0 0 0-.38-.21c-.26-.03-.61.07-.9.05-.58-.05-.97-.62-1.5-.89-.52-.26-1.09-.2-1.65-.16-.2.03-.4.02-.6-.03-.23-.11-.44-.26-.63-.44a2.64 2.64 0 0 0-2.3-.46c-.26.1-.52.16-.8.18-.5-.03-.87-.49-1.24-.83-1.04-.95-2.5-1.2-3.76-1.82a.85.85 0 0 1-.45-.39c-.15-.36.18-.71.47-.96l2.16-1.79c2.36-1.96 5.3-3.43 6.4-6.31.12-.39.3-.75.53-1.08.08-.1.18-.19.29-.26a2.2 2.2 0 0 1 1.61-.32c.68.16 1.33.44 1.9.83a35.94 35.94 0 0 1 5.25 3.9c1.37 1.3 2.52 2.86 3.8 4.27 1.28 1.42 2.75 2.74 4.53 3.41 1.78.68 3.93.65 5.46-.48 1.77-1.32 2.33-3.66 2.78-5.81.98-.95 1.28-2.4 1.76-3.67.3-.81.69-1.58 1.01-2.38.39-.95.7-1.93 1-2.91.34-.98.58-2 .7-3.04.12-1.63-.32-3.37.14-4.9.6-.14 1.16-.48 1.75-.68.9-.29 1.84-.24 2.78-.23h.06c.32.03.65-.05.92-.22.32-.26.37-.71.38-1.12.04-1-.02-2.13-.78-2.78Zm-38-44.73c-.2.05-.43.07-.66.04l.67-.04Z" fill="url(#b)"/><path d="M208.04 56.26c-.32.27-.69.46-1.09.57l-1.86.67a6.93 6.93 0 0 1-3.13.6c-.6-.08-3.14-.45-3.53-.92-.59-.71 1.47-1.77 2.17-2.38a3 3 0 0 0 .44-.39c.27-.32.23-.76.2-1.17a18.1 18.1 0 0 1-.14-3.08c.02-.25.06-.5.1-.74.27-1.2 1.39-.76 2.28-.44 1.06.34 2.1.8 3.08 1.33.3.16.56.38.76.65.39.59.23 1.36.17 2.1-.06.57-.06 1.12.3 1.54.19.16.35.33.5.52a.98.98 0 0 1-.25 1.14ZM182.36 37.36c.26-1.17.32-2.36.63-3.52.22-.74.5-1.48.83-2.19l1.15-2.7c.1-.31.3-.6.55-.82.27-.17.58-.25.9-.24a4 4 0 0 1 3.09 1.14c.77.83 1.01 2.18.4 3.13-.74 1.14-2.34 1.38-3.3 2.34-.6.62-.9 1.47-1.09 2.32-.47 2.2-.31 4.49-.46 6.74-.05.7-.18 1.5-.79 1.86a2.3 2.3 0 0 1-1.17.23l-1.72.03c-.29 0-1.34.18-1.53-.04-.33-.38.43-2.27.57-2.7.31-.93.7-1.84 1.05-2.77.31-.82.89-1.93.89-2.81Z" fill="#BE6F72"/><path d="M217.88 119.74c-.4 1.52-1.59 2.7-2.2 4.14-.92 2.17-.5 4.81-1.8 6.77-.43.6-.94 1.12-1.52 1.56-.32.27-.67.5-1.05.7-.39.22-.84.27-1.27.16-.56-.19-.89-.79-.94-1.36a2.85 2.85 0 0 1 0-.57 7 7 0 0 1 .26-1.15l.94-3.2c.2-.57.32-1.17.38-1.78.03-.66-.39-1.52-.21-2.13.08-.28.38-.53.52-.76.2-.34.35-.7.45-1.07.22-.73.37-1.52.82-2.13.3-.37.64-.7 1.02-.96.28-.25.62-.43.98-.55.34-.06.7-.04 1.05.05.44.1.88.22 1.3.37h.03c.52.2 1.08.48 1.25 1.01.08.3.07.6-.01.9ZM245.78 87.5c-.02.4-.07.86-.38 1.12-.28.17-.6.25-.92.21h-.07c-.94 0-1.9-.05-2.78.24-.67.22-1.3.63-2 .72-.96.1-1.87-.42-2.73-.89-.8-.43-1.64-.82-2.48-1.18-.56-.22-1.7-.37-1.96-.98-.1-.29-.17-.58-.23-.88l-.16-.38a2.21 2.21 0 0 1-.3-.87c0-.3.11-.6.3-.84a2.51 2.51 0 0 1 1.72-.88 7.61 7.61 0 0 1 1.98.1l6.45.93c.5.07 1 .14 1.5.26.46.08.9.28 1.27.56.77.64.83 1.77.79 2.76Z" fill="#3F3D56"/><path d="M240.1 89.18c-.78 1.66-.22 3.62-.36 5.46a13.9 13.9 0 0 1-.7 3.03c-.3.97-.6 1.95-1 2.9-.32.78-.7 1.57-1 2.37-.48 1.28-.79 2.72-1.76 3.67-.45 2.15-1.02 4.5-2.78 5.8-1.53 1.13-3.67 1.17-5.46.48-1.8-.68-3.25-2-4.53-3.4-1.28-1.42-2.43-2.96-3.8-4.28a23.86 23.86 0 0 0-2.52-2.05 39.3 39.3 0 0 0-2.74-1.82 5.5 5.5 0 0 0-1.9-.83 2.2 2.2 0 0 0-1.6.32c-.12.07-.21.16-.3.26-.23.33-.4.69-.52 1.08-1.1 2.86-4.06 4.34-6.42 6.3l-2.16 1.78c-.29.24-.62.6-.47.95.1.18.26.32.45.4 1.25.61 2.72.86 3.76 1.8.38.35.74.8 1.25.83.27-.01.53-.07.79-.17a2.64 2.64 0 0 1 2.3.46c.19.18.4.33.64.43.2.05.4.07.6.04.55-.04 1.14-.09 1.65.16.5.25.9.83 1.5.88.28.02.62-.08.9-.05a.47.47 0 0 1 .37.21c.06.14.1.3.12.45.11.37.47.6.7.9.37.47.42 1.1.39 1.7a7.22 7.22 0 0 1-2.3 4.82c-.39.4-.88.67-1.41.79a1.32 1.32 0 0 1-1.4-.62c-.06-.2-.15-.4-.27-.58-.42-.46-1.37.03-1.75-.47-.25-.3-.07-.8-.3-1.12-.23-.32-.79-.26-1.22-.28-.5-.03-.96-.26-1.45-.39-.78-.2-1.6-.13-2.41-.18-.67-.06-1.34-.16-1.99-.32l-3.34-.68a39.54 39.54 0 0 1-6.27-1.64 5.05 5.05 0 0 1-2.1-1.29 3.94 3.94 0 0 1-.82-1.91c-.47-2.8 2.04-5.2 2.36-8.01.11-1.03.52-2 .91-2.95.72-1.7 1.42-3.42 2.13-5.12.12-.32.27-.63.45-.91.3-.37.64-.7 1.01-.99 1-.9 1.71-2.07 2.06-3.37a.9.9 0 0 1 .17-.4c.1-.07.2-.14.3-.19a1 1 0 0 0 .4-1.17.68.68 0 0 0 .63-.63c-.02-.14-.01-.29.02-.43.07-.13.22-.2.31-.32.15-.2.1-.47.08-.72a2.4 2.4 0 0 1 .7-1.94c.63-.61 1.52-.45 2.38-.6.87-.18 1.71-.45 2.52-.8 2.28-.9 4.67-1.45 7.11-1.65 2.45-.19 4.91.2 7.18 1.15.33.13.64.3.93.52.2.16.37.35.48.58.1.28.22.55.36.8.28.39.8.51 1.12.87.3.36.33.98.58 1.42.37.64 1.21.94 1.46 1.64.08.22.1.46.15.68.14.58.57 1.03.94 1.48a11.33 11.33 0 0 1 2.54 5.77c.09-1.33.98-2.5 2.1-3.24.3-.2.65-.42.7-.77.09-.46-.35-.86-.32-1.32.03-.22.12-.43.26-.6.5-.73 1.05-1.42 1.64-2.07.32-.36.69-.79.55-1.26-.1-.35-.46-.55-.66-.85a1.1 1.1 0 0 1 .03-1.21c.19-.25.48-.43.56-.73.1-.35-.12-.72-.05-1.08.1-.29.29-.54.54-.7.35-.32.74-.58 1.17-.77.7-.27 1.47-.17 2.2-.07 1.23.17 2.6.44 3.3 1.46.44.65.66 1.62.33 2.3Z" fill="#65617D"/><path opacity=".1" d="M245.78 87.5c-.02.4-.07.86-.38 1.12-.28.17-.6.25-.92.21h-.07c.1-.54.77-.85.88-1.4a1.25 1.25 0 0 0-.29-.96 4.73 4.73 0 0 0-2.36-1.48 15.63 15.63 0 0 0-7.88-.6c-.72.12-1.41.34-2.07.64a6.9 6.9 0 0 0-.63.45 2.21 2.21 0 0 1-.3-.87c0-.3.11-.6.3-.84a2.52 2.52 0 0 1 1.72-.88 7.61 7.61 0 0 1 1.98.1l6.46.93c.5.07 1 .14 1.49.26.46.08.9.28 1.28.56.77.64.83 1.77.79 2.76ZM217.88 119.74c-.4 1.52-1.59 2.7-2.2 4.14-.92 2.17-.5 4.81-1.8 6.77-.43.6-.94 1.12-1.52 1.56-.32.27-.67.5-1.05.7-.39.22-.84.27-1.27.16-.56-.19-.89-.79-.94-1.36a2.85 2.85 0 0 1 0-.57l.01.04c.23.55.6 1.13 1.19 1.22a1.6 1.6 0 0 0 1.21-.42 7.47 7.47 0 0 0 1.85-2.73c.38-.72.67-1.48.89-2.27.1-.44.15-.9.26-1.34.5-2.17 2.2-3.94 2.57-6.13.03-.15.03-.3.02-.46-.05-.2-.13-.4-.23-.57-.09-.2-.16-.42-.2-.64.53.2 1.08.48 1.25 1.01.07.3.05.6-.04.89ZM213.92 115.98a3.8 3.8 0 0 1-1.18 1.61c-.75.57-1.63.95-2.55 1.1-.43.12-.88.11-1.31 0-.59-.21-1-.76-1.6-.91-.42-.12-.88-.02-1.31-.08-.77-.1-1.38-.7-2-1.17-1.91-1.44-4.42-1.9-6.33-3.34a.58.58 0 0 1-.2-.21.62.62 0 0 1-.05-.3c.01-.87.2-1.73.58-2.52.3-.55.66-1.06 1.08-1.54 1.71-2.1 3.43-4.2 5.48-5.98a8.28 8.28 0 0 1 2.89-1.77c.6-.18 1.8-.36 2.53-.05-.11.08-.21.17-.3.27a3.6 3.6 0 0 0-.52 1.07c-1.1 2.87-4.06 4.35-6.42 6.3l-2.16 1.79c-.29.24-.62.6-.47.95.1.18.26.32.45.4 1.25.61 2.72.86 3.76 1.8.38.35.74.8 1.25.83.27-.01.53-.07.79-.17a2.64 2.64 0 0 1 2.3.46c.19.18.4.33.64.43.2.05.4.07.6.04.55-.04 1.14-.09 1.65.16.5.25.9.83 1.5.88.28.02.63-.08.9-.05Z" fill="#000"/><path d="M189.8 80.39c-.5.32-1.03.68-1.23 1.24-.17.45-.1.97-.3 1.41-.2.44-.65.75-.75 1.22-.07.34.07.7 0 1.05-.06.18-.1.36-.14.54-.03.4.3.71.63.93a5.33 5.33 0 0 0 4.77.52c.7-.26 1.33-.69 2-1.02.66-.38 1.4-.56 2.16-.53.43.05.85.2 1.28.27a1.35 1.35 0 0 0 1.2-.36c.13-.18.22-.4.26-.62a9.3 9.3 0 0 0-.15-4.41c-.34-1.45-.87-2.84-1.24-4.28-.26-1.07-.46-2.17-.9-3.17a4.16 4.16 0 0 0-2.2-2.34.41.41 0 0 0-.27-.03.45.45 0 0 0-.17.12 8.06 8.06 0 0 0-1.8 3.03c-.4 1.26-.52 2.59-.9 3.85-.16.52-.37 1.23-.78 1.63-.42.4-1 .65-1.47.95Z" fill="#3F3D56"/><path opacity=".1" d="M199.69 85.03c-.04.23-.14.44-.28.62a1.33 1.33 0 0 1-1.2.36c-.43-.06-.84-.22-1.27-.27-.76-.03-1.5.15-2.16.53-.67.33-1.31.75-2 1.02a5.3 5.3 0 0 1-4.76-.51c-.33-.22-.66-.52-.64-.93l.15-.54c.06-.34-.07-.7 0-1.05.1-.47.55-.78.75-1.22.2-.44.13-.96.29-1.41.2-.56.74-.92 1.24-1.24.5-.32 1.09-.57 1.48-.96.06-.06.1-.13.14-.2.3-.44.5-.93.63-1.44.38-1.26.49-2.6.9-3.85a8.07 8.07 0 0 1 1.8-3.03c.04-.05.1-.1.17-.12.08-.02.18 0 .26.03a4.19 4.19 0 0 1 2.2 2.34c.45 1 .63 2.1.9 3.16.37 1.44.9 2.84 1.25 4.29.34 1.44.51 2.98.15 4.42ZM207.49 53.05a5.25 5.25 0 0 1-6.39-2.89c.02-.24.06-.49.1-.73.27-1.2 1.39-.76 2.28-.44 1.06.34 2.1.79 3.08 1.33.3.16.56.38.76.65.39.58.23 1.35.17 2.08Z" fill="#000"/><path d="M205.9 53.03a5.25 5.25 0 1 0 0-10.49 5.25 5.25 0 0 0 0 10.5Z" fill="#BE6F72"/><path opacity=".1" d="M220.13 86.98c0 .44-.59.58-1.02.55-1.58-.09-3.12-.52-4.67-.4-1.97.19-3.78 1.28-5.76 1.38-.76.03-1.53-.08-2.28.06-.97.18-1.84.77-2.83.86-.85.07-1.7-.25-2.56-.22-.6.04-1.18.2-1.7.49.05-.56.3-1.07.7-1.47.62-.61 1.51-.45 2.38-.6.86-.19 1.7-.46 2.52-.8 2.27-.9 4.67-1.46 7.1-1.65 2.45-.2 4.91.2 7.18 1.14.33.13.64.3.93.52.01.05.02.1.01.14Z" fill="#000"/><path d="m203.48 57.36-2.13-.78-.9-.33a4.33 4.33 0 0 0-1.14-.3c-1.02-.09-2 .6-2.54 1.47a8 8 0 0 0-.93 2.93 79.62 79.62 0 0 0-.61 4.18 27.33 27.33 0 0 0-.28 3.81c.06 3.25.75 6.45 1.5 9.61.37 1.4.65 2.83.84 4.26l.15 1.79c.07.67.18 1.33.3 1.99l.63 3.77a4.98 4.98 0 0 1 2.64-1.08c.86-.03 1.71.29 2.56.22.99-.09 1.86-.68 2.83-.86.75-.14 1.52-.03 2.29-.06 1.97-.1 3.78-1.2 5.75-1.37 1.56-.14 3.1.3 4.67.4.43.02 1.02-.12 1.02-.56 0-.3-.3-.5-.56-.66a28.1 28.1 0 0 1-3.56-2.53 12 12 0 0 1-2.79-2.77c-1.71-2.66-1.13-6.26-2.59-9.07-1.18-2.28 0-5.27 0-7.84 0-1.28 0-2.58-.3-3.83-.19-.7-.42-1.38-.7-2.04l-1.02-2.59a.43.43 0 0 0-.12-.2.4.4 0 0 0-.23-.06 2.46 2.46 0 0 0-1.7.54c-.48.4-.78.95-1.26 1.36-.51.45-1.18.84-1.82.6Z" fill="#E3E8F4"/><path d="M206.9 55.88c.17-.72.35-1.47.83-2.03.48-.56 1.36-.86 1.98-.46.7.46.73 1.51 1.33 2.1.53.5 1.31.54 2.03.6 1.28.12 2.54.42 3.74.89.23.07.44.2.62.37.33.37.26.95.42 1.41.23.6.84.98 1.08 1.57.26.66 0 1.4-.22 2.08-.4 1.22-.64 2.49-1.03 3.71a8.27 8.27 0 0 1-1.84 3.36c-.4.4-.99.78-1.51.54l-.2 1.46c-.06.3-.06.62 0 .93a.83.83 0 0 0 .6.64c.05.23.28.33.48.46a1.3 1.3 0 0 1 .33 1.83c-.16.23-.4.4-.49.67-.12.38.17.78.5 1 .35.2.75.3 1.1.5.71.42 1.1 1.23 1.35 2.02.18.6.33 1.25.78 1.69.18.16.38.29.55.46.28.34.45.76.47 1.2.07.55-.05 1.1-.34 1.58-.53.75-1.5.97-2.36 1.3-1.4.58-2.54 1.6-3.77 2.47a4 4 0 0 1-1.72.81c-.85.11-1.68-.26-2.54-.3-.51 0-1.02.08-1.51.2l-1.58.34c.09-1.22-.58-2.44-.96-3.6a17.9 17.9 0 0 1-.67-6.82c.17-2.29.63-4.55 1.1-6.8.32-1.57.29-3.22.78-4.75.47-1.47 1.13-2.88 1.37-4.41.4-2.48-1.26-4.58-.7-7.02Z" fill="#3F3D56"/><path d="M218.84 60.72c.14.27.24.56.3.86.12.46.35.89.66 1.24.26.24.5.5.7.8.24.45.15 1 .26 1.5.13.54.51 1.02.57 1.58 0 .16.01.31.04.47.17.64 1.1.79 1.31 1.42.14.42-.1.86-.05 1.3.03.13.04.27.02.4a.83.83 0 0 1-.3.39 6.03 6.03 0 0 0-1.72 3.07 17.5 17.5 0 0 0-.4 3.55l-1.02-1.36c-.11-.16-.25-.3-.42-.42-.13-.08-.28-.12-.41-.2-.39-.21-.54-.68-.7-1.1a10.22 10.22 0 0 0-1.83-3.18c-.41-.49-.9-.98-1-1.62-.02-.3 0-.59.06-.88.26-1.71.54-3.47 1.38-5 .39-.71.9-1.36 1.27-2.08.25-.48.6-1.73 1.28-.74ZM192.97 62.37c0 .22-.06.44-.17.63a.82.82 0 0 1-.83.27 2.4 2.4 0 0 1-.82-.4c-.74-.45-1.47-.92-2.2-1.38-.4-.25-.8-.52-1.17-.8-.58-.5-1.1-1.04-1.56-1.64-1.27-1.57-2.4-3.28-3.82-4.72-.39-.39-.79-.77-1.16-1.18-.5-.6-.98-1.22-1.4-1.88-.4-.6-.83-1.28-.76-2 .04-.41.24-.79.3-1.2.05-.4-.1-.9-.5-1a.9.9 0 0 0-.14-.03l-.23-.05c-.36-.15-.3-.72-.04-1.01.26-.3.65-.47.88-.8.12-.18.24-.37.38-.54.17-.16.38-.26.6-.31a9.46 9.46 0 0 1 4.66-.18c.26.06.56.17.64.42.03.12.03.25 0 .38a8.34 8.34 0 0 0-.18 1.9c.13 1.11.85 2.05 1.55 2.92.83 1.04 1.68 2.06 2.53 3.08.46.6.97 1.15 1.53 1.64.53.44 1.2.79 1.62 1.35.33.45.22 1.07.26 1.6.12 1.65.13 3.3.03 4.93Z" fill="#3F3D56"/><path d="M226.27 73.31c.26-.25.5-.52.7-.82.22-.37.4-.76.52-1.17l1.52-4.32c.24-.68.49-1.36.79-2.03.31-.71.69-1.4 1.03-2.1a28.03 28.03 0 0 0 2.04-5.7c.08-.27.1-.55.08-.84-.07-.45-.42-.8-.75-1.13-.33-.35-.7-.66-1.11-.92a1.84 1.84 0 0 0-1.4-.22c-.68.2-1.1.88-1.25 1.57-.16.69-.1 1.4-.16 2.1-.1 1-.44 1.98-.53 2.99-.04.58 0 1.17-.07 1.75-.13.77-.4 1.5-.79 2.17-.85 1.6-2 3.01-3.39 4.17-.38.28-.72.61-1.01.98a3.2 3.2 0 0 0-.5 1.22c-.17.67-.1 1.37.22 1.99.42.73 1.25 1.05 2.03 1.2 1.06.23 1.3-.13 2.03-.89Z" fill="#BE6F72"/><path d="M205.94 40.19a2.45 2.45 0 0 1 2.37-1.29 2.62 2.62 0 0 1 2.06 1.85c.13.4.17.83.39 1.16.33.5.93.65 1.38 1.02a2.76 2.76 0 0 1 .88 1.95c.03.75-.1 1.5-.35 2.2-.1.3-.2.62-.26.93-.05.3-.06.61-.1.92a2.98 2.98 0 0 1-1.2 1.98c-.1.08-.22.12-.33.12-.2-.02-.33-.26-.41-.48-.42-1.2-.32-2.67-1.09-3.63-.34-.39-.77-.7-1.24-.93-.2-.12-.4-.2-.63-.23-.34.01-.66.13-.92.33-.56.37-1.17.64-1.82.8a2.23 2.23 0 0 1-1.87-.4c-.36-.3-.63-.75-1.03-.98-.4-.23-.82-.22-1.22-.38a1.8 1.8 0 0 1-.73-2.75c.27-.31.66-.5.89-.84.3-.45.27-1.07.42-1.61a2.22 2.22 0 0 1 1.33-1.53 1.88 1.88 0 0 1 1.87.4c.26.23.47.54.73.78a2.1 2.1 0 0 0 1.94.53" fill="#3F3D56"/><path opacity=".1" d="M210.25 78.79a1.02 1.02 0 0 0-.28 1.1c.06.13 2.76-.39 3.05-.43.71-.1 1.96-.05 2.44-.7.86-1.16-1.8-.9-2.28-.86-.92.08-2.23.2-2.93.89Z" fill="#000"/><path d="M185.63 44.96a8.42 8.42 0 0 0-.2 1.57c-.79.16-1.6-.1-2.36-.36l-2.17-.74a.61.61 0 0 0-.83.15c-.35.36-.83 1.05-1.31 1.46l-.23-.05c-.36-.15-.3-.72-.05-1.01.27-.3.66-.47.9-.8.1-.18.23-.37.37-.54.17-.16.38-.26.6-.31a9.45 9.45 0 0 1 4.66-.18c.26.06.56.17.64.42.03.13.02.26-.02.39Z" fill="#3F3D56"/><path opacity=".1" d="M185.63 44.96a8.42 8.42 0 0 0-.2 1.57c-.79.16-1.6-.1-2.36-.36l-2.17-.74a.61.61 0 0 0-.83.15c-.35.36-.83 1.05-1.31 1.46l-.23-.05c-.36-.15-.3-.72-.05-1.01.27-.3.66-.47.9-.8.1-.18.23-.37.37-.54.17-.16.38-.26.6-.31a9.45 9.45 0 0 1 4.66-.18c.26.06.56.17.64.42.03.13.02.26-.02.39ZM205.47 94.74c.37.13.78.31.91.7l-3.04-.78-1.57-.4c-.28-.07-1.27-.15-1.46-.37-.26-.32.67-.1.84-.08l1.52.25c.96.17 1.88.45 2.8.68ZM206.64 97.43c-.26-.17-1.01-.15-1.33-.23-.48-.11-.94-.26-1.4-.4-.95-.31-1.88-.66-2.85-.89-.18-.04-.78-.05-.75-.27.02-.23.6-.3.75-.32.85-.06 1.93.34 2.72.63a12 12 0 0 1 2.86 1.48ZM204.72 92.35c-.96-.27-1.84-.86-2.83-.98-.26.01-.51-.07-.72-.22a.85.85 0 0 1-.23-.42c.66-.03 1.43.25 2.03.51.34.15.66.32.96.51.22.14.55.52.79.6Z" fill="#000"/><path d="M223.06 68.87a4.58 4.58 0 0 0 3.22 5.07c-.13.62-.77.96-1.22 1.4-.65.63-.97 1.56-1.73 2.03-.84.52-1.93.32-2.89.1a.35.35 0 0 1-.22-.12 6.75 6.75 0 0 1-.24-3.67c.26-.99.89-1.83 1.4-2.71.5-.88.54-1.82 1.69-2.1ZM199.62 53.83c-1.02.07-2 .37-2.89.88-.58.33-1.19.78-1.86.7-.4-.04-.78-.26-1.17-.15-.22.08-.42.2-.6.35a.68.68 0 0 1-.66.1l-.26 3.64c-.1 1.38-.2 2.78.13 4.13.17.69.54 1.31.59 2 .04.7-.02 1.42.03 2.13.04.65.19 1.3.22 1.95.08 1.23-.23 2.45-.52 3.65-.44 1.77-.71 3.57-1.57 5.17-.25.45-.53.9-.53 1.4 0 .06 0 .12.02.18-.27.15-.5.28-.73.43-.5.32-1.03.68-1.24 1.24-.16.45-.09.97-.29 1.4-.2.45-.65.76-.75 1.23-.07.34.06.7 0 1.05-.06.18-.1.36-.14.54-.03.4.3.71.63.93.48.31 1.02.55 1.58.69l1.56-6.22a50.03 50.03 0 0 0 3.55-8.25c.27-.93.6-1.84 1.03-2.71.3-.5.55-1.02.78-1.55.24-.66.26-1.37.38-2.07.14-.82.34-1.62.62-2.4.28-.84.6-1.68.66-2.56.1-1.26-.37-2.6.12-3.77.2-.44.48-.84.8-1.2.68-.83 1.3-1.7 1.97-2.53-.35-.37-.94-.41-1.46-.38Z" fill="#3F3D56"/><g opacity=".1" fill="#000"><path opacity=".1" d="m207 39.33-.32.02-.04.03.37-.05ZM213 44.77a7.04 7.04 0 0 1-.33 1.53c-.1.3-.2.61-.26.92-.05.3-.06.62-.1.92a2.98 2.98 0 0 1-1.2 1.99c-.1.07-.22.11-.33.11-.2-.02-.33-.26-.41-.47-.42-1.2-.32-2.68-1.09-3.64-.34-.38-.77-.7-1.24-.92-.2-.13-.4-.2-.63-.24-.34.02-.66.13-.92.33-.56.38-1.17.65-1.82.8a2.23 2.23 0 0 1-1.87-.4c-.36-.3-.63-.74-1.03-.98-.4-.23-.82-.22-1.22-.38a1.8 1.8 0 0 1-1.04-1.27 1.83 1.83 0 0 0 .4 1.59c.18.2.4.36.64.47.4.16.85.16 1.22.38.38.22.67.68 1.03.98a2.23 2.23 0 0 0 1.87.4 5.72 5.72 0 0 0 1.82-.8c.26-.2.58-.32.92-.33a3.98 3.98 0 0 1 1.86 1.17c.76.96.66 2.43 1.08 3.63.08.22.2.46.4.48.13 0 .26-.04.35-.13a3 3 0 0 0 1.2-1.99c.05-.3.06-.61.11-.92.07-.31.16-.62.27-.92.25-.7.37-1.46.34-2.2l-.01-.11Z"/></g><path d="m196.42 65.81-.18 2.4c-.03.32-.65 8.06-5.23 17.1a48.56 48.56 0 0 1-26.04 23.55c-1.13.45-2.3.87-3.51 1.25l-1.36-4.25c3.4-1.06 6.67-2.5 9.76-4.26a43.2 43.2 0 0 0 17.09-18.14 48.75 48.75 0 0 0 4.48-13.2H175v-4.45h21.43Z" fill="#00BAFC"/><path opacity=".1" d="M163.2 108.87a48.55 48.55 0 0 0 26.03-23.55c4.59-9.04 5.21-16.78 5.24-17.1l.17-2.4h1.84l-.18 2.4c-.02.32-.65 8.06-5.23 17.1a48.56 48.56 0 0 1-26.04 23.55c-1.13.44-2.3.86-3.51 1.25l-.18-.56 1.86-.7Z" fill="#fff"/><path d="m134.27 105.86-1.36 4.25c-1.21-.38-2.38-.8-3.51-1.25a48.55 48.55 0 0 1-26.04-23.54c-4.58-9.05-5.2-16.78-5.23-17.11l-.18-2.4h21.41v4.46h-16.44a48.77 48.77 0 0 0 4.5 13.19c4 7.81 9.72 13.88 17.08 18.13 3.1 1.77 6.37 3.2 9.77 4.27Z" fill="#00BAFC"/><path opacity=".1" d="M131.17 108.87a48.55 48.55 0 0 1-26.04-23.55c-4.58-9.04-5.2-16.78-5.23-17.1l-.18-2.4h-1.84l.18 2.4c.02.32.65 8.06 5.23 17.1a48.56 48.56 0 0 0 26.04 23.55c1.13.44 2.3.86 3.51 1.25l.18-.56c-.63-.23-1.25-.46-1.85-.7Z" fill="#fff"/><path d="M171.92 146.93v24.04h-49.48v-24.04l1.58-2.1c16.03-5.69 19.28-20.53 19.93-26.4.1-.81.15-1.63.16-2.44h6.12c.01.82.07 1.63.17 2.44.65 5.87 3.9 20.72 19.93 26.4l1.59 2.1Z" fill="#00BAFC"/><path opacity=".1" d="M171.92 146.93h-49.48v3.02h49.48v-3.02Z" fill="#000"/><path opacity=".1" d="M126.64 144.83c16.03-5.69 19.28-20.53 19.93-26.4.1-.81.15-1.63.17-2.44h-2.63c-.01.82-.07 1.63-.16 2.44-.66 5.87-3.91 20.72-19.93 26.4l-1.58 2.1v24.04h2.63v-24.04l1.57-2.1Z" fill="#fff"/><path opacity=".1" d="M114.93 65.81h4.43v4.46h-4.04c-.16-1.47-.29-2.96-.4-4.46ZM134.27 105.86l-1.36 4.25c-1.21-.38-2.38-.8-3.51-1.25a46.99 46.99 0 0 1-4.9-7.27c3.1 1.77 6.37 3.2 9.77 4.27ZM160.1 105.86c3.4-1.06 6.67-2.5 9.76-4.26-1.4 2.57-3.04 5-4.9 7.27-1.12.44-2.3.86-3.5 1.25l-1.36-4.26ZM179.43 65.81c-.1 1.5-.23 3-.39 4.46H175V65.8h4.43ZM150.4 118.43c-2.12.41-4.31.41-6.44 0 .1-.81.15-1.63.16-2.44h6.12c.01.82.07 1.63.17 2.44Z" fill="#000"/><path d="M115.45 58.43c.12 33.05 14.28 59.79 31.73 59.79 17.46 0 31.62-26.74 31.73-59.8h-63.46Z" fill="#00BAFC"/><path opacity=".1" d="M121.1 58.43h-5.65c.12 33.05 14.28 59.79 31.73 59.79.95 0 1.9-.08 2.82-.24-16.13-2.7-28.8-28.3-28.9-59.55Z" fill="#fff"/><path d="M164 156.13h-33.64v8.66H164v-8.66Z" fill="#3F3D56"/><path opacity=".1" d="M131.93 157.31H164v-1.18h-33.65v8.66h1.57v-7.48Z" fill="#fff"/><path d="M97.5 90.34c-.6-.2-4.17-3.02-4.44-4.3-.27-1.27 1.89-13.17 1.89-13.17s-.2 0-.53-.04v-.2l.45-15.62s1.81-10.5-1.62-9.88c-3.43.61-1.28 9.88-1.28 9.88s-.39 4.7-.66 6.11c-.27 1.36-1.47 6.9-.65 8.63l.1.18s.14 5.91-1.34 6.72c-1.42.77-2 4.64-2.06 4.98l-.07-.03c-.42-.26-.8-.6-1.1-1l-.08-.12a5.77 5.77 0 0 0-1.78-9.02c-.01-.5-.13-1-.35-1.45-.68-1.45-4.45-3.36-7.14-3.4-1.23-.04-2.25.3-2.62 1.28-.19.49-.13 1.05-.2 1.55a3.96 3.96 0 0 1-1.7 2.53c-.35-.4-.73-.76-1.14-1.1A24.7 24.7 0 0 1 68.56 70s-5.45-5.64-5.85-7.19c-.4-1.55-5.85-10.84-7.07-9.22-1.2 1.62 4.18 8.67 4.18 8.67s1.02 2.56 1.8 3.43c.8.86 6.82 9.62 6.82 9.62l.3.6c-1.28.67-2.45 1.53-2.86 2.86-.6 1.96.72 3.93 1.63 5.77 1.78 3.58 2.03 8.15-.26 11.42-2.06 2.89-5.62 4.26-8.96 5.47a8.82 8.82 0 0 0 5.66 1.88c-.77 2.23-3.5 2.97-5.83 3.38 1.22 1.18 2.97 1.6 4.65 1.87.82.14 1.65.2 2.49.2h.2l.2-.02c.3-.02.57-.06.85-.11a4.45 4.45 0 0 0 3.01-1.98c.53-.91.71-2.16 1.66-2.62.25-.11.52-.18.79-.19h-.03.54l3.97.04h.5c1.12-.02 2.32-.22 2.89-1.14.23-.45.36-.95.36-1.46.08-1.25 0-2.55.03-3.81.34 2.3.7 5.9-.15 7.22-.68 1-1.51 1.9-2.46 2.67-.24.2-.45.42-.65.66l-.2.14-.08.25c-.3.45-.52.95-.64 1.48-.05.14-.07.28-.05.43.09.18-.66.95-.44 1.27-1.87 2.2-2.22 5.5-2.22 5.5l-3.41 5.19c-1.75 4.6-4.38 5.07-4.38 5.07s-6.16-4.13-6.32-4.34c-.17-.2-2.53-1.2-2.53-1.2-.27-.5-.7-.88-1.2-1.11-.82-.34-.88-1.58-.88-1.58-.1-2.92-1.82-3.14-1.82-3.14a5.58 5.58 0 0 0-3.26.58l-.24.02c-1.2.1-2.62.2-4.2.3-4.37.3-5.42 3.13-5.42 3.13s-.53.6.17 1.26c.7.65 5.22 0 5.41-.02-.34.04-.69.02-1.02-.07.7-.02 1.69-.05 2.52-.05h.2c-.05.44-.08.89-.07 1.33 0 .84 2.32 1.38 2.32 1.38l7.06 6.3s4.45 1.98 7.27 4.83c2.83 2.86 5.33.4 5.33.4 3-.75 11.6-11.15 11.6-11.16 0 .3.19 10.42.53 12.45.02.1.04.2.08.3.4.88-.14 3.27-.37 4.27-.15.85-.2 1.7-.17 2.56 0 0-3.23 12.32-2.96 13.4.27 1.09-1.75 6.12-1.75 6.12v4.2l.35-.02-.13.2-.02.05s2.15.47 3.6.34c1.45-.13 3.93 1.11 3.93 1.11s.85.4 3.44.57c2.59.17 2.59-1.14 2.59-1.14-.3-1.79-4.4-2.39-4.52-2.4-.33-.21-.64-.44-.9-.63l-.04-.05.04-.12c.44-1.78-1.98-2.55-1.98-2.55v-.44c1.57-.8 1.88-6.35 1.88-6.35s2.36-6.85 2.7-8c.32-1.14 0-2.85 0-2.85l.23-1.48s.5-1 .5-1.21c.07-.51.27-1 .58-1.41.36-.44-.4-1.48-.4-1.48l.67-1.75v-1.91l1.57-6.96s1.65-8.1 1.08-10.75c-.58-2.65.67-4 .67-4l-.35.16c.16-.37.3-.74.41-1.12l3.54.44v.05h1.28s-.4-4.98-.4-6.99c0-2 1.36-9.22 1.36-9.22s.6-7.04 0-7.25ZM81.8 84.53l-.03.6-.07.12-.13-.11-.16.24-.05.03c-.35-.18-.53-1.2-.77-.98l-.04.03c-.05-.06-.1-.08-.17-.03l-.05.04v-.23c.48.12.97.19 1.47.19v.1Zm11.77 23.2h.08l-.13.33.05-.33ZM80.64 167.2l-.48-.12.26-.05.24.16.03.02-.05-.01Zm4.93-.7a7.24 7.24 0 0 1-.48-.29c.05.03.26.14.48.28Z" fill="url(#c)"/><path d="m95.3 102.78-3.17 8.27h.77l-2.99 2.38 5.4.67v-11.32Z" fill="#F86D70"/><path opacity=".1" d="m95.3 102.78-3.17 8.27-.8-.21-1.42 2.6 5.4.67v-11.33Z" fill="#000"/><path d="M90.33 108.07h4.98l1.82-15.04h-6.8v15.04Z" fill="#F86D70"/><path opacity=".1" d="M90.33 108.07h4.98l1.82-15.04h-6.8v15.04Z" fill="#000"/><path d="m80.6 96.6 1.07-.19 2.47-.42s7.42-1.67 8.95-1.8a9.57 9.57 0 0 0 2.69-.77l.66-.3-2.68-4.89-4.14-3.07s-2.63-.56-3.73-2.09a2.46 2.46 0 0 1-.35-2.32c.68-2.1-4.04 2-4.04 2s.05.99 0 2.24c0 .25-.02.5-.04.76 0 .18-.02.35-.04.53a8.43 8.43 0 0 1-.82 3.3c-1.14 1.86 0 7.01 0 7.01Z" fill="#FBBEBE"/><path opacity=".1" d="M81.5 85.1h.1c.2 0 .35-.4.53-.43 1.48-.14 2.82-.45 3.76-1.5a2.46 2.46 0 0 1-.34-2.32c.67-2.1-4.04 2-4.04 2s.05.99 0 2.24Z" fill="#000"/><path d="M75.76 79.15a5.75 5.75 0 0 0 5.75 5.74c.18 0 .37 0 .56-.02a5.75 5.75 0 1 0-6.31-5.72Z" fill="#FBBEBE"/><path d="M74 70.42c-.2.49-.14 1.03-.21 1.55-.28 1.87-2.18 2.98-3.9 3.76-1.71.79-3.65 1.71-4.2 3.51-.59 1.95.72 3.9 1.62 5.73 1.77 3.56 2.02 8.1-.26 11.36-2.03 2.89-5.56 4.26-8.88 5.46a8.76 8.76 0 0 0 5.62 1.87c-.76 2.22-3.48 2.96-5.79 3.37 1.22 1.17 2.95 1.6 4.62 1.85 1.21.19 2.46.31 3.67.07a4.41 4.41 0 0 0 2.99-1.97c.52-.91.7-2.15 1.64-2.6.43-.18.9-.24 1.35-.2l3.93.04c1.23 0 2.68-.1 3.31-1.14.23-.45.36-.95.36-1.45.17-2.58-.33-5.31.73-7.66.32-.72-1.73-1.84-1.51-2.6.74-2.58.92-4.62.91-7.31 0-2.09 1.36-3.88 2.48-5.64 1.12-1.76 2.05-3.98 1.17-5.87-1-2.1-8.48-5.17-9.66-2.13Z" fill="#3F3D56"/><path d="m79.23 166.44 1 .67.16.1.03.02 1.18.78 2.78.47 2.44-.17s.7-1.47-.4-1.43a2.3 2.3 0 0 1-1.01-.3l-.15-.07a12.15 12.15 0 0 1-1.97-1.4l-4.06 1.33Z" fill="#FBBEBE"/><path opacity=".1" d="m80.24 167.1.16.1.03.03 1.19.78 2.77.47 2.44-.17s.7-1.47-.4-1.43a2.3 2.3 0 0 1-1-.3c.19.16.35.32.36.46.05.38-1.8 1.05-1.8 1.05l-2.6-.69-1.06-.28-.05-.02h-.04Z" fill="#000"/><path d="M75.79 167.75s2.13.46 3.57.33c1.44-.14 3.91 1.1 3.91 1.1s.84.4 3.41.56c2.58.17 2.58-1.13 2.58-1.13-.3-1.78-4.36-2.36-4.49-2.4.05.04.26.14.48.29.29.19.6.43.62.63.05.37-1.8 1.05-1.8 1.05l-2.6-.69s-.45-.13-1.06-.28h-.06c-.9-.25-1.8-.44-2.73-.57-1.12-.12-1.7.84-1.81 1.05l-.02.06Z" fill="#3F3D56"/><path d="m42.1 120.59 1.14.87.82-.03h.16c.7-.03 1.67-.06 2.5-.06.53-.02 1.07.01 1.6.1.56.2 1.57-3.25 1.57-3.25l-1.14-.26-.38-.09-.26-.06-.92-.22-2.8.32-1.98 1.27-.31 1.4Z" fill="#FBBEBE"/><path opacity=".1" d="m42.1 120.59 1.14.87.82-.03a1 1 0 0 1-.53-.47c-.73-2.04 2.91-2.91 2.91-2.91l1.7-.07.33-.02h.26l-.38-.09-.26-.06-.92-.22-2.81.32-1.97 1.27-.29 1.4Z" fill="#000"/><path d="M39.86 121.5c.69.64 5.19 0 5.38 0a2.8 2.8 0 0 1-1.02-.08 1.11 1.11 0 0 1-.8-.56c-.73-2.04 2.92-2.91 2.92-2.91l1.7-.07.32-.02 4.13-.18.2-1.13-3.45.29c-1.18.1-2.62.2-4.17.3-4.35.3-5.38 3.11-5.38 3.11s-.53.6.17 1.26Z" fill="#3F3D56"/><path d="m90.33 72.29.1.17 1 1.47 2.6.27.03-1.04.44-15.54s1.8-10.43-1.6-9.83c-3.41.6-1.27 9.83-1.27 9.83s-.39 4.67-.66 6.08c-.27 1.36-1.46 6.88-.64 8.59ZM84.48 110.9l.74 1.27 1.66 2.84s3.01 1.1 3.78.26c.42-.46.88-2.06 1.2-3.41.26-1.1.44-2.01.44-2.01l-7.82 1.05Z" fill="#FBBEBE"/><path opacity=".1" d="m84.48 110.9.74 1.27a.87.87 0 0 0 .13-.14c.83-1.07 4.53-.22 6.5-.16.27-1.09.45-2 .45-2l-7.82 1.03ZM46.72 121.37c.53-.03 1.07 0 1.6.09.56.2 1.57-3.24 1.57-3.24l-1.52-.36 4.13-.18.2-1.13-3.44.29c-.44.25-.83.57-1.15.96l-.06.08a6.87 6.87 0 0 0-1.33 3.49ZM79.23 166.44l1.16.77c1.72-.31 3.3-.8 3.48-1.58v-.03c-.36-.28-.6-.5-.6-.5l-4.04 1.34ZM75.81 167.7a40.1 40.1 0 0 0 4.55-.49c-.9-.24-1.81-.43-2.74-.57-1.12-.12-1.7.84-1.81 1.06Z" fill="#000"/><path d="M46.85 122.7c0 .83 2.3 1.36 2.3 1.36l7.02 6.25s4.41 1.98 7.22 4.82c2.8 2.84 5.28.4 5.28.4 2.97-.74 11.54-11.1 11.54-11.1s.2 11.83.6 12.7c.4.87-.14 3.24-.37 4.25-.15.84-.2 1.69-.17 2.54 0 0-3.2 12.26-2.94 13.33.27 1.07-1.73 6.09-1.73 6.09v4.17s7.85-.3 8.28-2.07c.43-1.77-1.97-2.54-1.97-2.54v-.44c1.58-.8 1.87-6.31 1.87-6.31s2.34-6.82 2.68-7.95c.33-1.14 0-2.85 0-2.85l.23-1.47s.5-1 .5-1.2c.07-.5.26-1 .57-1.4.37-.44-.4-1.47-.4-1.47l.67-1.74v-1.9l1.57-6.92s1.64-8.06 1.07-10.7c-.57-2.64.67-3.98.67-3.98-2.68 1.41-4.04-1.72-4.48-3.06l-.17-.58s-3.68-1.36-7.11-1.03c-.7.05-1.38.2-2.04.43-3.81 1.37-4.42 7.05-4.42 7.05l-3.37 5.15c-1.74 4.58-4.35 5.04-4.35 5.04s-6.11-4.1-6.29-4.3c-.18-.21-2.5-1.21-2.5-1.21-.28-.49-.7-.87-1.21-1.1-.8-.34-.87-1.58-.87-1.58-.1-2.9-1.8-3.14-1.8-3.14-5.92-.5-5.88 5.62-5.88 6.45Z" fill="#3F3D56"/><path d="M80.87 106.35h3.6v-11.2h-3.6v11.2Z" fill="#F86D70"/><path opacity=".1" d="M80.87 106.35h3.6v-11.2h-3.6v11.2ZM90.33 72.26v.03c.02.06.06.12.1.17l1 1.47 2.6.26.03-1.03c-.81-.06-2.66-.28-3.73-.9Z" fill="#000"/><path d="M90.43 72.46s.13 5.88-1.34 6.69c-1.47.8-2.04 4.98-2.04 4.98s4.46 2.93 5.45 4.22c1 1.3 3.27 4.36 2.8 5.1-.46.73 1.14 4.08 1.14 4.08s-2.94 6.01-2.27 8.29c.67 2.27.73 8.28.73 8.28h1.28s-.4-4.94-.4-6.95c0-2 1.33-9.16 1.33-9.16s.6-7.01 0-7.21c-.6-.2-4.14-3.01-4.41-4.28-.27-1.28 1.87-13.12 1.87-13.12s-2.74-.11-4.14-.92Z" fill="#F86D70"/><path opacity=".1" d="M80.8 94.12c.12.82.42 1.6.87 2.3l2.47-.43s7.42-1.67 8.95-1.8a9.56 9.56 0 0 0 2.69-.77 11.84 11.84 0 0 0-3.32-5.44l-.94-.88c-1.39-1.29-3-2.31-4.75-3.03.11.09 7.9 6.74 6.2 8.04-1.71 1.3-6.3-1.87-6.3-1.87l-5.22-4.49-.19-.16-.3.47c.15.06.3.14.45.22a7.68 7.68 0 0 1 3.67 4.56c1.07 3.6-4.28 3.28-4.28 3.28Z" fill="#000"/><path d="M79.2 110.83s4.94 2.74 6.14 1.2c.26-.34.82-.48 1.5-.52l-.16-.58s-3.68-1.36-7.11-1.03l-.37.93Z" fill="#444053"/><path d="m81.47 85.6 5.4 4.65s4.58 3.18 6.3 1.87c1.73-1.31-6.19-8.04-6.19-8.04a16 16 0 0 1 4.75 3.02l.94.88c2.47 2.29 3.03 2.29 3.11 5.66.03.83-.26 2.03-.47 2.24-.8.79-1.37 6.5-1.25 7.17.13.67-1.49 6.44-.97 8.05.53 1.6-6.55-.8-7.75.73-1.2 1.54-6.14-1.2-6.14-1.2s2.74-7.02 3.4-7.49c.67-.46 1.48-4.07 0-5.74-1.47-1.68-1.6-3.28-1.6-3.28s5.35.33 4.28-3.28a7.57 7.57 0 0 0-4.11-4.77l.3-.47Z" fill="#E8E8F0"/><path opacity=".1" d="M88.69 97.43s-2.08 3.9-4.76 4.92l-.26.1c-2.8.84 5.23-3.8 5.02-5.02Z" fill="#000"/><path d="M59.68 62.84s1 2.54 1.8 3.4c.8.87 6.75 9.57 6.75 9.57l.5 1.04.44.9 3.81-.4.26-1.54-.14-.18a18 18 0 0 0-2.13-2.23c-.87-.66-2.6-2.87-2.6-2.87s-5.42-5.62-5.82-7.15c-.4-1.54-5.82-10.75-7.02-9.16-1.2 1.6 4.15 8.62 4.15 8.62Z" fill="#FBBEBE"/><g opacity=".1" fill="#000"><path opacity=".1" d="M70.74 104.17a3 3 0 0 0-1.35.2c-.94.46-1.12 1.7-1.65 2.6a4.41 4.41 0 0 1-2.98 1.97c-.24.05-.48.08-.73.1.77.08 1.54.04 2.3-.1 1.2-.24 2.37-.9 2.99-1.96.52-.91.7-2.15 1.64-2.61.25-.11.52-.18.8-.19h-1.02ZM80.05 84.06c0-2.09 1.36-3.88 2.47-5.64 1.12-1.76 2.06-3.98 1.18-5.87-.76-1.61-5.31-3.78-7.94-3.35 2.57.33 5.74 2.03 6.36 3.35.89 1.89-.05 4.1-1.17 5.87-1.12 1.76-2.48 3.55-2.47 5.64 0 2.69-.18 4.72-.92 7.32-.22.74 1.83 1.87 1.52 2.58-1.07 2.36-.57 5.08-.74 7.67 0 .5-.13 1-.36 1.44-.52.87-1.6 1.09-2.64 1.14h.91c1.22 0 2.67-.1 3.3-1.14.24-.45.36-.95.36-1.45.17-2.58-.32-5.3.74-7.67.32-.7-1.73-1.83-1.52-2.58.74-2.58.93-4.62.92-7.31Z"/></g><path opacity=".1" d="m68.74 76.85.43.9 3.81-.4.26-1.54-.14-.18c-.41.2-3.45 1.66-4.36 1.22Z" fill="#000"/><path opacity=".1" d="M82.8 86.9s-.93-1.47-1.46-1.07c-.54.4-.75-1.2-1.05-.94-.31.27-1.2 1.02-1.58-.02-.29-.83-3.46-6.08-4.74-8.18l-.54-.88s-3.6 1.8-4.47 1.2v1.27l.73.07 3.93 7.34s1.24 1.97 1.16 2.66c-.09.68 1.58 3.69 1.85 3.89.27.2 3.15 3.54 3.15 3.54s1.47 7.22.2 9.23a13.7 13.7 0 0 1-3.48 3.47s-.66 1.94-.56 2.14c.1.2-.77 1.07-.37 1.34s.93 2.14.93 2.14 1.88-3.01 2.89-3.48c1.01-.46 2.3-6.62 2.3-6.62s.37-3.62.4-5.96c.03-2.34-.09-11.14.72-11.14Z" fill="#000"/><path d="M82.6 86.9s-.93-1.47-1.46-1.07c-.54.4-.75-1.2-1.05-.94-.3.27-1.2 1.02-1.58-.02-.29-.83-3.46-6.08-4.74-8.18l-.54-.88s-3.6 1.8-4.48 1.2v1.27l.74.07 3.93 7.34s1.24 1.97 1.16 2.66c-.09.68 1.57 3.69 1.85 3.89.28.2 3.15 3.54 3.15 3.54s1.47 7.22.2 9.23c-.67 1-1.49 1.9-2.42 2.68a4.68 4.68 0 0 0-1.57 2.52 1 1 0 0 0-.05.42c.1.2-.77 1.07-.37 1.34s.94 2.14.94 2.14 1.87-3 2.89-3.47c1-.47 2.3-6.62 2.3-6.62s.37-3.63.4-5.96c.04-2.34-.08-11.16.7-11.16Z" fill="#F86D70"/><path opacity=".1" d="M73.45 117.31s2.8.53 3.93 1.34c1.13.81-4.28-1.27-4.28-1.27l.35-.06ZM80.2 124.43s2.93 2.44 2.4 4.65c-.52 2.2-1.87 7.75-1.87 7.75l-.53-12.4ZM54.58 119.74s-4.13.45-3.86.98c.27.54 3.86-.49 3.86-.49v-.5ZM86.28 140.04s.26.33-1.27 0-.4-1.36-.4-1.36l1.67 1.36ZM85.75 144.65s-2.1.34-3.22 0c-1.13-.33 3.22 0 3.22 0ZM81.44 162.7s-.37-.4-2.21.33c-1.84.74-2.57.77-3.1.53-.54-.25 5.3-.86 5.3-.86ZM83.48 119.17l-2.61 3.63s1.4-3.18 2.6-3.63ZM78.4 85.83s-.1 1.2-1.78 1.67c-1.69.47-2 .85-2 .85M74.04 77.1s-2.22 1.58-4.53 1.25l4.53-1.24ZM75.73 110.8s.65.4 2.2-1.38l-2.2 1.38ZM91.88 91.94c.06-.32-.16-.62-.37-.88l-.44-.52a2 2 0 0 0-.29-.3c-.26-.2-.6-.26-.87-.44" fill="#000"/><path opacity=".1" d="M232.68.52S210.6-.8 213.2 14.66c0 0-.52 2.74 1.96 3.98 0 0 .04-1.15 2.27-.76.79.14 1.6.17 2.4.12a5 5 0 0 0 2.93-1.21s6.2-2.57 8.62-12.7c0 0 1.78-2.22 1.71-2.8l-3.72 1.6s1.27 2.69.26 4.92c0 0-.12-4.82-.84-4.72-.14.03-1.93.93-1.93.93s2.19 4.68.53 8.09c0 0 .63-5.77-1.22-7.75l-2.62 1.53s2.56 4.84.82 8.79c0 0 .45-6.06-1.37-8.42l-2.38 1.86s2.4 4.77.94 8.04c0 0-.2-7.05-1.45-7.58 0 0-2.08 1.84-2.4 2.59 0 0 1.65 3.46.62 5.28 0 0-.62-4.7-1.14-4.72 0 0-2.07 3.11-2.28 5.25 0 0 .09-3.17 1.78-5.54 0 0-2 .34-3.17 1.64 0 0 .32-2.2 3.68-2.39 0 0 1.72-2.36 2.17-2.5 0 0-3.34-.28-5.37.62 0 0 1.79-2.08 5.99-1.13l2.34-1.92s-4.4-.6-6.26.06c0 0 2.14-1.83 6.9-.5l2.55-1.52s-3.75-.81-5.99-.53c0 0 2.36-1.27 6.74.11l1.83-.82s-2.74-.54-3.55-.63c-.8-.08-.84-.3-.84-.3a9.53 9.53 0 0 1 5.16.57s3.88-1.43 3.81-1.68ZM205.45 4.46s-9.96-.6-8.8 6.39c0 0-.23 1.24.89 1.8 0 0 .01-.53 1.02-.35.36.06.72.08 1.08.06.5-.04.96-.23 1.33-.55 0 0 2.8-1.16 3.9-5.74 0 0 .8-1 .77-1.26l-1.68.72s.57 1.21.12 2.22c0 0-.06-2.18-.38-2.12-.06 0-.88.41-.88.41s1 2.12.25 3.66c0 0 .28-2.6-.55-3.5l-1.19.7s1.16 2.18.37 3.96c0 0 .2-2.74-.62-3.8l-1.07.85s1.08 2.15.42 3.63c0 0-.08-3.18-.66-3.42 0 0-.93.83-1.08 1.17 0 0 .75 1.57.29 2.38 0 0-.29-2.12-.53-2.13 0 0-.93 1.4-1.03 2.36.05-.89.32-1.75.8-2.5-.53.1-1.03.36-1.43.74 0 0 .15-.99 1.67-1.08 0 0 .78-1.06.98-1.13 0 0-1.51-.13-2.43.28 0 0 .8-.94 2.7-.52l1.05-.87s-1.98-.26-2.83.03c0 0 .97-.83 3.12-.23l1.15-.69s-1.69-.36-2.7-.23c0 0 1.06-.58 3.04.05l.83-.37s-1.25-.25-1.6-.28c-.37-.04-.4-.14-.4-.14a4.3 4.3 0 0 1 2.34.26s1.77-.65 1.74-.76Z" fill="#00BAFC"/><path d="M240.26 171.15c5.82 0 10.54-.8 10.54-1.78 0-.99-4.72-1.79-10.54-1.79-5.82 0-10.54.8-10.54 1.79 0 .98 4.72 1.78 10.54 1.78Z" fill="#00BAFC"/><path d="M244.62 166.45c.48-.4.83-.92 1-1.52.14-.6-.12-1.3-.7-1.54-.64-.25-1.33.2-1.85.65-.53.45-1.13.97-1.8.87a2.74 2.74 0 0 0 .84-2.57c-.03-.2-.11-.38-.24-.53-.35-.38-1-.22-1.43.09-1.37.95-1.75 2.8-1.75 4.47-.14-.6-.03-1.22-.03-1.83 0-.61-.17-1.31-.7-1.63a2.08 2.08 0 0 0-1.04-.25c-.61-.03-1.3.04-1.71.49-.53.55-.39 1.49.06 2.1.45.6 1.14 1 1.78 1.41.5.3.94.72 1.26 1.21l.1.22h3.84c.86-.44 1.66-.99 2.37-1.64Z" fill="#00BAFC"/></g><defs><linearGradient id="b" x1="212.02" y1="132.91" x2="212.02" y2="27.41" gradientUnits="userSpaceOnUse"><stop stop-color="gray" stop-opacity=".25"/><stop offset=".54" stop-color="gray" stop-opacity=".12"/><stop offset="1" stop-color="gray" stop-opacity=".1"/></linearGradient><linearGradient id="c" x1="10450.5" y1="65713.3" x2="23402.9" y2="65713.3" gradientUnits="userSpaceOnUse"><stop stop-color="gray" stop-opacity=".25"/><stop offset=".54" stop-color="gray" stop-opacity=".12"/><stop offset="1" stop-color="gray" stop-opacity=".1"/></linearGradient><clipPath id="a"><path fill="#fff" transform="translate(0 .5)" d="M0 0h300v171.12H0z"/></clipPath></defs></svg>