<svg width="180" height="130" fill="none" xmlns="http://www.w3.org/2000/svg"><g clip-path="url(#a)"><path opacity=".1" d="M57.66 4.9C62.5.6 70.08-.28 76.98.07c21.67 1.07 41.23 11.54 58.15 23.37 6.13 4.29 12.16 8.9 16.14 14.8 8.1 12.01 5.7 28.66-5.56 38.55-3.83 3.37-8.47 5.95-13.24 8.23-8.48 4.07-17.62 7.34-27.24 8.27-6.86.66-13.8.13-20.62-.8-19.05-2.59-37.75-8.3-53.43-18.07-6.87-4.29-13.35-9.61-16.19-16.55-2.83-6.94-1.02-15.73 6-19.83 2.9-1.7 6.38-2.47 9.78-3.19 5-1.06 10.08-2.1 14.6-4.26 4.66-2.22 10.18-6.53 9.26-11.45-1-5.3-1.79-9.94 3.03-14.24ZM141.15 118.22c10 0 18.1-.53 18.1-1.17 0-.64-8.1-1.16-18.1-1.16-10 0-18.1.52-18.1 1.16 0 .64 8.1 1.17 18.1 1.17ZM94.11 110.45c10 0 18.1-.52 18.1-1.16 0-.64-8.1-1.16-18.1-1.16-10 0-18.1.52-18.1 1.16 0 .64 8.1 1.16 18.1 1.16ZM27.67 128.86c10 0 18.1-.52 18.1-1.16 0-.64-8.1-1.16-18.1-1.16-10 0-18.1.52-18.1 1.16 0 .64 8.1 1.16 18.1 1.16ZM62.06 130c4.11 0 7.45-.21 7.45-.48 0-.26-3.34-.48-7.45-.48s-7.45.22-7.45.48c0 .27 3.34.48 7.45.48ZM173.65 117.6c3.2 0 5.8-.17 5.8-.38 0-.2-2.6-.37-5.8-.37-3.2 0-5.8.16-5.8.37 0 .2 2.6.37 5.8.37ZM120.39 109.78c2.72 0 4.92-.14 4.92-.31 0-.18-2.2-.32-4.92-.32-2.72 0-4.92.14-4.92.32 0 .17 2.2.31 4.92.31Z" fill="#00BAFC"/><path d="M174.49 108.3s.77 1-.36 2.54c-1.14 1.54-2.08 2.83-1.7 3.79 0 0 1.72-2.85 3.11-2.9 1.4-.03.48-1.72-1.05-3.44Z" fill="#00BAFC"/><path opacity=".1" d="M174.49 108.3c.06.09.12.2.16.31 1.36 1.6 2.09 3.1.78 3.13-1.22.03-2.68 2.21-3.03 2.76 0 .05.02.09.04.13 0 0 1.71-2.85 3.1-2.9 1.4-.03.48-1.72-1.05-3.44Z" fill="#000"/><path d="M175.93 109.59c0 .35-.04.64-.09.64-.05 0-.09-.29-.09-.64 0-.36.05-.2.1-.2s.08-.16.08.2Z" fill="#FFD037"/><path d="M176.43 110.02c-.32.16-.59.27-.61.23-.03-.05.2-.22.52-.4.31-.17.2-.04.22 0 .02.05.18 0-.13.17Z" fill="#FFD037"/><path d="M170.38 108.3s-.77 1 .36 2.54c1.14 1.54 2.07 2.83 1.7 3.79 0 0-1.72-2.85-3.11-2.9-1.4-.03-.48-1.72 1.05-3.44Z" fill="#00BAFC"/><path opacity=".1" d="M170.38 108.3c-.07.09-.12.2-.16.31-1.36 1.6-2.09 3.1-.78 3.13 1.22.03 2.68 2.21 3.03 2.76l-.04.13s-1.72-2.85-3.11-2.9c-1.4-.03-.47-1.72 1.06-3.44Z" fill="#000"/><path d="M168.94 109.59c0 .35.04.64.09.64.05 0 .09-.29.09-.64 0-.36-.05-.2-.1-.2s-.08-.16-.08.2Z" fill="#FFD037"/><path d="M168.44 110.02c.32.16.59.27.61.23.03-.05-.2-.22-.52-.4-.32-.17-.2-.04-.22 0-.02.05-.18 0 .13.17Z" fill="#FFD037"/><path d="M169.2 114.5s2.17-.07 2.82-.54c.66-.46 3.34-1.02 3.5-.27.17.74 3.27 3.72.82 3.73-2.45.02-5.7-.38-6.36-.77-.65-.4-.79-2.16-.79-2.16Z" fill="#A8A8A8"/><path opacity=".2" d="M176.37 117.17c-2.45.02-5.7-.39-6.35-.78-.5-.3-.7-1.4-.76-1.9h-.07s.13 1.75.79 2.15c.65.4 3.9.8 6.35.78.7 0 .95-.26.94-.63-.1.23-.37.37-.9.38Z" fill="#000"/><path d="M121.26 101.83s.66.87-.3 2.19c-.98 1.3-1.78 2.42-1.45 3.23 0 0 1.46-2.43 2.65-2.48 1.2-.04.41-1.47-.9-2.94Z" fill="#00BAFC"/><path opacity=".1" d="M121.26 101.83c.06.09.1.18.14.28 1.15 1.36 1.78 2.64.66 2.67-1.04.03-2.3 1.9-2.6 2.37l.04.1s1.47-2.43 2.66-2.48c1.2-.04.41-1.47-.9-2.94Z" fill="#000"/><path d="M122.5 102.94c0 .3-.04.56-.08.56s-.08-.25-.08-.56c0-.3.05-.16.09-.16.04 0 .06-.14.06.16Z" fill="#FFD037"/><path d="M122.92 103.3c-.27.15-.5.24-.52.2-.03-.03.18-.18.45-.33.26-.14.16-.04.18 0 .02.04.16-.01-.11.14Z" fill="#FFD037"/><path d="M117.75 101.83s-.66.87.3 2.19c.97 1.3 1.78 2.42 1.45 3.23 0 0-1.46-2.43-2.66-2.48-1.19-.04-.4-1.47.9-2.94Z" fill="#00BAFC"/><path opacity=".1" d="M117.75 101.83c-.06.09-.1.18-.14.28-1.16 1.36-1.78 2.64-.66 2.67 1.04.03 2.3 1.9 2.6 2.37l-.04.1s-1.47-2.43-2.66-2.48c-1.2-.04-.41-1.47.9-2.94Z" fill="#000"/><path d="M116.51 102.94c0 .3.04.56.08.56s.08-.25.08-.56c0-.3-.05-.16-.09-.16-.04 0-.07-.14-.07.16Z" fill="#FFD037"/><path d="M116.09 103.3c.27.15.5.24.52.2.03-.03-.18-.18-.45-.33-.27-.14-.16-.04-.18 0-.02.04-.16-.01.1.14Z" fill="#FFD037"/><path d="M116.72 107.14s1.86-.06 2.42-.45c.56-.4 2.86-.88 3-.24.14.64 2.8 3.18.7 3.2-2.1.01-4.88-.33-5.44-.66-.56-.33-.68-1.85-.68-1.85Z" fill="#A8A8A8"/><path opacity=".2" d="M122.87 109.42c-2.1.02-4.87-.33-5.43-.66-.43-.26-.6-1.19-.65-1.62h-.07s.12 1.5.68 1.84c.56.34 3.34.69 5.44.66.6 0 .81-.22.8-.54-.08.2-.32.32-.77.32Z" fill="#000"/><g opacity=".8"><path opacity=".8" d="M24.98 102.8a12.36 12.36 0 1 1-.01 24.73 12.36 12.36 0 0 1 0-24.73Z" fill="#E74D89"/><path opacity=".8" d="M24.98 128.4a13.24 13.24 0 1 1 .03-26.48 13.24 13.24 0 0 1-.03 26.49Zm11.18-11.43c-2.3-.67-4.7-.84-7.06-.5a48.3 48.3 0 0 1 2.2 8.07 11.24 11.24 0 0 0 4.86-7.57Zm-6.76 8.62A47.2 47.2 0 0 0 27 117a.2.2 0 0 1-.07.02c-6.4 2.23-8.69 6.65-8.9 7.07a11.28 11.28 0 0 0 11.38 1.49Zm-12.83-2.85c.26-.44 3.36-5.57 9.2-7.47.15-.05.3-.1.45-.13-.28-.65-.59-1.29-.92-1.92a41.87 41.87 0 0 1-11.64 1.6l-.01.35c0 2.8 1.04 5.5 2.92 7.57Zm-2.68-9.88c3.54-.02 7.05-.48 10.47-1.38a72.62 72.62 0 0 0-4.2-6.54 11.35 11.35 0 0 0-6.27 7.92Zm8.44-8.68a59.5 59.5 0 0 1 4.22 6.61c4.03-1.51 5.73-3.8 5.94-4.08a11.28 11.28 0 0 0-10.16-2.53Zm11.41 3.84c-.24.32-2.13 2.76-6.32 4.46a48.68 48.68 0 0 1 1 2.22c3.78-.48 7.52.29 7.9.36a11.28 11.28 0 0 0-2.58-7.04Z" fill="#B2215A"/></g><path d="M55.64 77.43c-.3-.38-.64-2.96-.64-2.96l-1.32-6.58-.69-3.79s-.16-4.78-3.16-7.16l-.23-.18v-.13a4.34 4.34 0 0 0-.3-1.35.96.96 0 0 1-.1-.45c0-.06.02-.12.05-.17.14-.2.33-.35.54-.46a2.36 2.36 0 0 0 1.13-1.5l.01-.09c.02-.03 0-.03 0-.04v-.25l-.01-.12a1.34 1.34 0 0 0-.77-1.04.5.5 0 0 0 .34-.29.64.64 0 0 0 .07-.25v-.02a.8.8 0 0 0 0-.1v-.04a.73.73 0 0 0-.02-.1v-.04l-.01-.02c-.11-.32-.38-.56-.6-.82-1.3-1.46-1.56-3.52-1.92-5.43-.2-1.06-.57-2.26-1.6-2.66-.28-.1-.58-.17-.87-.23-.91-.24-1.66-.87-2.55-1.18-.6-.21-1.24-.26-1.87-.16-.47.08-.87.31-1.34.42-.99.25-2.2-.02-2.97.78-.55.55-.6 1.4-.86 2.13-.51 1.35-1.83 2.33-2.18 3.73-.22.9.01 1.82.25 2.72.18.61.3 1.24.37 1.87a4.21 4.21 0 0 1-.32 1.84c-1.11.42-2.27.9-2.36 1.18-.16.54-2.86 2.08-2.86 2.08s-1.02.87-1.02 1.2c0 .34-.34 1.38-.56 1.38-.21 0-.64 4.2-.64 4.2v4.38s-1.58 5.16-1.94 9.74c0 0-.64 2.92.4 4.6.14.23.31.43.52.6l.53 1.39c.18-.31.42-.6.7-.83l.1.6.16.96a5.46 5.46 0 0 1-2.09 2c-.88.38.27 1.37 1.07 1.94-.22 1.06-.52 2.35-.77 2.52-.43.29-1.8 3.95-1.8 3.95s-2.68 6.29 1.18 7c3.87.7 5.84-.96 5.84-.96h.92s1.13-.63 1.16-1.95c.63-.52 1.6-1.34 1.8-1.67.2-.33-.35-1.42-.7-2l.1-.17s3.67-4.7 4.14-4.2c.47.5.77 1.28.56 1.78l.2 2.89v4.5s-.53 2.03 0 2.24c.53.2 0 1 0 1s.2.9.23 1.2c.02.37.02.75 0 1.12l-.17 4.5-.35 6.66s-.38.54-.08.92c.3.37.16 1.25.08 1.41-.08.17-.12 1.54-.12 1.54s-1.24 1.3-.26 1.63h.04c-.4.39-.41 1.23-.38 1.5a7.95 7.95 0 0 1-.69 2.35c-.15.1 0 1.27 0 1.27s4.8.4 5.22 0c.16-.16.12-.53 0-.96a9.93 9.93 0 0 0-.73-1.81c-.28-.52-.15-1.19-.15-1.19v-.5l.53.09s.6-.5.35-.96c-.26-.46.47-3.04.47-3.04s.8-2.91.8-3.2c0-.3 1.08-4.08 1.08-4.08s1.58-6.7.8-9.87c0 0 .69-.79.6-.99-.08-.2-.28-1.08.01-1.46.3-.37 1.53-5.03 1.88-5.82.15-.37.55-1.38.92-2.36 1.7-.26 3.73-.73 3.73-.73s-.3-1.28-.53-2.6l.19-.9.07-.32c.15.15.28.32.4.5l.34-1.67.1-.16c.4-.62 1.85-2.86 2.55-3.54.81-.81.3-4.4 0-4.76Z" fill="url(#b)"/><path d="M45.27 49.57h-4.7v5.3h4.7v-5.3Z" fill="#925978"/><path opacity=".1" d="M45.27 49.57h-4.7v5.3h4.7v-5.3Z" fill="#000"/><path d="M33.66 95.16s1.2 1.9.9 2.4c-.28.5-2.26 2.1-2.26 2.1l-.59-3.96 1.95-.54Z" fill="#FF6484"/><path d="m29.94 101.28.87-.12h.9s1.19-.69 1.12-2.11c-.07-1.43 0-2.81 0-2.81l-2.9 5.04Z" fill="#575988"/><path opacity=".1" d="m29.94 101.28.87-.12h.9s1.19-.69 1.12-2.11c-.07-1.43 0-2.81 0-2.81l-2.9 5.04Z" fill="#000"/><path d="m31.7 81.9-4.95 5.45s-.58 3.6-1 3.89c-.4.29-1.72 3.92-1.72 3.92s-2.6 6.24 1.14 6.95c3.74.7 5.64-.95 5.64-.95l3.17-5.75s3.56-4.67 4.02-4.17c.45.5.74 1.28.53 1.77l.2 2.86v4.46s-.51 2.03 0 2.23c.5.2 0 1 0 1s.19.9.22 1.2c.04.28 0 1.1 0 1.1l-.16 4.47-.33 6.61s-.38.54-.09.92c.3.37.17 1.23.09 1.4-.09.16-.13 1.53-.13 1.53s-1.2 1.28-.25 1.61c.96.33 3.72.74 3.72.74s.58-.5.34-.95c-.25-.45.45-3.01.45-3.01s.79-2.9.79-3.19c0-.28 1.03-4.05 1.03-4.05s1.53-6.65.78-9.8c0 0 .67-.78.58-.98-.08-.21-.27-1.08 0-1.45.28-.37 1.49-5 1.82-5.79.33-.78 1.74-4.59 1.74-4.59v-7.02l-17.62-.42Z" fill="#575988"/><path d="m46.52 56.97-2.86 5.4-.75 1.41-.11.22-7.36.29s-.21-.47-.5-1.19a34.98 34.98 0 0 1-1.7-4.97c-.09-.41-.16-.82-.2-1.24-.12-1.03.05-1.77.71-1.83.17-.02.34 0 .5.05.46.14.94.18 1.42.14 1.74-.21 2.25-2.06 2.34-3.79l.01-.37c0-.37 0-.73-.02-1.07-.04-.56-.1-1.13-.2-1.69.44-.21.9-.38 1.37-.5 1.4-.36 3.36-.35 3.39 2.53 0 .63.06 1.27.18 1.9.08.35.2.7.36 1.02.48.93 1.16 1.03 1.47 1.02.06 0 .12 0 .18-.02l1.77 2.7Z" fill="#FFC5CB"/><path opacity=".1" d="M39.17 60.1c.1.28.16.6.16.9.03.33.02.66-.03.98a1.4 1.4 0 0 1-.46.85M41.25 52.68a4.42 4.42 0 1 0 0-8.85 4.42 4.42 0 0 0 0 8.85Z" fill="#000"/><path d="M45.67 48.09a4.42 4.42 0 1 1-8.83 0 4.42 4.42 0 0 1 8.83 0Z" fill="#FFC5CB"/><path opacity=".1" d="M34.15 59.12s1.58 4.1 4.88 3.43c0 0 3.34.26 5.25-2.19 1.91-2.45 2.03 14.05 2.03 14.05l-.75 10.96s-5.33 3.18-7.64 2.77c-2.32-.42-3.43-1.66-3.43-1.66s-2.44-2.27-3.1-2.56c-.66-.29.29-14.38.29-14.38l.78-5.3 1.7-5.12Z" fill="#000"/><path d="M34.15 58.79s1.58 4.1 4.88 3.43c0 0 3.34.26 5.25-2.2 1.91-2.44 2.03 14.06 2.03 14.06l-.75 10.96s-5.33 3.18-7.64 2.77c-2.32-.42-3.43-1.66-3.43-1.66s-2.44-2.27-3.1-2.56c-.66-.29.29-14.38.29-14.38l.78-5.3 1.7-5.12Z" fill="#E8F4FF"/><path opacity=".1" d="M33.99 81.9s3.55 3.96 3.35 4.38c-.2.4-3.43-3.19-3.35-4.39ZM33.38 72.03s1.13 1.58 1.84 1.42l-1.84-1.42Z" fill="#000"/><path opacity=".1" d="M35.83 55.11v.14a260.08 260.08 0 0 1-.74 7.85c-.2 1.77-.42 3.18-.6 3.38-.54.58-.34 6.03-.34 6.03v6.9s-.45 2.2-.82 2.7c-.38.49-1.29 2.35-2.02 2.6-.26.14-.49.32-.68.54-.66.66-1.6 1.76-2.32 2.63l-1.03 1.29s-2.89-1.82-1.65-2.36a5.42 5.42 0 0 0 2.19-2.26c.05-.39.14-.77.26-1.14.1-.35.26-.69.46-1 .15-.25.4-.43.68-.51 1.08-.2 1.61-10.42 1.61-10.42l-3.3-7.21-.33-.72s.4-4.18.62-4.18c.2 0 .53-1.03.53-1.36 0-.33 1-1.2 1-1.2s2.62-1.53 2.78-2.07c.09-.28 1.3-.8 2.41-1.22 1-.37 1.94-.68 1.94-.68.55.84-.65 2.27-.65 2.27Z" fill="#000"/><path d="m35.67 55.11-.01.14a261.2 261.2 0 0 1-.73 7.85c-.2 1.77-.42 3.18-.61 3.38-.54.58-.33 6.03-.33 6.03v6.9s-.45 2.2-.83 2.7c-.37.49-1.28 2.35-2.01 2.6-.26.14-.5.32-.69.54-.66.66-1.6 1.76-2.31 2.63-.6.73-1.03 1.29-1.03 1.29s-2.9-1.82-1.66-2.36c.93-.4 1.7-1.47 2.02-1.98.12-.17.17-.28.17-.28.06-.39.15-.77.26-1.14.1-.35.26-.69.46-1 .15-.25.4-.43.69-.51 1.07-.2 1.6-10.42 1.6-10.42l-3.3-7.21-.33-.72s.41-4.18.62-4.18c.2 0 .54-1.03.54-1.36 0-.33.99-1.2.99-1.2s2.62-1.53 2.79-2.07c.08-.28 1.29-.8 2.4-1.22 1.01-.37 1.95-.68 1.95-.68.55.84-.65 2.27-.65 2.27Z" fill="#FF6484"/><path opacity=".1" d="m52.1 64.6-3.56 4.2s3.1 16.07 2.73 16.81a.64.64 0 0 0-.06.2c-.04.38-.03.77.02 1.16a50.96 50.96 0 0 0 .7 3.89s-4.18.99-5.46.86c-1.28-.12-.54-2.19-.33-3.14.2-.95-1.4-2.28-1.4-2.28l-2.28-9.33s-.16-2.07-.66-3.06c-.5-1-.04-2.07-.2-3.47-.12-1 .6-4.59 1.14-6.67a6.7 6.7 0 0 1 .51-1.52c.34-.29 0-1.98 0-1.98s.79-4.47.7-4.84c-.04-.2.22-.73.45-1.14l.34-.55s1.6 1.01 4.34 3.23l.25.2c2.9 2.35 3.06 7.1 3.06 7.1l-.28.34Z" fill="#000"/><path d="m52.27 64.6-3.57 4.2s3.1 16.07 2.73 16.81a.64.64 0 0 0-.05.2c-.04.38-.03.77.02 1.16.04.4.1.85.18 1.3.22 1.3.51 2.59.51 2.59s-4.17.99-5.45.86c-1.28-.12-.54-2.19-.33-3.14.2-.95-1.4-2.28-1.4-2.28l-2.28-9.33s-.17-2.07-.66-3.06c-.5-1-.04-2.07-.21-3.47-.12-1 .6-4.59 1.15-6.67a6.7 6.7 0 0 1 .51-1.52c.33-.29 0-1.98 0-1.98s.79-4.47.7-4.84c-.04-.2.22-.73.45-1.14l.34-.55s1.6 1.01 4.34 3.23l.25.2c2.89 2.35 3.05 7.1 3.05 7.1l-.28.34Z" fill="#FF6484"/><path opacity=".1" d="M44.74 66.85c-.05.33.99 17.9 2.06 18.93l-2.06-18.93Z" fill="#000"/><path d="M30.8 91.28c-1.16.72-2.04-1.19-2.65-3.4a36.03 36.03 0 0 1-.81-4c-.12-.74-.17-1.22-.17-1.22l1.22-.25 1.35-.27.16 1.52.08.7s.21.34.5.89c.8 1.6 2.15 4.89.32 6.03ZM52.05 85.95l-.29 1.43-.18.9v.04s-3.62 4.9-4.78 2.87c-.88-1.54 1.28-4.08 2.34-5.19.33-.34.56-.55.56-.55l1.68.36.67.14Z" fill="#FFC5CB"/><path d="M42.13 127.48c-.4.4-5.04 0-5.04 0s-.15-1.15 0-1.26c.09-.13.15-.27.2-.42.2-.6.49-1.66.46-1.91-.04-.35-.02-1.76.93-1.65 0 0 1.24-2.52 2.6.58v.74c-.06.4-.01.8.15 1.18.3.57.53 1.17.71 1.8.11.42.15.79 0 .94Z" fill="#FF6484"/><path d="M42.13 127.48c-.4.4-5.04 0-5.04 0s-.15-1.15 0-1.26c.09-.13.15-.27.2-.42.6-.27 1.45-.52 2.03-.3l2.81 1.03c.12.43.16.8 0 .95Z" fill="#E8F4FF"/><path opacity=".1" d="M38 51.46c.12.47.28.95.28 1.43.01.66-.27 1.3-.58 1.9-.34.68-.73 1.41-.62 2.17.06.28.15.56.25.84a3.7 3.7 0 0 1-.24 2.66c-.27.55-.82 1.08-1.42.9a4.27 4.27 0 0 0-.4-1.71c-.1-.2-.25-.38-.43-.52-.43-.33-1.03-.4-1.42-.78a1.18 1.18 0 0 1-.18-.22c-.19-.32-.27-.7-.23-1.07l.02-.16c.08-.4.21-.8.4-1.16l.32-.66c.25-.5.46-1 .62-1.54 1-.37 1.95-.68 1.95-.68.55.83-.65 2.27-.65 2.27l-.01.14c1.74-.23 2.26-2.08 2.34-3.81ZM40.48 45.24c-.49.15-.95.46-1.16.92-.23.52-.11 1.1-.17 1.67a2.1 2.1 0 0 1-.07.36c-.2.69-.85 1.17-1.1 1.83l-.05.15c-.06.26-.08.54-.03.8a4.42 4.42 0 1 1 5.6.92c.19-.55.39-1.1.54-1.68.36-1.34.42-2.88-.43-3.98a2.94 2.94 0 0 0-3.13-.99ZM49.11 58.63c-.14.52-.51 1.1-1.06 1.08-.26-.01-.5-.17-.75-.2-.37-.02-.72.21-.94.5-.2.32-.38.65-.53.99-.4.79-1.2 1.5-2.08 1.37l-.09-.01a1.34 1.34 0 0 1-.26-.08c-.8-.33-1.22-1.35-1.19-2.25.03-1.02.46-1.99.6-3 .13-.94.01-1.9.11-2.83.04-.31.1-.62.17-.92.48.93 1.16 1.03 1.47 1.02l.34-.56s1.6 1.02 4.34 3.23c.06.56.02 1.12-.13 1.66Z" fill="#000"/><path d="M42.88 40.33c.86.3 1.58.94 2.46 1.18.29.05.57.13.85.22 1 .4 1.36 1.6 1.55 2.64.34 1.9.59 3.94 1.85 5.4.22.25.48.5.59.82.1.32-.04.76-.37.84.57.24.85.95.73 1.56a2.35 2.35 0 0 1-1.1 1.46c-.24.16-.54.33-.57.62 0 .16.03.31.1.45.35.88.4 1.85.15 2.77-.15.52-.52 1.1-1.07 1.08-.26-.01-.5-.17-.75-.2-.37-.02-.72.21-.94.5-.2.32-.38.65-.52.99-.4.79-1.2 1.5-2.09 1.37-1.01-.14-1.57-1.32-1.54-2.34.03-1.01.47-1.99.6-3 .14-.94.02-1.9.12-2.83.15-1.38.76-2.66 1.12-4 .36-1.33.41-2.88-.43-3.98a2.94 2.94 0 0 0-3.14-.99c-.48.16-.94.46-1.16.93-.27.62-.04 1.37-.23 2.02-.22.74-.95 1.25-1.16 1.99-.24.89.33 1.8.35 2.72 0 .66-.28 1.3-.58 1.9-.35.67-.74 1.4-.62 2.16.06.28.14.57.24.84.26.9.18 1.85-.23 2.68-.27.55-.83 1.08-1.42.9-.06-.82-.18-1.74-.83-2.23-.43-.33-1.03-.4-1.42-.78a1.6 1.6 0 0 1-.42-1.3c.07-.46.2-.9.43-1.32.47-1.03 1.05-2.05 1.11-3.18.1-1.7-.99-3.38-.6-5.04.34-1.39 1.62-2.36 2.1-3.7.27-.72.3-1.57.83-2.12.76-.8 1.93-.53 2.89-.77.45-.11.83-.34 1.3-.42.6-.1 1.23-.05 1.82.16Z" fill="#925978"/><path opacity=".1" d="M31.14 75.6v5.38l-.01.68a32.8 32.8 0 0 1-.29 3.04 4.98 4.98 0 0 0-.94-1.04c-.8-.62-1.47-.54-1.98-.26-.21.13-.41.29-.58.48a28.7 28.7 0 0 1-.17-1.22l1.22-.25c.15-.25.4-.44.68-.52 1.08-.2 1.61-10.41 1.61-10.41l-3.3-7.22v-.35l1.12-1.78c1.86-1.6 2.31.7 2.31.7l.33 6.45v6.33Z" fill="#000"/><path d="M30.81 75.24v5.37l-.01.69c-.06 1.48-.29 3.03-.29 3.03-2.31-3.26-3.94-.23-3.94-.23l-.52-1.38c-.2-.17-.37-.37-.5-.6-1-1.66-.39-4.57-.39-4.57.36-4.54 1.88-9.67 1.88-9.67v-4.34l1.12-1.77c1.86-1.62 2.65.7 2.65.7v12.77Z" fill="#FF6484"/><path opacity=".1" d="M30.8 81.13a32.79 32.79 0 0 1-.28 3.04c-2.32-3.27-3.95-.23-3.95-.23l-.52-1.38c-.2-.17-.36-.37-.5-.6 1.09-.6 3.46-1.69 5.25-.83Z" fill="#000"/><path d="M30.8 81.3a32.79 32.79 0 0 1-.28 3.03c-2.32-3.26-3.95-.23-3.95-.23l-.52-1.38c-.2-.17-.36-.37-.5-.6 1.09-.59 3.46-1.68 5.25-.82Z" fill="#FF6484"/><path opacity=".1" d="M30.8 81.3a32.79 32.79 0 0 1-.28 3.03c-2.32-3.26-3.95-.23-3.95-.23l-.52-1.38c-.2-.17-.36-.37-.5-.6 1.09-.59 3.46-1.68 5.25-.82Z" fill="#fff"/><path opacity=".1" d="M27.67 70.11s.74 4.1 1.49 5.3c.74 1.2-1.5-5.3-1.5-5.3ZM25.76 77.06s.46 2.48 1.4 2.77c.96.29-1.4-2.77-1.4-2.77ZM51.38 85.81l.67.14-.29 1.43A3.55 3.55 0 0 0 49.14 86c-.37-.02-.74 0-1.1.07.16-.56.26-1.14.31-1.72.03-.22 0-.44-.1-.64-.33-.45-.5-4.67-.5-4.67s.3-2.15.46-2.56c.16-.41-.75-2.53-.7-3.16.04-.64.53-6.14.53-6.43 0-.29 1.08-5.95 3.3-3.8l.88 1.2.05.32-3.57 4.18s3.1 16.08 2.73 16.82a.64.64 0 0 0-.05.2Z" fill="#000"/><path d="M55.11 82.23c-.67.67-2.07 2.9-2.46 3.51l-.1.17-.33 1.65s-1.16-1.98-3.84-1.49c.15-.56.26-1.13.3-1.71.04-.22 0-.44-.1-.64-.33-.46-.5-4.67-.5-4.67s.3-2.15.46-2.57c.17-.4-.74-2.52-.7-3.16.04-.64.54-6.14.54-6.42 0-.3 1.07-5.96 3.3-3.8l.87 1.2.66 3.75 1.28 6.53s.33 2.57.62 2.94c.3.37.79 3.92 0 4.7Z" fill="#FF6484"/><path opacity=".1" d="m52.65 85.58-.1.16-.33 1.66s-1.16-1.99-3.85-1.5c.16-.55.26-1.13.31-1.7.92.05 2.78.3 3.97 1.38Z" fill="#000"/><path d="m52.65 85.74-.1.17-.33 1.65s-1.16-1.98-3.85-1.49c.16-.56.26-1.13.31-1.71.92.05 2.78.31 3.97 1.38Z" fill="#FF6484"/><path opacity=".1" d="m52.65 85.74-.1.17-.33 1.65s-1.16-1.98-3.85-1.49c.16-.56.26-1.13.31-1.71.92.05 2.78.31 3.97 1.38Z" fill="#fff"/><path opacity=".1" d="M49.94 74.12s2.81-.03 3.23 1.43c.41 1.47-3.23-1.43-3.23-1.43ZM49.4 78.26s4.76-.2 4.55 1.86c-.2 2.06-4.54-1.86-4.54-1.86ZM49.7 81.44s.37-.08.62.79c.24.86-.62-.79-.62-.79ZM40.07 101.65s1.13-.33 1.65 0-1.65 0-1.65 0ZM40.27 102.85s2.69.04 2.94.33c.24.3-2.94-.33-2.94-.33Z" fill="#000"/><g opacity=".1" fill="#000"><path opacity=".1" d="M34.55 51.72c.08-1.35-.59-2.68-.67-4-.09 1.33.6 2.68.66 4.04l.01-.04ZM37.7 53.96c-.34.67-.72 1.39-.62 2.13.07-.56.36-1.11.63-1.63.3-.6.58-1.23.58-1.9 0-.07 0-.14-.02-.22-.06.57-.3 1.1-.56 1.62ZM49.8 50.94c.13.05.24.12.33.21.09-.17.1-.37.05-.55l-.01-.02a.5.5 0 0 1-.37.36ZM37.1 59.64c-.28.54-.84 1.07-1.43.9-.06-.82-.18-1.75-.83-2.24-.43-.33-1.03-.4-1.42-.78a1.45 1.45 0 0 1-.4-.87l-.02.08a1.6 1.6 0 0 0 .42 1.3c.4.37.99.44 1.42.77.66.5.77 1.41.83 2.23.59.18 1.15-.35 1.42-.9.29-.58.41-1.22.37-1.87-.03.48-.16.95-.37 1.38ZM50.54 52.5a2.36 2.36 0 0 1-1.1 1.46c-.24.17-.54.33-.57.62-.01.11 0 .23.05.33.14-.19.32-.34.53-.45.52-.33.97-.84 1.1-1.45a1.5 1.5 0 0 0 0-.5ZM49.11 57.8c-.14.52-.51 1.1-1.06 1.08-.26-.01-.5-.17-.75-.19-.37-.03-.72.2-.94.5-.2.3-.38.64-.52.98-.41.79-1.2 1.5-2.09 1.38-.88-.13-1.44-1.08-1.53-2v.15c-.04 1.03.52 2.2 1.53 2.34.88.13 1.68-.58 2.09-1.37.14-.35.31-.67.52-.99.22-.3.57-.53.94-.5.25.03.5.19.75.2.55.02.92-.56 1.06-1.08.13-.47.18-.95.15-1.44-.02.32-.06.63-.15.94ZM43.62 45.9c.42.58.65 1.27.66 1.98.04-.9-.12-1.78-.66-2.49a2.94 2.94 0 0 0-3.14-.99c-.49.15-.95.46-1.16.92-.28.63-.04 1.38-.24 2.03-.22.74-.94 1.24-1.15 1.98a1.9 1.9 0 0 0-.05.73l.05-.23c.2-.74.93-1.25 1.15-1.98.2-.66-.04-1.4.24-2.03.2-.46.66-.77 1.16-.92a2.94 2.94 0 0 1 3.14 1Z"/></g><g opacity=".8"><path opacity=".8" d="M94.43 109.29a13.26 13.26 0 1 0 0-26.52 13.26 13.26 0 0 0 0 26.52Z" fill="#1769FF"/><path opacity=".8" d="M90.54 90.02c.52 0 1.05.05 1.56.15.44.09.85.25 1.22.5.33.23.6.55.78.91.2.45.3.93.28 1.42.02.54-.13 1.06-.42 1.51a3 3 0 0 1-1.22 1 2.9 2.9 0 0 1 1.66 1.12 3.67 3.67 0 0 1 .2 3.5c-.23.43-.56.8-.96 1.08-.41.29-.88.5-1.36.63-.52.13-1.05.2-1.58.2h-5.82V90.02h5.66Zm-.33 4.86c.4.02.81-.1 1.15-.33.3-.22.46-.58.46-1.1 0-.23-.04-.47-.15-.68-.1-.17-.24-.32-.4-.42-.19-.1-.38-.18-.59-.21a3.93 3.93 0 0 0-.68-.06h-2.48v2.81h2.69Zm.15 5.1c.25 0 .5-.02.74-.07.22-.05.43-.13.62-.26.18-.12.33-.28.43-.47.12-.25.18-.51.17-.78 0-.62-.18-1.06-.53-1.32-.4-.28-.88-.42-1.38-.4h-2.87v3.3h2.82Zm7.92-.25c.36.35.87.52 1.55.52.44.01.88-.12 1.25-.37.3-.17.52-.44.64-.76h2.1a4 4 0 0 1-1.55 2.24c-.76.47-1.64.7-2.53.67-.63.01-1.26-.1-1.85-.33a3.83 3.83 0 0 1-2.28-2.38 5.33 5.33 0 0 1 0-3.67 4.2 4.2 0 0 1 2.32-2.42 4.5 4.5 0 0 1 1.8-.35 3.87 3.87 0 0 1 3.29 1.59c.37.49.63 1.05.78 1.65.15.63.2 1.28.16 1.93h-6.28c.03.77.23 1.34.59 1.68Zm2.7-4.58c-.29-.31-.72-.47-1.3-.47-.33-.01-.66.06-.95.2a1.78 1.78 0 0 0-.93 1.08c-.06.19-.1.38-.1.57h3.87c-.1-.6-.3-1.06-.6-1.38h.01Zm-3.7-4.52h4.85v1.34h-4.86v-1.34Z" fill="#fff"/></g><g opacity=".8"><path opacity=".8" d="M154.35 103.8v.37a13.26 13.26 0 1 1 0-.38Z" fill="#B3BBC6"/><path opacity=".8" d="M154.34 104.17a13.25 13.25 0 0 1-11.65 12.79l-10.83-8.05 1.35-8.77 5.36.33 3.04 2.56 2.17-3.53 3.64 3.02 1.95 1.4V99.5l4.93 4.56.04.11Z" fill="#666C76"/><path opacity=".8" d="M140.14 104.12c0-2.81-1.72-4.72-5.01-4.72h-3.25v9.46h3.31c3.2 0 4.95-1.93 4.95-4.74Zm-2.36.02c0 2.02-1.04 2.9-2.7 2.9h-.86v-5.81h.85c1.6 0 2.71.92 2.71 2.9Zm11.7 4.72v-9.45h-2.18v5.29l-3.48-5.3h-2.28v9.46h2.18v-5.66l3.73 5.66h2.03Z" fill="#fff"/></g><path d="M144.38 89.69c-.16-.33-1.7-2.54-1.7-2.54l-.05-.2-.5-2.26-.04-.16c.33-.09.57-.2.64-.32.36-.64-.3-1.41-.3-1.41l-.15-3.35-.36-8.1s-.76-2.71-.87-3.35c-.11-.63-1.15-1.96-1.15-1.96s.23-.66-.05-1.14c-.28-.47-.9-2.68-.9-2.68l-.53-6.12-.25-6.02c.25 0 .5.03.75.08.04.03.02-.05-.03-.18a.1.1 0 0 1 .03.01c.09.07-.14-.45-.39-.98l-.03-.06c.12-.43.61-2.18.96-2.8.25-.47-.24-3.7-.61-5.9l-.08-.44c.6-1.07 1.3-2.27 1.3-2.27s1.76-5.03 2.5-7.22c.72-2.18 0-7.85 0-7.85s0-.28-.05-.71c-.11-1.17-.55-3.46-2.23-4.35-2.29-1.22-3.02-2.71-3.02-2.71s-2.86-2.6-3.22-1.73l-.03-.05a5.73 5.73 0 0 1-.5-1.53c.37-.29.7-.63.95-1.02l-.02.22v.2a.7.7 0 0 0 0 .1v.05a.53.53 0 0 0 .53-.3c.08-.19.14-.39.17-.6.1-.44.28-.87.53-1.25.24-.37.57-.75.61-1.18v-.19c-.02-.21-.12-.42-.16-.63a1.4 1.4 0 0 1 0-.34l.03-.19.04-.26.03-.21v-.01c.02-.2.02-.38 0-.57a1.11 1.11 0 0 0-.54-.87c-.16-.08-.35-.1-.52-.2-.43-.22-.57-.75-.82-1.16a2.07 2.07 0 0 0-1.64-.94c-.66-.03-1.31.26-1.96.16-.42-.07-.8-.29-1.22-.32-.61-.04-1.16.33-1.66.69-.35.25-.73.54-.84.95-.1.35 0 .74-.2 1.03-.12.2-.34.3-.48.5a.82.82 0 0 0-.17.53V5.73l.06.38v.04c.05.34-.07.59-.2.93-.05.14-.08.3-.08.45V7.68c.01.12.07.23.15.32a.5.5 0 0 1 .16-.17V8a4.37 4.37 0 0 0 1.33 3.13l-.02.14c-.08.5-.17 1.04-.28 1.57l-.04.16h-.83s.14-.6-1.23.14c-1.37.75-3.05 1.1-3.3 1.24-.26.14-3.37 2.55-3.37 2.55s-2.68 1.55-2.6 4.2l-.3 2.98-.23 5.56s-.42 4.73 0 5.4c.42.65 1.15 4.58 1 5.08-.1.36.92 2.9 1.62 4.37a6 6 0 0 0-.52.63s-.28 1.11-.28 1.22l.01.02c-.62.63-1.6 1.66-1.6 1.9 0 .32.19.61-.12.6-.3-.03-.32.33-.3.55.02.22-.37-.1-.34.3.02.42-2.86 6.92-2.86 6.92s-1.31 3.18-1.82 3.7c-.5.53-1.2 2.86-1.14 3.71.05.86.08 1.1-.14 1.1-.23 0-.68.78-.68.78l-2.2 6.8s-.65 2.1-.85 2.08c-.2-.02-.63 3.61-.63 3.61s-.48 1.08-.56 1.08c-.02 0 .06.08.2.2l-.1.08c-.2.18-.42.34-.64.5-.01 0-1.28-.88-2.15-.8-.88.08-2.66.3-3.56-.33a4.9 4.9 0 0 0-2.38-.68c-.68 0-1.22.17-1.26.68-.08 1.13 3.05 3.26 3.05 3.26s3.31.94 3.95 1.82c.64.88 3.28 2.21 3.28 2.21s.8-.35 1.1-.7a.34.34 0 0 0 .1-.26c-.05-.42 1.1-1.99 1.1-1.99l.16-.78a41 41 0 0 1 .33-1.43c.13 0 .26-.01.38-.06 1.12-.44 1.23-1.65 1.23-1.65l1.68-3.5s.73-2.02.95-2.38c.22-.36 1.96-3.98 1.96-3.98s.3-1.55.59-2.02c.28-.47.3-1.5.3-1.5s.6-1.54 1.2-2.15c.45-.48.84-1 1.16-1.57 0 0 2.54-4.01 4.28-5.15 0 0 4.17-5.09 4.42-5.53.25-.44 1.04-1.6 1.99-.55.94 1.05 1.95 2.4 1.95 2.4l1.71 4.65 1.9 5.95s.9 1.44.84 1.74c-.05.3 1.46 3.02 1.46 3.02s.59.99.48 1.49c-.12.5.42.99.42.99l.16 2.02s.62 1.98.45 2.3c-.17.3.59 2.2.59 2.2s0 1.7.28 2.25.62 2.76.59 2.93c-.03.16 0 1.68 0 1.68h.5l.02.16.14 1.66.01.16a.66.66 0 0 0-.25.48 84.77 84.77 0 0 0 .16 3.56.55.55 0 0 0 .61.51c.8-.1 1.6-.07 2.4.09.86.2 1.76.26 2.65.2 0 0 .06-.63.07-1.19.01-.36 0-.68-.07-.81Z" fill="url(#c)"/><path d="M142.24 87.22h-3.77l-.04-.44-.14-1.66-.1-1.26h3.3l.2.92.5 2.24.05.2ZM107.55 80.55c-.07.07-.2.5-.31 1-.21.88-.44 2.03-.44 2.03l-.13.04-2.95.7s-1.54-3.52-.83-3.6c.26-.05.5-.16.7-.31a10.68 10.68 0 0 0 1.37-1.15s2.78 1.1 2.59 1.3Z" fill="#FFAAB0"/><path opacity=".1" d="M107.55 80.55c-.07.07-.2.5-.31 1-1.02-.06-2.55-1.27-2.98-1.66.4-.33.7-.64.7-.64s2.78 1.11 2.59 1.3ZM141.7 84.77c-.9.25-2.57.32-3.4.35l-.11-1.26h3.3l.2.91Z" fill="#000"/><path d="M117.72 46.11s-2.07 2.04-2.07 2.37c0 .33.2.62-.11.6-.3-.02-.31.34-.3.56.02.22-.36-.11-.33.3.02.41-2.82 6.89-2.82 6.89s-1.29 3.17-1.79 3.69-1.18 2.84-1.13 3.7c.06.85.09 1.1-.13 1.1-.23 0-.67.77-.67.77l-2.17 6.78s-.64 2.09-.83 2.06c-.19-.03-.66 3.61-.66 3.61s-.47 1.08-.55 1.08c-.08 0 2.4 2.15 3.5 1.7 1.1-.43 1.21-1.65 1.21-1.65l1.65-3.47s.72-2.01.94-2.37c.22-.36 1.93-3.97 1.93-3.97s.3-1.54.58-2c.28-.48.3-1.5.3-1.5s.58-1.54 1.19-2.15c.44-.47.81-1 1.13-1.57 0 0 2.5-4 4.21-5.12 0 0 4.1-5.07 4.36-5.51.24-.45 1.02-1.6 1.95-.55.94 1.04 1.93 2.4 1.93 2.4l1.68 4.62 1.88 5.93s.88 1.43.82 1.73c-.05.3 1.44 3 1.44 3s.57 1 .46 1.5c-.1.49.42.99.42.99l.16 2s.6 2 .44 2.3c-.16.3.58 2.2.58 2.2s0 1.68.28 2.23.6 2.76.58 2.92c-.03.17 0 1.68 0 1.68s4.16-.02 4.51-.66c.36-.63-.3-1.4-.3-1.4l-.14-3.34-.35-8.07s-.75-2.7-.86-3.34c-.11-.63-1.13-1.95-1.13-1.95s.22-.66-.05-1.13c-.28-.47-.89-2.67-.89-2.67l-.52-6.1-.27-6.64-20.06-3.55Z" fill="#DCE6F2"/><path opacity=".1" d="M138.55 50.38c-.17-.14-6.95-.2-7.03-.2-.08 0-2.64-1.01-2.64-1.01s-5.7-.94-6.59-.53c-.88.42-3.61-.77-3.61-.77v-.52s-1.46-.5-1.46-.6c0-.12.28-1.22.28-1.22l.16-.06.63-.21 19.37 3.1.5 1.05c.24.51.47 1.04.39.97Z" fill="#000"/><path d="M138.55 50.22c-.17-.14-6.95-.2-7.03-.2-.08 0-2.64-1.02-2.64-1.02s-5.7-.93-6.59-.52c-.88.41-3.61-.77-3.61-.77v-.53s-1.46-.5-1.46-.6c0-.11.28-1.22.28-1.22l.16-.05.63-.22 19.37 3.11.5 1.04c.24.52.47 1.04.39.98Z" fill="#F1FAFF"/><path opacity=".1" d="m106.96 82.64-.16.78-.14.2-2.94.7s-1.54-3.52-.83-3.6c.26-.05.5-.16.7-.31-.15 1.1.71 2.27.71 2.27 1.2.9 2.66-.04 2.66-.04Z" fill="#000"/><path d="m106.96 82.8-.16.79s-1.13 1.57-1.08 1.98c0 .05 0 .1-.03.14a.35.35 0 0 1-.08.12c-.3.35-1.08.7-1.08.7s-2.58-1.32-3.22-2.2c-.63-.88-3.88-1.82-3.88-1.82s-3.09-2.12-3-3.25c.03-.5.57-.68 1.23-.67.82 0 1.85.32 2.34.67.89.63 2.65.41 3.5.33.86-.08 2.12.8 2.12.8-.29 1.15.67 2.45.67 2.45 1.22.91 2.67-.03 2.67-.03Z" fill="#575988"/><path d="M105.62 85.83c-.3.35-1.08.7-1.08.7s-2.59-1.32-3.22-2.2c-.63-.88-3.89-1.82-3.89-1.82s-3.08-2.12-3-3.25c.04-.5.57-.69 1.24-.68.5.83 1.22 1.98 1.76 2.3.89.53 2.62 1.52 2.62 1.52s2.76 1.73 2.95 1.93c.16.16 1.75 1.21 2.62 1.5Z" fill="#F1FAFF"/><path opacity=".1" d="M142.25 87.22h-3.78l-.04-.44c.47-.45 1.5-.66 1.5-.66.7-.22 2 .7 2.26.9l.06.2Z" fill="#000"/><path d="M144 90.56c-.02.56-.08 1.18-.08 1.18-.88.07-1.76 0-2.62-.2a7.14 7.14 0 0 0-2.35-.08.54.54 0 0 1-.6-.51l-.04-.74a80.06 80.06 0 0 1-.12-2.8c0-.77 1.74-1.12 1.74-1.12.78-.25 2.31.93 2.31.93s1.52 2.2 1.68 2.54c.07.13.08.45.07.8Z" fill="#575988"/><path d="M144 90.56c-.02.56-.08 1.18-.08 1.18-.88.07-1.76 0-2.62-.2a7.15 7.15 0 0 0-2.35-.08.54.54 0 0 1-.6-.51l-.04-.74c.63-.1 1.57-.19 2.22-.04.76.18 2.5.32 3.46.4Z" fill="#F1FAFF"/><path opacity=".1" d="M106.35 74.01s-.58 1 0 1.45c.58.45 0-1.45 0-1.45ZM137.43 77.85c.17.33.6.83.53 1.4-.08.59-.53-1.4-.53-1.4Z" fill="#000"/><path d="M136.92 17.4s-2.52-.26-5.14-.6l-.1-.02c-3.05-.4-6.16-.93-5.56-1.31.27-.17.5-.59.68-1.12.12-.34.22-.68.3-1.03 0-.06.02-.11.03-.17a22.28 22.28 0 0 0 .48-3.36s6.47-2.45 5.67.6c-.12.5-.12 1.01-.02 1.5.1.48.25.94.46 1.38a15.2 15.2 0 0 0 3.2 4.13Z" fill="#FFAAB0"/><path opacity=".1" d="M133.28 10.4c-.12.49-.12 1-.02 1.5a4.38 4.38 0 0 1-5.85-.3c.14-1 .2-1.8.2-1.8s6.47-2.46 5.67.6Z" fill="#000"/><path d="M134.88 8.33a4.38 4.38 0 1 1-8.76 0 4.38 4.38 0 1 1 8.76 0Z" fill="#FFAAB0"/><path opacity=".1" d="M131.84 16.61a.82.82 0 0 1-.06.18l-.1-.01c-3.05-.4-6.16-.93-5.56-1.31.27-.17.5-.59.68-1.12.12-.34.22-.68.3-1.03 0-.06.02-.11.03-.17h.13c.01.07.33 2.2 3.17 2.55l.1.01c1.1.13 1.4.5 1.3.9Z" fill="#000"/><path d="M131.67 16.78c-.14.68-1.3 1.5-1.3 1.5l-3.26-.6s-2.04-1.83-2.04-1.88c0-.06 1.22-2.48 1.22-2.48h.8c.02.07.34 2.19 3.18 2.55h.1c1.1.13 1.39.5 1.3.9Z" fill="#F1FAFF"/><path opacity=".1" d="M136.92 17.4s-2.6-.27-5.25-.62c-.14.68-1.3 1.5-1.3 1.5l-3.26-.6s-2.04-1.83-2.04-1.88c0-.06 1.22-2.48 1.22-2.48h.04c.1.36.26.71.47 1.03.51.78 1.49 1.64 3.3 1.53l.16-.01c2.73-.23 3.34-2.12 3.46-2.6 1.03 2.2 3.2 4.13 3.2 4.13ZM138.16 49.24l-.05.2c-.67-.5-5.49-.82-5.49-.82s-1.26-.15-2.48-.35a10.52 10.52 0 0 1-2.26-.54c-1.1-.34-4.46-.74-4.46-.74s-1.66.75-2.54.41c-.88-.33-3.39-1.87-3.39-1.87l.17-.22.63-.22 19.37 3.11.5 1.04Z" fill="#000"/><path d="M138.47 40.53c.37 2.2.85 5.4.6 5.86-.38.72-.96 2.9-.96 2.9-.67-.5-5.49-.83-5.49-.83s-1.26-.15-2.48-.34a10.53 10.53 0 0 1-2.26-.54c-1.1-.35-4.46-.75-4.46-.75s-1.66.75-2.54.42a35.3 35.3 0 0 1-3.39-1.88c.36-.5.78-.95 1.24-1.35.85-.77 2.42-7.41 2.38-7.5a14.7 14.7 0 0 1-.31-3.44c.1-1.24-.33-7.3-.33-7.3s-4.44-1.72-4.51-4.36c-.08-2.65 2.56-4.19 2.56-4.19s3.06-2.4 3.3-2.54c.25-.13 1.9-.5 3.26-1.24 1.35-.74 1.21-.13 1.21-.13s.55 2.92 3.83 2.73c3.28-.2 3.64-2.73 3.64-2.73.35-.88 3.17 1.73 3.17 1.73s.72 1.5 2.98 2.7c1.65.89 2.08 3.17 2.2 4.34.03.43.03.7.03.7l-6.64 4.77 2.61 10.89s.17.89.36 2.08Z" fill="#575988"/><path d="M122.04 46.2s2.18 3.74 4.44 2.7c.5-.24.93-.63 1.2-1.11.9-1.54 0-3.5-1.72-3.97-.64-.17-1.32-.27-1.88-.17-1.57.28-2.04 2.54-2.04 2.54Z" fill="#FFAAB0"/><path opacity=".1" d="M122.04 46.2s2.18 3.74 4.44 2.7c.5-.24.93-.63 1.2-1.11.9-1.54 0-3.5-1.72-3.97-.64-.17-1.32-.27-1.88-.17-1.57.28-2.04 2.54-2.04 2.54ZM118.85 18.83s1.71 1.16 1.75 2.98l-1.75-2.98ZM121.55 19.71c0 .11-.5 7.77.38 10.39.88 2.62-.38-10.39-.38-10.39ZM134.88 8.33c0 .85-.24 1.68-.7 2.39v-.17a2.91 2.91 0 0 0-.52-1.27 2.52 2.52 0 0 0-.88-.98c-.15-.17-.13-.43-.16-.66a1.48 1.48 0 0 0-1.2-1.24.5.5 0 0 0-.36.05c-.12.08-.17.23-.26.32-.15.13-.38.11-.58.08-.43-.09-.88-.25-1.3-.1-.72.23-1 1.23-1.73 1.41-.22.04-.44.05-.66.05a.91.91 0 0 0-.4.12 4.38 4.38 0 1 1 8.76 0Z" fill="#000"/><path d="M126.16 5.42c.14-.19.36-.3.48-.49.2-.3.1-.69.2-1.02.1-.42.47-.7.82-.96.5-.35 1.03-.73 1.64-.68.4.02.78.25 1.2.32.63.1 1.28-.19 1.92-.17a2.02 2.02 0 0 1 1.61.94c.26.41.4.94.83 1.16.17.08.35.1.51.2a1.1 1.1 0 0 1 .53.85c.02.35 0 .7-.07 1.05-.03.17-.04.35-.03.52.03.22.14.42.16.64.05.5-.33.93-.6 1.35-.25.38-.43.8-.52 1.25-.03.2-.09.41-.18.6a.52.52 0 0 1-.51.3c-.03-.3.04-.61.02-.91a2.9 2.9 0 0 0-.5-1.27 2.5 2.5 0 0 0-.89-.99c-.15-.16-.13-.42-.16-.66a1.48 1.48 0 0 0-1.2-1.24.5.5 0 0 0-.36.06c-.11.08-.17.22-.26.31-.15.14-.38.12-.58.08-.43-.08-.88-.24-1.3-.1-.72.24-1 1.24-1.73 1.42-.22.03-.44.05-.66.05a.7.7 0 0 0-.57.3c-.22-.24-.18-.62-.07-.92.13-.35.24-.6.18-.97s-.14-.7.1-1.02Z" fill="#794F6A"/><path opacity=".1" d="M110.07 65.54s-1.57.82-.74.99c.82.16.74-1 .74-1ZM135.94 67.52s.87-1.16 1.82-.45c.95.7-1.82.45-1.82.45ZM137.96 68.26s1.08-.37 1.75 0h-1.75ZM116.56 49.5s2.31 2.23 3.06 2.31c.74.09-3.06-2.31-3.06-2.31ZM116.89 20.15l-.6 1.27-.3 2.97-.23 5.54s-.41 4.72 0 5.38c.42.66 1.13 4.57 1 5.07-.14.5 1.81 5.12 2.17 5.4.36.28 1.63.33 2.34.2l1.31 1.24 3.71-3.42-2.29-1.74s.53-.88-.93-1.85c0 0-.66-1.1-.7-1.68a12.28 12.28 0 0 0-.6-3.47c-.52-1.54-.83-10.11-.83-10.11s-1.24-6.26-4.05-4.8Z" fill="#000"/><path d="m116.56 20.15-.6 1.27-.3 2.97-.23 5.54s-.41 4.72 0 5.38c.42.66 1.13 4.57 1 5.07-.14.5 1.81 5.12 2.17 5.4.36.28 1.63.33 2.34.2l1.31 1.24 3.7-3.42-2.28-1.74s.52-.88-.94-1.85c0 0-.66-1.1-.68-1.68a12.31 12.31 0 0 0-.61-3.47c-.52-1.54-.83-10.11-.83-10.11s-1.24-6.26-4.05-4.8Z" fill="#575988"/><path opacity=".1" d="M122.32 40.87c-.17.09-3.5 3.17-2.26 3.26 1.24.08 2.26-3.26 2.26-3.26Z" fill="#000"/><path d="M126.56 44.6s-4.77.49-4.52 2.42 3.64 3.79 4.71 3.2c1.08-.58 1.99-1.14 1.99-1.14l-2.18-4.49Z" fill="#FFAAB0"/><path opacity=".1" d="m141.11 21.48.69 1.32s.72 5.65 0 7.82c-.72 2.18-2.45 7.2-2.45 7.2s-2.1 3.66-2.15 3.83c-.06.16-4.03 5.9-4.74 6.2-.72.3-2.07.14-2.15-.2-.08-.33-1.9 1.43-1.9 1.43s-3.5-4.24-2.95-4.68c.56-.44 2.25-.55 2.25-.55s.12.41.26-.44c.13-.86.77-1.3 1.24-1.24.46.05.27-.44.35-.97.09-.52 1.38-1.46 1.38-1.46s.64-1.02.64-1.62c0-.6 1.32-1.13 1.43-1.13.1 0 .08-.25.08-1.13 0-.88.66-2.45.66-2.45l.41-4.96.72-5.05s1.96-6.14 6.23-1.92Z" fill="#000"/><path opacity=".1" d="M138.11 38.45s.17.89.37 2.07l-.62 1.12c-.05.17-4.02 5.9-4.74 6.2-.71.3-2.06.15-2.15-.18-.03-.15-.41.11-.82.45-.51.42-1.08.97-1.08.97s-.55-.68-1.19-1.51c-.95-1.27-2.1-2.9-1.76-3.17.56-.44 2.25-.55 2.25-.55s.12.41.26-.44c.14-.86.77-1.3 1.24-1.24.47.05.28-.44.36-.97.08-.52 1.38-1.46 1.38-1.46s.63-1.02.63-1.62c0-.6 1.32-1.13 1.43-1.13.11 0 .09-.25.09-1.13 0-.89.66-2.45.66-2.45l.4-4.96.72-5.05s1.96-6.14 6.23-1.93l.32.62c.04.43.04.7.04.7l-6.64 4.77 2.62 10.89Z" fill="#000"/><path d="m141.44 21.48.69 1.32s.72 5.65 0 7.82c-.72 2.18-2.45 7.2-2.45 7.2s-2.1 3.66-2.15 3.83c-.06.16-4.03 5.9-4.74 6.2-.72.3-2.07.14-2.15-.2-.08-.33-1.9 1.43-1.9 1.43s-3.5-4.24-2.95-4.68c.56-.44 2.25-.55 2.25-.55s.12.41.26-.44c.13-.86.77-1.3 1.24-1.24.47.05.27-.44.36-.97.08-.52 1.37-1.46 1.37-1.46s.64-1.02.64-1.62c0-.6 1.32-1.13 1.43-1.13.1 0 .08-.25.08-1.13 0-.88.66-2.45.66-2.45l.41-4.96.72-5.05s1.96-6.14 6.23-1.92Z" fill="#575988"/><path opacity=".1" d="M129.15 43.62s.17.37.91.5c.75.14-.9-.5-.9-.5ZM138.05 21.5c-.03.08-2.48 2.86-1.98 3.58.5.72 1.98-3.58 1.98-3.58ZM135.27 34.23s1.4 1.38 1.13 2.04c-.28.66-1.13-2.04-1.13-2.04ZM135.49 31.62c.08.13 3.11.5 3.28 1.65.16 1.16-3.28-1.65-3.28-1.65Z" fill="#000"/><g opacity=".1" fill="#000"><path opacity=".1" d="m135.8 6.83.02-.19c.06-.32.09-.64.08-.96-.01.21-.05.42-.08.63-.03.17-.04.35-.02.52ZM126.07 6.5c.02-.11.02-.24 0-.36l-.05-.35c-.02.23 0 .46.05.68v.04ZM135.94 7.73c-.07.4-.36.75-.59 1.1-.25.38-.42.8-.51 1.24-.03.21-.1.41-.18.6a.52.52 0 0 1-.51.3v-.02.34a.52.52 0 0 0 .51-.29c.09-.19.15-.39.18-.6.09-.44.26-.86.51-1.24.28-.43.66-.86.6-1.36.01-.02 0-.04 0-.07ZM134.17 10.06a2.92 2.92 0 0 0-.5-1.27 2.54 2.54 0 0 0-.9-1c-.14-.16-.13-.42-.16-.65a1.48 1.48 0 0 0-1.19-1.24.5.5 0 0 0-.36.05c-.12.08-.17.23-.27.32a.66.66 0 0 1-.57.08c-.43-.09-.88-.25-1.3-.1-.72.23-1 1.23-1.74 1.41a4.2 4.2 0 0 1-.66.05.69.69 0 0 0-.56.3.55.55 0 0 1-.15-.3.7.7 0 0 0 .15.63.69.69 0 0 1 .56-.3c.22 0 .45-.01.66-.04.74-.19 1.02-1.19 1.74-1.42.42-.15.87.01 1.3.1a.67.67 0 0 0 .57-.08c.1-.1.15-.24.27-.32a.5.5 0 0 1 .37-.05 1.47 1.47 0 0 1 1.18 1.24c.03.23.01.48.17.66a2.54 2.54 0 0 1 .88 1c.23.38.47.78.5 1.22l.01-.29Z"/></g><path d="M79.83 24.28v17.35a.27.27 0 0 0 .28.27 9.06 9.06 0 0 0 8.76-8.95A9.05 9.05 0 0 0 80 24.02a.27.27 0 0 0-.17.26Z" fill="#61BEEC"/><path d="M67.9 47.97V33.61a10.5 10.5 0 0 1 2.1-6.37 7.7 7.7 0 0 1 6.5-3.22.32.32 0 0 1 .2.3v14.77s.5 8.08-8.63 9.04a.17.17 0 0 1-.17-.16Z" fill="#4064AC"/><path opacity=".1" d="M30.3 22.38a5.2 5.2 0 1 0 0-10.42 5.2 5.2 0 0 0 0 10.42ZM19.4 8a3.22 3.22 0 1 0 0-6.45 3.22 3.22 0 0 0 0 6.45ZM2.53 13.95a1.98 1.98 0 1 0 0-3.97 1.98 1.98 0 0 0 0 3.97Z" fill="#00BAFC"/><path d="M68.31 111.1c-.16.21-.28.45-.38.7l-.07.2a1.83 1.83 0 0 0-.72-.1l.02-.23c.02-.88-.08-2.1-.91-1.58-.8.5-.23 1.33.28 1.86l.13.13c-.47.33-.55 1.1-.63 1.92-.08.81-.77 1.7-1.23 2.2-.04.06-.09.1-.13.14a1.67 1.67 0 0 0-1.33-.34 6.88 6.88 0 0 0-.06-.22c-.37-1.35-1.14-3.66-2.12-4.16l.13-.16c.42-.55.89-1.36.2-1.56-.7-.21-.76.7-.72 1.38l.02.24a1 1 0 0 0-.73.36l-.1-.13c-.57-.66-1.6-1.72-1.91-.92-.29.74.62 1.7 1.26 2.26l.03.03c-.42 1.74 1.45 3.16 2.45 3.78l.13.08c-1.38 1.63-2.24 4.7-2.24 4.7l3.89.7s2.57-2.23 2.24-4.32h.03c2.58-.51 3.16-3.26 2.76-4.9l.05-.01c.47-.2.88-.5 1.2-.9.71-1.01-.8-2.14-1.54-1.16Z" fill="#00BAFC"/><path opacity=".1" d="M68.31 111.1c-.16.21-.28.45-.38.7l-.07.2a1.83 1.83 0 0 0-.72-.1l.02-.23c.02-.88-.08-2.1-.91-1.58-.8.5-.23 1.33.28 1.86l.13.13c-.47.33-.55 1.1-.63 1.92-.08.81-.77 1.7-1.23 2.2-.04.06-.09.1-.13.14a1.67 1.67 0 0 0-1.33-.34 6.88 6.88 0 0 0-.06-.22c-.37-1.35-1.14-3.66-2.12-4.16l.13-.16c.42-.55.89-1.36.2-1.56-.7-.21-.76.7-.72 1.38l.02.24a1 1 0 0 0-.73.36l-.1-.13c-.57-.66-1.6-1.72-1.91-.92-.29.74.62 1.7 1.26 2.26l.03.03c-.42 1.74 1.45 3.16 2.45 3.78l.13.08c-1.38 1.63-2.24 4.7-2.24 4.7l3.89.7s2.57-2.23 2.24-4.32h.03c2.58-.51 3.16-3.26 2.76-4.9l.05-.01c.47-.2.88-.5 1.2-.9.71-1.01-.8-2.14-1.54-1.16Z" fill="#000"/><path d="m60.57 112.21-.45 1.33s-.26-.18-.58-.46c-.64-.56-1.54-1.52-1.25-2.26.31-.8 1.34.25 1.9.92l.38.47ZM61.53 111.46l-.44.52a6.96 6.96 0 0 1-.09-.7c-.03-.68.04-1.59.72-1.39.69.2.23 1.02-.2 1.57ZM67.4 111.67c-.02.43-.06.78-.06.78-.2-.15-.4-.32-.57-.5-.51-.53-1.08-1.35-.29-1.85.84-.52.94.7.91 1.57ZM70.08 112.24c-.31.4-.72.7-1.2.9-.12.06-.26.1-.4.14l-.53-.75c.06-.25.13-.49.22-.73.1-.25.22-.49.38-.7.74-1 2.25.14 1.53 1.14Z" fill="#00BAFC"/><path opacity=".1" d="m60.2 111.75.37.46-.45 1.33s-.26-.18-.58-.46c.07-.43.25-.83.52-1.17l.13-.16ZM61.53 111.46l-.44.52a7 7 0 0 1-.09-.7.9.9 0 0 1 .53.18Z" fill="#000"/><path d="m63.77 116.74-1.14.5-.6-.35c-1.19-.73-3.58-2.57-1.97-4.74 1.6-2.17 2.93 1.72 3.46 3.63.16.57.25.96.25.96Z" fill="#00BAFC"/><path opacity=".1" d="M66.77 111.95a.92.92 0 0 1 .62-.28c-.01.44-.05.79-.05.79-.2-.16-.4-.32-.57-.5ZM68.89 113.14c-.13.06-.27.1-.4.14l-.54-.75c.06-.25.13-.49.22-.73.35.2.6.7.72 1.34Z" fill="#000"/><path d="m66.08 118.06-.2.03c-3.78.58-1.24-1.47-1.24-1.47l.4-.42c.46-.5 1.15-1.38 1.23-2.2.11-1.23.25-2.38 1.7-2.04 1.43.33 1.7 5.38-1.9 6.1Z" fill="#00BAFC"/><path d="M66 127.5h-7.23v1.9H66v-1.9Z" fill="#D4DFEC"/><path d="M67.08 121.3h-9.46v6.65h9.46v-6.65Z" fill="#D4DFEC"/><path opacity=".1" d="M66 127.5h-7.23v1.9H66v-1.9Z" fill="#000"/><path opacity=".1" d="M67.08 121.3h-9.46v6.65h9.46v-6.65Z" fill="#000"/><path d="M66.49 127.5h-7.25v1.9h7.25v-1.9Z" fill="#D4DFEC"/><path opacity=".1" d="M63.52 115.78c.16.57.25.96.25.96l-1.14.5-.6-.35c.44-.56.94-.98 1.49-1.11ZM66.08 118.06l-.2.03c-3.78.58-1.24-1.47-1.24-1.47l.4-.42c.7.57 1 1.21 1.04 1.86Z" fill="#000"/><path d="M59.9 121.68s2.13-7.6 5.1-5.26c2.99 2.35-1.2 5.95-1.2 5.95l-3.9-.7Z" fill="#00BAFC"/><path opacity=".1" d="M60.99 113.58a.24.24 0 1 0 0-.47.24.24 0 0 0 0 .47ZM60.97 114.7a.24.24 0 1 0 0-.48.24.24 0 0 0 0 .47ZM67.87 113.8a.24.24 0 1 0 0-.47.24.24 0 0 0 0 .47ZM62.32 119.5a.24.24 0 1 0 0-.48.24.24 0 0 0 0 .48ZM67.38 115.65a.24.24 0 1 0 0-.48.24.24 0 0 0 0 .48ZM64.92 118.1a.24.24 0 1 0 0-.47.24.24 0 0 0 0 .48ZM61.8 114.06a.24.24 0 1 0 0-.48.24.24 0 0 0 0 .48ZM67.22 114.52a.24.24 0 1 0 0-.48.24.24 0 0 0 0 .48ZM66.4 116.36a.24.24 0 1 0 0-.47.24.24 0 0 0 0 .47ZM63.9 119.32a.24.24 0 1 0 0-.48.24.24 0 0 0 0 .48ZM63.39 118.15a.24.24 0 1 0 0-.48.24.24 0 0 0 0 .48ZM62.16 115.5a.24.24 0 1 0 0-.47.24.24 0 0 0 0 .48ZM66.49 127.5h-7.25v.69h7.25v-.7Z" fill="#000"/><path d="M67.56 121.3h-9.47v6.65h9.47v-6.65Z" fill="#D4DFEC"/><path opacity=".1" d="M64.22 120.4a.24.24 0 1 0 0-.49.24.24 0 0 0 0 .48ZM62.8 120.69a.24.24 0 1 0 0-.48.24.24 0 0 0 0 .48Z" fill="#000"/></g><defs><linearGradient id="b" x1="39.34" y1="127.93" x2="39.34" y2="39.76" gradientUnits="userSpaceOnUse"><stop stop-color="gray" stop-opacity=".25"/><stop offset=".54" stop-color="gray" stop-opacity=".12"/><stop offset="1" stop-color="gray" stop-opacity=".1"/></linearGradient><linearGradient id="c" x1="39224.3" y1="54940.5" x2="39224.3" y2="6127.73" gradientUnits="userSpaceOnUse"><stop stop-color="gray" stop-opacity=".25"/><stop offset=".54" stop-color="gray" stop-opacity=".12"/><stop offset="1" stop-color="gray" stop-opacity=".1"/></linearGradient><clipPath id="a"><path fill="#fff" transform="translate(.55)" d="M0 0h178.91v130H0z"/></clipPath></defs></svg>