<svg width="300" height="225" fill="none" xmlns="http://www.w3.org/2000/svg"><g clip-path="url(#a)"><path d="m287.74 199.5 1.12-4.44c2-.84 4.03-1.57 6.1-2.19l.15 2.06.57-2.26c2.57-.74 4.32-1.06 4.32-1.06s-2.36 8.98-7.32 15.85l-5.77 1.01 4.48.65c-.62.75-1.29 1.46-2 2.13-7.2 6.69-15.24 9.75-17.93 6.85-2.7-2.9.96-10.68 8.17-17.37a30.63 30.63 0 0 1 7.85-5.05l.26 3.81Z" fill="#E6E6E6"/><path d="m277.06 194.68-1.32-4.37a57.27 57.27 0 0 1 4.09-5.02l1.18 1.68-.68-2.23c1.82-1.96 3.15-3.14 3.15-3.14s2.63 8.9 1.93 17.35L281 202.8l4.17-1.76c-.15.96-.35 1.92-.62 2.85-2.71 9.46-8 16.23-11.8 15.14-3.81-1.1-4.7-9.64-1.99-19.1a30.6 30.6 0 0 1 4.11-8.37l2.2 3.12Z" fill="#E6E6E6"/><path d="M299.32 218.72H125v.67h174.32v-.67Z" fill="#3F3D56"/><path d="M8.18 88.3c-2.36-3.5-3.37-9.72 1.02-12.79 2.17-1.52 4.81-1.33 7.1-.66 3.17.92 5.98 2.81 8.41 4.92 2.8 2.44 5.21 5.29 7.58 8.14a170.04 170.04 0 0 0 48.99 41.15 80.68 80.68 0 0 0 8.86 4.4c4.04 1.63 10.96 3.9 14.55-.66 1.9-2.42 2-5.7 1.56-8.46-.51-3.33-1.82-6.44-3.11-9.47-6-14.13-12.06-28.22-18.1-42.33-1.4-3.3-2.85-6.57-4.02-9.98-1.1-3.18-2-6.54-2.03-10.01-.02-3.03.64-6.45 2.95-8.79 1.9-1.93 4.59-2.58 7.11-2.56 6.25.04 12.12 3.21 16.97 6.57 6.02 4.16 11.35 9.22 17.35 13.41 4.85 3.39 10.55 6.46 16.74 6.85 2.37.14 4.88-.17 7.05-1.47a9.75 9.75 0 0 0 4.21-5.67c.81-2.73.71-5.6.28-8.3a34.26 34.26 0 0 0-2.9-9.07c-2.92-6.25-6.91-11.85-10.36-17.79-1.68-2.9-3.33-5.9-4.38-9.15-.9-2.75-1.62-6-.74-8.98 1.82-6.15 9.2-3.84 12.95-2.06a59.95 59.95 0 0 1 7.32 4.26c.5.33.99-.55.49-.88a57.56 57.56 0 0 0-7.72-4.45c-2.28-1.04-4.8-1.95-7.41-1.9-2.2.04-4.42.96-5.7 2.93-1.54 2.33-1.43 5.34-1.02 7.84.54 3.3 1.84 6.35 3.34 9.26a128.3 128.3 0 0 0 5.18 8.89c3.62 5.82 7.58 11.7 9.38 18.5 1.26 4.74 2.06 12.16-3.07 15.55-2.28 1.5-5.08 1.73-7.6 1.44a27.84 27.84 0 0 1-8.66-2.63c-12.64-5.93-21.06-18.25-34.54-22.8C91.63 40 85.2 39 81.18 43.2c-2.1 2.17-2.93 5.2-3.12 8.03-.23 3.4.48 6.75 1.45 9.9a97.9 97.9 0 0 0 3.72 9.7l4.54 10.62 9.19 21.49 4.56 10.67c1.4 3.26 2.89 6.53 3.61 10.06.6 2.9.76 6.87-1.78 9.2-2.03 1.85-4.98 1.76-7.35 1.33a33.8 33.8 0 0 1-8.7-3.1 134.63 134.63 0 0 1-9.27-5.05 163.95 163.95 0 0 1-17.9-12.22 170.61 170.61 0 0 1-23.7-22.56c-2.48-2.86-4.8-5.86-7.37-8.65a36.06 36.06 0 0 0-7.8-6.63c-2.47-1.48-5.39-2.72-8.42-2.62a7.62 7.62 0 0 0-5.6 2.68 9.4 9.4 0 0 0-2.07 5.96c.01 2.44.77 4.82 2.16 6.83.34.5 1.19-.04.85-.54ZM46.83 6.8H6.35v35.94h40.48V6.8Z" fill="#E6E6E6"/><path d="M46.83 71.5H6.35v35.94h40.48V71.5ZM176.9 6.8h-40.48v35.94h40.48V6.8Z" fill="#00BAFC"/><path d="M176.9 71.5h-40.48v35.94h40.48V71.5Z" fill="#E6E6E6"/><path d="M112.32 6.8H71.84v35.94h40.48V6.8ZM112.32 71.5H71.84v35.94h40.48V71.5Z" fill="#00BAFC"/><path d="M71.96 13.51a6.76 6.76 0 1 0 0-13.51 6.76 6.76 0 0 0 0 13.51ZM137.16 13.51a6.76 6.76 0 1 0 0-13.51 6.76 6.76 0 0 0 0 13.51ZM6.76 78.38a6.76 6.76 0 1 0 0-13.52 6.76 6.76 0 0 0 0 13.52ZM71.96 78.38a6.76 6.76 0 1 0 0-13.52 6.76 6.76 0 0 0 0 13.52Z" fill="#3F3D56"/><path d="M229.5 215.25s-9.45.73-8.48 4.12c.97 3.39 8.47 2.9 8.47 2.9s5.81-.48 8.96.49c3.15.96 6.78 0 7.02-1.7.25-1.7-1.7-2.9-1.7-2.9l-1.2-2.43-13.08-.48Z" fill="#2F2E41"/><path d="m204.68 139.58-.97 3.88s-4.36 8.96.97 8.96c5.32 0 3.38-8.24 3.38-8.24l.49-3.87-3.88-.73ZM251.4 136.44l.97 3.87s4.36 8.96-.96 8.96c-5.33 0-3.4-8.24-3.4-8.24l-.48-3.87 3.88-.72ZM226.22 70.57a10.41 10.41 0 1 0 0-20.82 10.41 10.41 0 0 0 0 20.82Z" fill="#9F616A"/><path d="M223.08 68.15s1.2 5.57.48 8.24c-.72 2.66 15.01-.49 15.01-.49s-5.57-9.2-5.32-9.44l-10.17 1.7Z" fill="#9F616A"/><path d="M225.5 74.45s-4.36-1.21-5.81.24c-1.46 1.45-9.93 5.57-9.93 5.57l5.81 35.6 25.18-5.58 4.36-33.65s-6.87-4.03-8.03-3.23c-1.17.8-11.58 1.05-11.58 1.05Z" fill="#D0CDE1"/><path d="m211.7 80.5-1.17-.62s-4.4.86-4.16 4.25c.24 3.4 1.21 22.28 1.21 22.28l-3.87 34.14 7.02 1.21 7.02-28.57-6.05-32.69ZM244.38 77.35l1.17-.62s4.4.87 4.16 4.26c-.24 3.39-1.2 22.27-1.2 22.27l3.87 34.14-7.03 1.21-7.02-28.57 6.05-32.69Z" fill="#D0CDE1"/><path d="m215.81 112.22-.97 14.77-3.14 29.54 4.6 61.26 15.98.49-4.84-58.36 4.84-20.1 15.83-.58s1.12-23.14-7.84-30.4l-24.46 3.38Z" fill="#2F2E41"/><path d="m233.25 136.44-2.55 53.38-.84 27 14.28 1.46 3.6-79.4-5.53-5.6-8.96 3.16ZM230.82 46.36s-9.44-1.2-12.1 3.4c0 0-.73 3.38-3.15 4.6-2.42 1.2.49 5.32 1.21 6.53.73 1.21 2.66 8.23.49 9.93-2.18 1.7 3.87 6.53 3.87 6.53s2.9 3.88.48 6.78c-2.42 2.91 3.15 3.88 3.15 3.88s-1.2 8.23.97 6.05c0 0 .97 18.65 10.17 7.02 9.2-11.62 13.08-17.19 9.2-21.79-3.87-4.6-.97-8.72-.97-8.72s1.21-2.42-1.45-6.05-2.66-18.16-11.87-18.16ZM217.15 216.7s-9.45.73-8.48 4.12c.97 3.39 8.48 2.9 8.48 2.9s5.8-.48 8.95.49c3.15.97 6.78 0 7.03-1.7.24-1.7-1.7-2.9-1.7-2.9l-1.21-2.42-13.07-.49Z" fill="#2F2E41"/></g><defs><clipPath id="a"><path fill="#fff" d="M0 0h300v224.59H0z"/></clipPath></defs></svg>