<svg width="22" height="24" fill="none" xmlns="http://www.w3.org/2000/svg"><g clip-path="url(#a)"><path d="M11 6.61A5.51 5.51 0 0 0 5.36 12 5.51 5.51 0 0 0 11 17.38c3.13 0 5.65-2.4 5.65-5.38A5.51 5.51 0 0 0 11 6.6Zm0 8.89A3.6 3.6 0 0 1 7.34 12 3.6 3.6 0 0 1 11 8.5a3.6 3.6 0 0 1 3.67 3.5A3.6 3.6 0 0 1 11 15.5Zm7.2-9.11c0 .7-.6 1.26-1.32 1.26-.73 0-1.32-.57-1.32-1.26 0-.7.6-1.26 1.32-1.26.72 0 1.31.57 1.31 1.26Zm3.73 1.27c-.08-1.68-.48-3.17-1.78-4.4-1.28-1.23-2.84-1.61-4.6-1.7-1.82-.1-7.27-.1-9.09 0-1.76.09-3.32.47-4.6 1.7C.55 4.49.15 5.98.06 7.66c-.1 1.73-.1 6.93 0 8.67.09 1.68.49 3.17 1.78 4.4 1.3 1.23 2.85 1.61 4.61 1.7 1.82.1 7.27.1 9.08 0 1.77-.08 3.33-.47 4.61-1.7 1.29-1.23 1.7-2.72 1.78-4.4.1-1.74.1-6.93 0-8.67ZM19.58 18.2a3.63 3.63 0 0 1-2.09 2c-1.45.54-4.88.42-6.49.42-1.6 0-5.04.12-6.48-.43a3.63 3.63 0 0 1-2.1-2c-.57-1.38-.44-4.66-.44-6.18 0-1.53-.12-4.82.45-6.2a3.63 3.63 0 0 1 2.09-2c1.45-.54 4.88-.42 6.48-.42 1.6 0 5.05-.12 6.5.43.95.36 1.7 1.07 2.08 2 .58 1.38.45 4.66.45 6.19 0 1.52.13 4.81-.45 6.19Z" fill="#fff"/></g><defs><clipPath id="a"><path fill="#fff" d="M0 0h22v24H0z"/></clipPath></defs></svg>