<svg width="300" height="260" fill="none" xmlns="http://www.w3.org/2000/svg"><g clip-path="url(#a)"><path d="M163.75 72.7a27.62 27.62 0 1 0 0-55.25 27.62 27.62 0 0 0 0 55.24Z" fill="#A0616A"/><path d="M143.13 58.88s5.2 39.24-2.8 43.64c-8 4.4 47.64 4.8 47.64 4.8s-12.4-34.02-6.8-44.43l-38.04-4Z" fill="#A0616A"/><path d="m228.6 107.52-4.62 21.08-9.79 44.58-.29 2.44-3.38 28.27-2.24 18.78-1.51 12.61c-9.16 4.71-15.8 7.96-15.8 7.96s-.57-2.86-1.49-6.53c-6.42 1.93-18.32 5.13-28.4 5.77 3.67 4.09 5.36 7.93 3.07 10.77-6.9 8.55-35.4-9.37-45.38-16.04-.23 1.6-.31 3.21-.26 4.83l-7.63-5.87.76-13.5 1.27-22.84 1.6-28.65c-.5-1.23-.93-2.49-1.26-3.77-2.34-8.3-5.18-24.9-7.35-38.81-1.75-11.2-3.07-20.66-3.34-22.68l-.06-.4 42.23-18.66c3 6.96 17.02 9.06 17.02 9.06 11.61-.8 20.71-6.93 20.71-6.93l46.15 18.53Z" fill="#D0CDE1"/><path d="M194.18 235.23s-1.79.62-4.7 1.48c-6.42 1.93-18.32 5.13-28.4 5.77-8.67.55-16-.78-17.35-6.45-.57-2.43.24-4.43 2.02-6.08 5.3-4.91 19.16-6.68 30.15-7.28 3.1-.17 5.97-.25 8.36-.28 4.05-.05 6.71.03 6.71.03l.07.25 3.14 12.56Z" fill="#A0616A"/><path d="m140.77 18.94-5.16-2.07s10.8-11.89 25.82-10.85l-4.22-4.65s10.32-4.14 19.72 6.72c4.93 5.7 10.64 12.41 14.2 19.97h5.54l-2.31 5.08 8.08 5.08-8.3-.91c.5 2.78.57 5.63.23 8.43a10.9 10.9 0 0 1-4 7.14s-6.4-13.26-6.4-15.33v5.17s-5.17-4.65-5.17-7.75L176 38.59l-1.41-5.7-17.38 5.7 2.82-4.66-10.8 1.55 4.23-5.68s-12.2 6.72-12.68 12.4c-.47 5.69-4.04 11.08-4.04 11.08s-9.57-26.58 4.04-34.34Z" fill="#2F2E41"/><path d="M258.63 204.4c-2.81 3.06-9.78 7.65-18.24 12.62-3.14 1.85-6.49 3.76-9.9 5.65-8.15 4.52-16.68 9-23.72 12.61-9.16 4.71-15.8 7.96-15.8 7.96s-.57-2.86-1.49-6.53c-1.23-4.9-3.08-11.24-5.02-14.04l-.2-.28c-.57-.74-1.13-1.17-1.7-1.17l27.96-17.33 12.08-7.49-8.7-20.78-10.92-26.06 6.6-20.96 6.61-21.08h12.42a815.21 815.21 0 0 0 11.78 27.32c10.82 26.3 24.3 63.01 18.24 69.56Z" fill="#D0CDE1"/><path d="M164.15 253.25c-6.9 8.55-35.4-9.37-45.38-16.04-2.17-1.46-3.46-2.38-3.46-2.38l9.12-12.16 2.9-3.85a200.24 200.24 0 0 0 6.82 3.85c3.3 1.93 7.43 4.46 11.6 7.28 5.76 3.9 11.58 8.34 15.33 12.53 3.67 4.09 5.36 7.93 3.07 10.77Z" fill="#A0616A"/><path d="M133.73 222.42c-1.02 0-2.04.08-3.05.25-8.63 1.48-11.18 9.3-11.9 14.54-.24 1.6-.33 3.21-.27 4.83l-7.63-5.87-2.78-2.14c-6.69-2.33-12.65-6.47-17.82-11.36a89.62 89.62 0 0 1-12-14.23A125.55 125.55 0 0 1 69 192.5a11.7 11.7 0 0 1-.16-9.94l9.45-21.05 13.8-30.78.34-2.14c2.74-15.7 10.08-22.68 10.08-22.68h5.6l3.75 22.68 4.66 28.17-3.26 10.64L105.7 192l7.21 7.83 20.82 22.6Z" fill="#D0CDE1"/><path d="m140.07 156.79 4.79 5.59c1.78-.34 3.64-.74 5.55-1.19l-1.37-4.4 3.36 3.92c20.29-4.99 45.43-14.68 45.43-14.68s-27.15 1.99-47.41-2.44c-8.97-1.96-18.2 2.48-21.87 10.9-2.14 4.88-1.8 9.11 5.78 9.11 2.56-.04 5.12-.28 7.64-.72l-1.9-6.1Z" fill="#00BAFC"/><path d="M249.3 248.66v2.28a5.02 5.02 0 0 1-5.05 5.05H76.51a5.05 5.05 0 0 1-5.05-5.05v-2.28a5.04 5.04 0 0 1 5.05-5.04h9.67v-1.06a.2.2 0 0 1 .2-.22h5.05a.2.2 0 0 1 .15.07.2.2 0 0 1 .06.15v1.06h3.15v-1.06a.2.2 0 0 1 .07-.15.21.21 0 0 1 .14-.06h5.05a.2.2 0 0 1 .15.06.2.2 0 0 1 .04.06l.02.09v1.06h3.16v-1.06l.01-.09a.2.2 0 0 1 .05-.06.2.2 0 0 1 .06-.05.2.2 0 0 1 .08-.02h5.05a.2.2 0 0 1 .15.07.2.2 0 0 1 .05.06l.01.09v1.06h3.15v-1.06c0-.03 0-.06.02-.09a.21.21 0 0 1 .2-.13h5.04a.2.2 0 0 1 .08.02.2.2 0 0 1 .07.05.2.2 0 0 1 .04.06.2.2 0 0 1 .02.09v1.06h3.15v-1.06c0-.03 0-.06.02-.09a.2.2 0 0 1 .04-.06.2.2 0 0 1 .15-.06h5.05a.21.21 0 0 1 .2.13.2.2 0 0 1 0 .07v1.07h3.16v-1.06c0-.03 0-.06.02-.09a.2.2 0 0 1 .04-.06.2.2 0 0 1 .15-.06h5.05a.21.21 0 0 1 .2.13.2.2 0 0 1 0 .07v1.07h3.16v-1.06l.01-.09a.21.21 0 0 1 .2-.13h39.52a.2.2 0 0 1 .14.07.2.2 0 0 1 .07.15v1.06h3.15v-1.06c0-.03 0-.06.02-.09a.21.21 0 0 1 .2-.13h5.04a.21.21 0 0 1 .2.22v1.06h3.16v-1.06c0-.03 0-.06.02-.09a.2.2 0 0 1 .04-.06.2.2 0 0 1 .15-.06h5.04a.2.2 0 0 1 .15.06.2.2 0 0 1 .05.06l.01.09v1.06h3.16v-1.06a.2.2 0 0 1 .06-.15.2.2 0 0 1 .15-.06h5.04a.21.21 0 0 1 .2.13.2.2 0 0 1 .01.07v1.07h3.16v-1.06l.01-.09a.21.21 0 0 1 .2-.13h5.04c.06 0 .11.03.15.07.04.04.06.09.06.15v1.06h3.16v-1.06l.01-.09a.21.21 0 0 1 .2-.13h5.04a.2.2 0 0 1 .15.07.2.2 0 0 1 .06.15v1.06h3.15v-1.06c0-.03 0-.06.02-.09a.2.2 0 0 1 .04-.06.2.2 0 0 1 .07-.05.2.2 0 0 1 .08-.02h5.05a.2.2 0 0 1 .15.07.2.2 0 0 1 .04.06l.02.09v1.06h14.71a5.04 5.04 0 0 1 5.05 5.04Z" fill="#3F3D56"/><path d="M298.07 252.77H22.73v.75h275.34v-.75ZM235.79 152.64h-62.52v-1.3h-28.35v1.3H82.14a4.23 4.23 0 0 0-4.23 4.23v85.61a4.23 4.23 0 0 0 4.23 4.23h153.65a4.23 4.23 0 0 0 4.23-4.23v-85.61a4.22 4.22 0 0 0-4.23-4.23Z" fill="#3F3D56"/><path d="M159.09 191.92a9.4 9.4 0 1 0 0-18.78 9.4 9.4 0 0 0 0 18.78Z" stroke="#D0CDE1" stroke-width="2" stroke-miterlimit="10"/><path d="M156.08 195.3a9.4 9.4 0 1 0 0-18.78 9.4 9.4 0 0 0 0 18.78ZM40.74 248.98H30.22v10.52h10.52v-10.52Z" fill="#D0CDE1"/><path d="M34.35 240.71v12.78h12.77V240.7H34.35Zm12.22 12.22H34.9v-11.66h11.67v11.66Z" fill="#3F3D56"/><path d="M284.15 248.98h-10.51v10.52h10.51v-10.52Z" fill="#D0CDE1"/><path d="M277.77 240.71v12.78h12.77V240.7h-12.77Zm12.22 12.22h-11.67v-11.66H290v11.66Z" fill="#3F3D56"/><path d="M35.53 87.03a29.8 29.8 0 1 0 0-59.6 29.8 29.8 0 0 0 0 59.6Z" fill="#00BAFC"/><path d="M45.91 21.81a31.7 31.7 0 0 0-35.67 31.35 31.64 31.64 0 0 0 38.25 30.91 31.61 31.61 0 0 0-2.58-62.26Zm5.83 60.43a30.39 30.39 0 0 1-9.89 1.63 30.74 30.74 0 0 1-30.68-31.86 30.75 30.75 0 0 1 30.68-29.55 30.7 30.7 0 0 1 9.9 59.78Z" fill="#3F3D56"/><path d="M42.3 24.27h-.9v6.32h.9v-6.32ZM21.73 32.41l-.63.64 4.47 4.47.63-.64-4.47-4.47ZM12.95 52.71v.9h6.32v-.9h-6.32ZM21.1 73.28l.63.64 4.47-4.47-.63-.64-4.47 4.47ZM57.5 36.88l.64.64 4.47-4.47-.64-.64-4.47 4.47ZM64.43 52.71v.9h6.32v-.9h-6.32ZM58.14 68.81l-.64.64 4.47 4.47.64-.64-4.47-4.47ZM42.3 75.74h-.9v6.33h.9v-6.33ZM43.2 51.36a2.26 2.26 0 1 0-2.7 3.61 2.26 2.26 0 0 0 2.7-3.61Zm-1.35 3.16a1.36 1.36 0 0 1-1.11-2.12 1.35 1.35 0 1 1 1.11 2.12ZM45.91 13.88H37.8V22h8.12v-8.13Z" fill="#3F3D56"/><path d="M41.85 15.23c5.99 0 10.84-1.71 10.84-3.83s-4.85-3.84-10.84-3.84c-5.98 0-10.84 1.72-10.84 3.84s4.86 3.83 10.84 3.83ZM43.2 36h-2.7v15.36h2.7V36.01ZM84.9 83.4H0v.9h84.9v-.9Z" fill="#3F3D56"/><path d="M56.57 225.89c.35 12-6.66 16.4-15.46 16.66a31.33 31.33 0 0 1-1.83-.02c-7.96-.32-14.26-4.55-14.58-15.71-.34-11.55 14-26.56 15.07-27.67l.07-.07s16.38 14.8 16.73 26.8Z" fill="#D0CDE1"/><path d="m40.47 240.73 5.6-8.32-5.59 9.21.02.94c-.41 0-.82 0-1.22-.03l.28-12.02v-.11l.03-1.14-6.12-8.89 6.11 8.04.02.24.21-9.08-5.28-9.22 5.3 7.62-.06-18.82v-.06.06l.36 14.83 4.82-6.02-4.8 7.3.1 8.13 4.43-7.93-4.42 9.12.06 4.52 6.45-11.05-6.43 12.63.13 10.05Z" fill="#3F3D56"/><path d="M299.99 225.89c.35 12-6.67 16.4-15.47 16.66a31.4 31.4 0 0 1-1.82-.02c-7.96-.32-14.26-4.55-14.58-15.71-.34-11.55 14-26.56 15.07-27.67l.06-.07s16.39 14.8 16.74 26.8Z" fill="#D0CDE1"/><path d="m283.9 240.73 5.58-8.32-5.58 9.21.01.94c-.4 0-.8 0-1.2-.03l.27-12.02v-.11l.03-1.14-6.12-8.89 6.11 8.04.02.24.21-9.08-5.29-9.22 5.3 7.62-.05-18.82v-.06.06l.36 14.83 4.81-6.02-4.8 7.3.1 8.13 4.44-7.93-4.42 9.12.06 4.52 6.45-11.05-6.43 12.63.13 10.05Z" fill="#3F3D56"/></g><defs><clipPath id="a"><path fill="#fff" transform="translate(0 .6)" d="M0 0h300v258.9H0z"/></clipPath></defs></svg>