<svg width="59" height="20" fill="none" xmlns="http://www.w3.org/2000/svg"><g clip-path="url(#a)"><path d="M0 19.57V.22h6.7C7.54.2 8.37.36 9.15.65c.74.27 1.43.68 2.01 1.21a5.7 5.7 0 0 1 1.87 4.3 5.69 5.69 0 0 1-1.87 4.27c-.58.53-1.27.94-2 1.21-.8.3-1.62.44-2.46.44H3.05v7.48H0Zm6.78-10.4c.47 0 .93-.09 1.36-.26a2.96 2.96 0 0 0 1.62-1.66 2.9 2.9 0 0 0-.62-3.15 3.21 3.21 0 0 0-2.35-.96H3.05v6.03h3.73ZM15.4 6.32v13.25h3V6.32h-3Z" fill="#191919"/><path d="M18.91 2.02a1.98 1.98 0 0 1-.58 1.44 1.9 1.9 0 0 1-1.42.6V0a1.91 1.91 0 0 1 1.42.6 1.98 1.98 0 0 1 .58 1.42Z" fill="#35AF39"/><path d="M16.9 0v4.05a1.94 1.94 0 0 1-1.43-.6 1.97 1.97 0 0 1-.59-1.43A1.98 1.98 0 0 1 15.47.6 1.94 1.94 0 0 1 16.9 0Z" fill="#00BAFC"/><path d="m25 12.84-4.57-6.52h3.49l2.86 4.2h.08l2.68-4.2h3.62l-4.62 6.52 4.7 6.73h-3.56l-2.87-4.33h-.08l-2.84 4.33h-3.54L25 12.84ZM46.84 16.4a6.66 6.66 0 0 1-6.16 3.6 7.02 7.02 0 0 1-2.75-.53 6.5 6.5 0 0 1-3.6-3.7 7.54 7.54 0 0 1-.52-2.82c0-.93.16-1.85.49-2.72a6.5 6.5 0 0 1 6.24-4.34c1.02 0 1.94.17 2.74.52a5.82 5.82 0 0 1 3.33 3.65c.3.9.45 1.87.44 2.83v.24l-.03.25a.9.9 0 0 0-.02.21H36.8c.04.58.2 1.14.46 1.65a3.64 3.64 0 0 0 2.16 1.84c.43.14.88.21 1.33.21.86 0 1.57-.2 2.13-.62a5.15 5.15 0 0 0 1.38-1.54l2.57 1.28Zm-2.79-5.1a3.8 3.8 0 0 0-.25-.9 2.77 2.77 0 0 0-.63-.93 3.6 3.6 0 0 0-2.68-1c-.87 0-1.61.25-2.23.76A3.77 3.77 0 0 0 37 11.3h7.05ZM49.32 6.32h2.84v2h.16a4.34 4.34 0 0 1 1.61-1.72c.35-.2.72-.37 1.11-.5.36-.14.74-.2 1.12-.2a3.58 3.58 0 0 1 1.95.46l-.87 2.72c-.2-.1-.43-.16-.66-.2a4.94 4.94 0 0 0-.88-.07c-.46 0-.92.1-1.34.3a3.46 3.46 0 0 0-1.78 2.04c-.17.48-.26.98-.26 1.5v6.92h-3V6.32Z" fill="#191919"/></g><defs><clipPath id="a"><path fill="#fff" d="M0 0h58.11v20H0z"/></clipPath></defs></svg>