<svg width="178" height="130" fill="none" xmlns="http://www.w3.org/2000/svg"><g clip-path="url(#a)"><path opacity=".1" d="M104.1 17.97c-10.44-.36-20.39-3.73-29.88-7.42-9.5-3.69-18.9-7.77-29.1-9.73C38.59-.43 31.09-.6 25.8 2.9c-5.08 3.39-6.72 9.22-7.6 14.63-.67 4.08-1.06 8.37.76 12.18 1.27 2.65 3.51 4.88 5.06 7.42 5.4 8.83 1.58 19.71-4.26 28.33-2.75 4.04-5.93 7.9-8.05 12.2-2.12 4.3-3.1 9.24-1.24 13.63 1.83 4.35 6.2 7.62 10.95 9.91 9.63 4.67 20.97 6.01 32.03 6.77 24.5 1.67 49.11.95 73.67.22 9.08-.27 18.2-.54 27.15-1.95 4.96-.78 10.09-2.02 13.7-5 4.57-3.8 5.7-10.22 2.63-14.98-5.14-7.98-19.35-9.96-22.95-18.53-1.98-4.71.05-9.97 2.93-14.34 6.17-9.38 16.5-17.61 17.05-28.34.37-7.36-4.6-14.74-12.28-18.22-8.05-3.66-19.22-3.2-25.16 2.85-6.12 6.21-16.88 8.6-26.1 8.29Z" fill="#00BAFC"/><g opacity=".9"><path opacity=".9" d="M115.88 40.13h-.69c-.2 0-.37.16-.37.37v11.04c0 .2.17.37.37.37h.7c.2 0 .36-.17.36-.37V40.5c0-.2-.16-.37-.37-.37ZM67.76 30.9h-.06c-.2 0-.37.17-.37.37v3.14c0 .2.17.37.37.37h.06c.2 0 .37-.17.37-.37v-3.14c0-.2-.16-.37-.37-.37ZM67.84 38h-.17c-.2 0-.37.17-.37.37v6c0 .21.17.38.37.38h.17c.2 0 .37-.17.37-.37v-6.01c0-.2-.17-.37-.37-.37ZM67.8 47.11h-.11c-.2 0-.37.17-.37.37v6.07c0 .2.16.37.37.37h.12c.2 0 .37-.17.37-.37v-6.07c0-.2-.17-.37-.37-.37Z" fill="#3A3768"/><path opacity=".9" d="M109.3 18.09H74.09a6.29 6.29 0 0 0-6.3 6.29v84.58a6.29 6.29 0 0 0 6.3 6.3h35.23a6.29 6.29 0 0 0 6.28-6.3V24.38a6.29 6.29 0 0 0-6.28-6.3Z" fill="#3A3768"/><path opacity=".9" d="M93.13 20.99H87.7a.62.62 0 0 0-.62.62v.1c0 .35.28.63.62.63h5.43c.34 0 .62-.28.62-.62v-.1a.62.62 0 0 0-.62-.63ZM95.53 22.44a.77.77 0 1 0 0-1.54.77.77 0 0 0 0 1.54Z" fill="#E6E8EC"/></g><path opacity=".1" d="M38.97 120.77c17.81 0 32.25-1.47 32.25-3.28 0-1.82-14.44-3.3-32.25-3.3-17.82 0-32.26 1.48-32.26 3.3 0 1.81 14.44 3.28 32.26 3.28ZM110.69 130c8.34 0 15.1-.69 15.1-1.54 0-.85-6.76-1.54-15.1-1.54-8.35 0-15.11.69-15.11 1.54 0 .85 6.76 1.54 15.1 1.54ZM162.32 122.24c8.34 0 15.1-.7 15.1-1.54 0-.85-6.76-1.54-15.1-1.54-8.35 0-15.11.69-15.11 1.54 0 .85 6.76 1.54 15.1 1.54Z" fill="#00BAFC"/><path d="M108.84 20.62h-5.47v.66a3.13 3.13 0 0 1-3.12 3.12H82.8a3.13 3.13 0 0 1-3.13-3.12v-.66h-5.14a3.8 3.8 0 0 0-3.79 3.8v84.5a3.8 3.8 0 0 0 3.8 3.8h34.3a3.8 3.8 0 0 0 3.8-3.8v-84.5a3.8 3.8 0 0 0-3.8-3.8ZM132.15 13.82s-13.59-.81-11.98 8.7c0 0-.33 1.68 1.2 2.45 0 0 .03-.7 1.4-.47.48.08.98.1 1.47.07.67-.04 1.3-.3 1.8-.74 0 0 3.82-1.58 5.3-7.82 0 0 1.1-1.36 1.06-1.71l-2.29.98s.78 1.65.16 3.03c0 0-.07-2.97-.51-2.9-.1 0-1.2.57-1.2.57s1.35 2.88.33 4.97c0 0 .38-3.55-.75-4.77l-1.62.95s1.58 2.97.51 5.4c0 0 .27-3.72-.85-5.17l-1.46 1.14s1.48 2.93.58 4.94c0 0-.12-4.33-.9-4.66 0 0-1.28 1.13-1.47 1.59 0 0 1.01 2.13.39 3.25 0 0-.39-2.89-.7-2.9 0 0-1.28 1.91-1.41 3.22 0 0 .05-1.95 1.1-3.4 0 0-1.24.2-1.96 1 0 0 .2-1.34 2.26-1.46 0 0 1.06-1.46 1.34-1.54 0 0-2.06-.17-3.3.38 0 0 1.1-1.28 3.67-.7l1.45-1.18s-2.7-.37-3.86.04c0 0 1.33-1.13 4.25-.3l1.57-.94s-2.3-.5-3.69-.32c0 0 1.46-.79 4.15.06l1.13-.5s-1.7-.34-2.19-.39c-.5-.05-.52-.19-.52-.19a5.86 5.86 0 0 1 3.2.37s2.38-.9 2.34-1.05ZM118.22 9.6s-6.13-.38-5.42 3.92c0 0-.14.76.55 1.1 0 0 0-.31.63-.2.22.03.44.04.66.03.3-.02.6-.14.82-.34 0 0 1.72-.71 2.4-3.53 0 0 .5-.61.48-.77l-1.04.44s.36.75.08 1.37c0 0-.03-1.34-.23-1.31-.05 0-.54.26-.54.26s.6 1.3.15 2.24c0 0 .17-1.6-.34-2.15l-.73.43s.7 1.34.23 2.44c0 0 .12-1.68-.39-2.34l-.66.52s.67 1.32.27 2.23c0 0-.06-1.96-.4-2.1 0 0-.59.5-.67.71 0 0 .45.97.17 1.47 0 0-.18-1.3-.32-1.3 0 0-.58.86-.64 1.44.03-.54.2-1.07.5-1.54-.34.07-.64.23-.89.46 0 0 .1-.61 1.03-.66 0 0 .47-.66.6-.7 0 0-.93-.08-1.5.17 0 0 .5-.57 1.67-.32l.65-.53s-1.23-.16-1.75.02c0 0 .6-.51 1.92-.14l.71-.43s-1.04-.22-1.66-.14c0 0 .65-.35 1.87.03l.5-.23s-.76-.15-.98-.17c-.22-.03-.23-.09-.23-.09.48-.08.98-.02 1.43.16 0 0 1.08-.39 1.07-.46ZM7.06 110.55c3.58 0 6.48-.5 6.48-1.1 0-.6-2.9-1.1-6.48-1.1-3.58 0-6.49.5-6.49 1.1 0 .6 2.9 1.1 6.49 1.1Z" fill="#00BAFC"/><path d="M9.74 107.66c.3-.24.51-.57.62-.94.08-.37-.08-.8-.43-.95-.4-.15-.82.13-1.15.4-.32.28-.69.6-1.1.54a1.7 1.7 0 0 0 .51-1.58.65.65 0 0 0-.14-.33c-.22-.23-.62-.13-.89.06-.84.59-1.07 1.72-1.07 2.75-.09-.37-.02-.76-.02-1.13 0-.37-.1-.8-.43-1a1.3 1.3 0 0 0-.64-.16c-.38 0-.8.03-1.06.3-.32.35-.23.92.05 1.3.27.37.7.6 1.09.87.3.18.58.44.78.74a.7.7 0 0 1 .05.14h2.37c.53-.27 1.02-.61 1.46-1.01ZM134.54 94.12s1.4 1.83-.64 4.58c-2.05 2.75-3.73 5.08-3.05 6.8 0 0 3.08-5.12 5.59-5.19 2.5-.07.85-3.11-1.9-6.19Z" fill="#00BAFC"/><path opacity=".1" d="M134.54 94.12c.12.18.22.37.29.57 2.44 2.87 3.74 5.55 1.4 5.62-2.2.06-4.82 3.98-5.45 4.96l.07.23s3.08-5.12 5.59-5.19c2.5-.07.85-3.11-1.9-6.19Z" fill="#000"/><path d="M137.13 96.45c0 .65-.07 1.16-.16 1.16s-.16-.52-.16-1.16c0-.64.1-.34.18-.34.09 0 .14-.3.14.34Z" fill="#FFD037"/><path d="M138.02 97.21c-.56.31-1.05.5-1.1.42-.04-.08.39-.4.95-.7.57-.3.34-.08.38 0 .05.08.34-.02-.23.28Z" fill="#FFD037"/><path d="M127.17 94.12s-1.4 1.83.64 4.58 3.72 5.08 3.05 6.8c0 0-3.08-5.12-5.59-5.19-2.5-.07-.86-3.11 1.9-6.19Z" fill="#00BAFC"/><path opacity=".1" d="M127.17 94.12c-.12.18-.22.37-.29.57-2.44 2.87-3.74 5.55-1.4 5.62 2.2.06 4.82 3.98 5.45 4.96l-.08.23s-3.07-5.12-5.58-5.19c-2.5-.07-.86-3.11 1.9-6.19Z" fill="#000"/><path d="M124.57 96.45c0 .65.08 1.16.17 1.16.08 0 .16-.52.16-1.16 0-.64-.1-.34-.18-.34-.1 0-.15-.3-.15.34Z" fill="#FFD037"/><path d="M123.68 97.21c.56.31 1.05.5 1.1.42.04-.08-.38-.4-.95-.7-.56-.3-.34-.08-.38 0-.04.08-.33-.02.23.28Z" fill="#FFD037"/><path d="M125.02 105.26s3.9-.12 5.08-.96c1.17-.83 6-1.83 6.29-.5.29 1.35 5.86 6.69 1.45 6.72-4.41.04-10.24-.68-11.41-1.4-1.17-.71-1.41-3.86-1.41-3.86Z" fill="#A8A8A8"/><path opacity=".2" d="M137.93 110.06c-4.4.03-10.24-.7-11.41-1.4-.9-.55-1.25-2.5-1.37-3.4h-.13s.25 3.14 1.42 3.86c1.17.71 7 1.43 11.4 1.4 1.28-.01 1.72-.46 1.7-1.13-.18.4-.67.66-1.61.67Z" fill="#000"/><path opacity=".3" d="M107.44 78.7H94.86v12.58h12.58V78.69ZM88.9 62.08H76.3v12.58h12.6V62.08ZM90.1 95.02H77.52v12.59H90.1V95.02Z" fill="#3A3768"/><path d="M87.3 31.18H74.7v12.58h12.6V31.18ZM104.92 74.15l-9.34 8.45 8.45 9.33 9.33-8.44-8.44-9.34ZM107.23 46.34H94.65v12.59h12.58V46.34ZM91.32 60.37H78.74v12.6h12.58v-12.6Z" fill="#fff"/><path d="M157.33 118.16c.73.1 1.49.17 2.19-.07.1-.03.23-.1.22-.22a6.86 6.86 0 0 1-.76-1.43.1.1 0 0 0-.07 0c-.32.09-.6.3-.92.39-.17.04-.34.06-.5.04-.15-.02-.35-.14-.48-.13.08.48.26.94.32 1.42ZM171.19 116.94c.48-.33.98-.68 1.27-1.2a.19.19 0 0 0 .03-.1 4.14 4.14 0 0 0-1.07-1.21c-.21.15-.4.33-.58.53-.12.13-.45.34-.46.53 0 .11.13.24.2.32l.22.36c.04.08.42.75.39.77Z" fill="#00BAFC"/><path d="M160.2 119.64a.49.49 0 0 1-.09.33.43.43 0 0 1-.19.1c-1.02.37-2.2-.09-3.22.28-.21.07-.41.18-.62.25-.25.07-.51.12-.77.14-.36.03-.73.05-1.09.06-.28.02-.55 0-.82-.07a.99.99 0 0 1-.63-.5.49.49 0 0 1-.03-.35.4.4 0 0 1 .07-.12 1 1 0 0 1 .24-.2l.38-.24c.17-.12.36-.22.57-.3.15-.05.3-.07.46-.11.53-.16.93-.58 1.3-.98l.52-.55c.05-.06.1-.1.18-.14a.5.5 0 0 1 .22-.02c.5.03.97.2 1.4.47.1.08.22.14.34.2a1.22 1.22 0 0 0 .97-.12c.13-.07.1-.11.16-.24.06-.12.19-.2.3-.09.04.04.06.1.08.14.11.37.07.76.07 1.14 0 .06 0 .12.02.18l.1.16.02.04c.06.18.08.36.06.55Z" fill="#514E7F"/><path d="M160.2 119.64a.49.49 0 0 1-.09.33.43.43 0 0 1-.19.1c-1.02.37-2.2-.09-3.22.28-.21.07-.41.18-.62.25-.25.07-.51.12-.77.14-.36.03-.73.05-1.09.06-.28.02-.55 0-.82-.07a.99.99 0 0 1-.63-.5.49.49 0 0 1-.03-.35.4.4 0 0 1 .07-.12c.06.13.1.3.14.35a.72.72 0 0 0 .48.35c.15 0 .3-.01.44-.06.93-.23 1.92-.23 2.8-.58.3-.14.61-.26.93-.35.33-.05.66-.08.99-.08.52-.05 1.03-.2 1.55-.29.06.18.08.36.06.55Z" fill="#464353"/><path d="M173.53 116.87c-.05.4-.3.73-.57 1.01a6.5 6.5 0 0 0-.79.87c-.26.4-.38.9-.73 1.25a3.05 3.05 0 0 1-1 .58 4.36 4.36 0 0 1-2.13 0 1.47 1.47 0 0 1-.22-.14c-.13-.08-.24-.2-.32-.33a.34.34 0 0 1-.03-.24c.03-.1.09-.18.16-.24.12-.12.25-.24.4-.35.18-.12.35-.27.5-.44.09-.14.15-.29.2-.45.07-.28.12-.56.13-.84 0-.2.03-.38.06-.57.09-.3.3-.56.28-.86V116a.2.2 0 0 1 .11-.06c.17-.07.35-.1.53-.12a.6.6 0 0 1 .48.2c.08.08.13.2.24.25h.16c.27-.03.56-.06.77-.24a.98.98 0 0 0 .32-.7c0-.1-.05-.2.1-.23.13-.02.22.1.28.19.23.27.41.6.52.94a.25.25 0 0 1 .1-.02.42.42 0 0 1 .35.18c.09.15.13.32.1.5Z" fill="#514E7F"/><path d="M173.53 116.87c-.05.4-.3.73-.57 1.01a6.5 6.5 0 0 0-.79.87c-.26.4-.38.9-.73 1.25a3.05 3.05 0 0 1-1 .58 4.36 4.36 0 0 1-2.13 0 1.47 1.47 0 0 1-.22-.14c-.13-.08-.24-.2-.32-.33.1-.05.22-.08.33-.08.25.01.42.24.65.3.32.1.65-.13.98-.2.22-.05.45-.04.66-.1.18-.08.34-.18.48-.3.2-.14.37-.31.52-.5.12-.2.23-.4.3-.6a8.48 8.48 0 0 1 .75-1.35l.16-.12c.22-.16.31-.45.39-.71l.08-.24c.07 0 .14.02.2.05.06.03.12.08.16.13.09.14.12.32.1.48Z" fill="#464353"/><path d="M150.36 82.42c.27.2.5.47.65.77.17.3 1.05 2.66 1 3 .3-.3 1.44-.35 1.73-.64.12-.12.79-.74.88-.88.1-.14.84-.44.92-.59.3-.54-2.14-2.58-1.82-3.12a.13.13 0 0 0 .02-.09.14.14 0 0 0-.04-.06 3.88 3.88 0 0 0-.7-.48 1.12 1.12 0 0 1-.54-.65c-.23.1-.45.25-.63.42-.45.38-.89.78-1.32 1.18-.17.16-.5.36-.57.59-.08.22.25.42.42.55Z" fill="#A1616A"/><path d="M154.3 81.55c-.37.25-.72.54-1.04.85-.3.3-.59.65-.66 1.07-.03.16-.03.33-.06.5-.1.72-.73 1.25-1 1.93-.09.21-.15.43-.18.65a7.5 7.5 0 0 0-.13 1.27c0 .41.4.7.55 1.08.12.38.2.77.26 1.17.16.75.38 1.47.66 2.18.54 1.5 2.3 5.67 2.85 7.17 1.67-.42 6.12-1.38 7.6-2.26.49-.29-3.42-3.6-2.9-3.83a.27.27 0 0 0 .15-.12.26.26 0 0 0 0-.16c-.53-2.3-2.18-4.19-2.92-6.45-.26-.78-.73-1.44-1.08-2.18-.33-.67-.5-1.42-.88-2.05a1.36 1.36 0 0 0-.28-.35 1.7 1.7 0 0 0-.3-.19c-.22-.11-.42-.17-.63-.28Z" fill="#514E7F"/><path d="M150.45 82.16a2.61 2.61 0 1 0 0-5.23 2.61 2.61 0 0 0 0 5.23Z" fill="#A1616A"/><path d="M153.1 80.77a.88.88 0 0 1 .99-.14.48.48 0 0 1 .29.47l1.29.02c.2 0 .41.01.61.06.2.04.39.16.52.32.01.02.03.04.06.05a.1.1 0 0 0 .05-.02c.2-.1.43-.14.65-.12.7.05 1.35.4 1.9.84.1.06.18.16.22.27.05.15 0 .34.11.44 0 1.22.42 2.35.7 3.54.04.2.25.4.39.56.17.18.31.4.42.62.23.62-.1 1.34.14 1.96.12.25.27.49.44.7.21.26.34.57.38.9v.45c.02.2.05.4.1.59l.3 1.07c.17.57.4 1.2.9 1.5-1.24.21-2.55.41-3.73-.02a1.93 1.93 0 0 1-.47-.23c-.43-.3-.63-.83-.82-1.32-.2-.55-.41-1.11-.45-1.7 0-.2-.03-.38-.08-.56-.12-.32-.44-.51-.73-.7a3.53 3.53 0 0 1-.89-.68 1.36 1.36 0 0 1-.35-1.03c.02-.18.09-.36.1-.54a.44.44 0 0 0-.25-.45c-.91-.27-1.34-1.34-1.54-2.27a7.28 7.28 0 0 1-.12-1.45l-.01-.93a1.24 1.24 0 0 1-.4-.9v-.3a.83.83 0 0 0-.21-.32c-.2-.2-.38-.43-.5-.68ZM150.32 83.76c-.03.3.04.59-.03.88l-.1.32c-.1.41-.06.84.12 1.23.18.38.39.74.63 1.09.08.11.15.24.2.37.04.14.07.29.08.43.06.59.16 1.17.3 1.74.13.5.29 1 .61 1.39.06.08.15.15.26.17.07 0 .14-.01.21-.05l.67-.25a.47.47 0 0 0 .16-.08.4.4 0 0 0 .1-.26 3.84 3.84 0 0 0-.3-1.59c-.54-1.54-1.26-3.02-1.61-4.61-.1-.44-.15-1.13-.48-1.48-.13-.14-.09-.08-.25 0l-.23.13a.77.77 0 0 0-.34.57Z" fill="#464353"/><path d="m152.33 86.68.55 2.82 2.59-.68c.02-.27-.12-.53-.22-.78-.24-.6-.25-1.25-.44-1.86-.14-.47-.4-.9-.53-1.36-.08-.27-.12-.56-.2-.83a6.35 6.35 0 0 0-.3-.79 5.09 5.09 0 0 0-.57-1.05c-.33.13-.68.27-.87.57-.1.17-.15.36-.16.56-.05.58.16 1.17.1 1.74-.08.55-.06 1.11.05 1.66Z" fill="#00BAFC"/><path d="M155.51 99.2c.15.55-.06 1.12-.23 1.67a13 13 0 0 0-.53 2.53c-.01.23-.06.44-.13.65-.1.18-.2.35-.32.52a2.6 2.6 0 0 0-.2 1.55c.04.35.1.7.16 1.04.1.42.2.86.07 1.26.2-.04.35.22.34.43 0 .22-.08.44.02.63.25.09.26.44.25.7a6 6 0 0 0 .17 1.4c.39 1.85.8 3.7 1.23 5.53.93.3 2.02.6 2.91.2a.58.58 0 0 0 .37-.38c.01-.1 0-.2-.03-.28l-.42-1.54a2.81 2.81 0 0 1-.16-1.13c.05-.28.17-.59.03-.84-.05-.09-.12-.16-.18-.24-.22-.32-.1-.75-.09-1.15a.9.9 0 0 0-.01-.26c-.03-.1-.08-.2-.13-.29a4.41 4.41 0 0 1-.48-2.2c.01-.09 0-.19-.04-.28a.66.66 0 0 1-.07-.11.32.32 0 0 1 .02-.22c-.13-.09-.24-.2-.34-.32a.48.48 0 0 0 .08-.74.24.24 0 0 0 .2-.18.24.24 0 0 0 0-.14.25.25 0 0 0-.08-.11c-.05-.04-.13-.06-.16-.11-.06-.08-.01-.2.04-.28l.25-.47c.2-.34.24-.77.45-1.1.28-.5.5-1.02.68-1.56l.73-2.05.5.43c.17.13.3.29.41.47a2 2 0 0 1 .14.56c.18 1.12.88 2.08 1.14 3.18.04.25.12.49.24.71.05.06.1.13.13.2.04.11.06.23.06.34a1.55 1.55 0 0 0 .66 1.13c.25.16.56.29.69.55.03.08.06.16.11.24.12.14.38.16.43.34.03.1-.03.22.03.3.03.05.07.08.12.1l.72.36c.81.4 1.22 1.32 1.81 2 .2.22.39.46.54.71.26.46.38 1.04.8 1.33.12.06.23.14.32.24.14.17.09.43.1.65.01.23.18.5.4.43-.08.27-.08.56 0 .83a4.2 4.2 0 0 0 2.55-1.03c.2-.18.41-.42.41-.7 0-.04 0-.1-.03-.13a.38.38 0 0 0-.16-.13c-.67-.36-.88-1.2-1.21-1.9-.3-.6-.74-1.12-1.11-1.68-.8-1.21-1.35-2.68-2.56-3.48-.27-.17-.58-.33-.7-.62-.06-.17-.11-.34-.15-.52a.44.44 0 0 0-.14-.22.44.44 0 0 0-.24-.1c.08-.26.1-.53.09-.8a1 1 0 0 0-.04-.35 1.7 1.7 0 0 0-.18-.34 3.31 3.31 0 0 1-.45-1.78c0-.32.06-.64-.04-.95-.04-.16-.13-.3-.19-.45a2.8 2.8 0 0 1-.14-.83l-.06-1.06c-.01-.35-.06-.7-.14-1.05-.22-.82-.44-4.28-1.2-4.67-.76-.38-2.05 2.27-2.9 2.32-.38.02-.75.1-1.11.22-.57.21-1.04.6-1.5 1l-1.57 1.31c-.3.27-.63.5-.98.7ZM148 76.64a1.98 1.98 0 0 1 1.51-.74c.59 0 1.17.14 1.68.42.16.09.32.16.49.2.28.06.58-.02.83.12.33.17.4.62.37 1-.03.37-.1.78.1 1.1l.19.29c.06.2.06.41-.02.61a4.96 4.96 0 0 1-.32-.4c-.12-.13-.32-.22-.46-.12s-.14.27-.15.42c0 .16-.04.35-.2.4a.32.32 0 0 1-.31-.13c-.26-.3-.16-.8-.4-1.11-.15-.18-.39-.27-.52-.45-.1-.15-.13-.34-.22-.49-.09-.15-.3-.27-.44-.16a.6.6 0 0 0-.12.16.68.68 0 0 1-.8.25 1.42 1.42 0 0 0-.36-.15.43.43 0 0 0-.4.21.86.86 0 0 0-.1.46c0 .22.04.46-.09.64a.65.65 0 0 1-.18.16c-.19.12-.44.2-.62.06a.47.47 0 0 1-.13-.43c.03-.15.07-.3.13-.45.1-.34-.03-.73.07-1.05.12-.3.27-.57.46-.82Z" fill="#464353"/><path d="M149.4 84.44a.4.4 0 0 0 .02.24c.03.05.08.1.13.12.37.23.8.37 1.23.4.06 0 .11.02.16.05a.3.3 0 0 1 .07.34.92.92 0 0 0-.07.36c.03.23.3.34.53.37.33.06.66 0 .94-.18.17-.16.3-.36.38-.58.64-1.45.86-3.07 1.5-4.52.05-.1.08-.2.1-.3a.3.3 0 0 0-.12-.28c-.12-.07-.3-.03-.39-.15-.04-.06-.03-.13-.07-.2-.07-.13-.27-.11-.4-.18-.1-.06-.17-.16-.29-.2a.37.37 0 0 0-.3.14c-.38.35-.58.85-.79 1.32-.32.72-.7 1.41-1.13 2.08.05-.08-.24-.67-.35-.69-.2-.04-.45.3-.56.44-.33.4-.53.9-.6 1.42Z" fill="#00BAFC"/><path d="M163.3 86.5H150.7V99.1h12.59V86.5Z" fill="#fff"/><path d="M163.2 93.43c-.22.2-.42.4-.6.63-.18.23-.28.51-.28.8 0 .1.03.17.08.24a.2.2 0 0 0 .22.07 5.01 5.01 0 0 1 .48-.5c.06-.05.12-.1.18-.08l.08.05c.07.06.13.15.16.24a.58.58 0 0 1-.17.47c-.13.12-.23.27-.3.43a.18.18 0 0 0 0 .14c.03.03.06.06.1.07a1.24 1.24 0 0 0 1.04.07c.22-.09.42-.24.64-.32l.29-.1a.6.6 0 0 0 .25-.39 5.31 5.31 0 0 0-.43-2.32.22.22 0 0 0-.1-.02c-.29-.03-.75-.18-1.03-.07a.7.7 0 0 0-.24.21c-.06.06-.37.31-.37.38Z" fill="#A1616A"/><path d="M163.1 93.18c0-.27-.34-.92.2-.96 0-.3-.41-.47-.34-.77.03-.1.1-.19.12-.3.04-.29-.5-.45-.41-.73.03-.11.15-.18.18-.29.06-.25-.4-.37-.4-.63 0-.09.04-.17.04-.26 0-.1-.1-.2-.15-.29-.14-.24-.07-.63-.33-.75.17.01.23-.24.16-.39-.07-.15-.21-.28-.21-.45v-.18c-.05-.16-.31-.18-.36-.34v-.18c-.01-.12-.14-.2-.26-.24a1.06 1.06 0 0 1-.36-.12c-.08-.06-.16-.17-.25-.11l-.07.08c-.1.12-.29.07-.41-.02-.37-.25-.55-.7-.63-1.14-.09-.44-.08-.9-.18-1.33a3.04 3.04 0 0 0-.12-.4 2.07 2.07 0 0 1-.18-.39c-.02-.25.5-.08.7-.05.2.01.4.05.58.1.2.08.4.16.58.26.81.35 1.77.4 2.4.99.22.2.4.45.67.54.12.02.25.05.37.1.3.14.35.54.52.83.05.08.1.16.13.24.04.1.05.2.05.31l.02.77c.04 1.29.08 2.57-.06 3.84-.05.42-.1.86.01 1.26l.11.32c.03.14.04.27.04.4l.02.5c0 .04 0 .08-.02.11a.16.16 0 0 1-.14.04c-.69-.07-1.39-.46-2.04-.22" fill="#464353"/><path d="M150.24 91.16a.22.22 0 0 0-.08.07.55.55 0 0 0 0 .65l.04.07c0 .03 0 .07-.02.1a.36.36 0 0 0 .05.41c.05.05.12.07.15.12.06.1-.02.21-.01.32.02.15.19.22.32.24a.34.34 0 0 0 .32-.09.26.26 0 0 0 0-.28.76.76 0 0 0-.22-.22.32.32 0 0 0 .3-.3.46.46 0 0 0-.18-.4c-.02-.02-.06-.04-.07-.08 0-.04.03-.1.07-.13.16-.16.28-.56-.02-.64a.75.75 0 0 0-.32.01c-.08.02-.08.07-.14.1-.06.04-.13.02-.2.05Z" fill="#A1616A"/><path opacity=".1" d="M153.4 80.02a.53.53 0 0 0-.4.2c-.1.17-.16.36-.17.56a4.8 4.8 0 0 1-.65 1.75M153.97 80.46a.62.62 0 0 0-.53.33c-.08.17-.12.36-.14.54-.1.42-.28.81-.54 1.15" fill="#000"/><path d="M49.91 90.74c.1 1.02-.67 2-.45 3 .05.22.14.42.17.63.1.6-.26 1.16-.6 1.65l-2.89 4.25c-.12.19-.25.36-.41.51-.56.48-1.39.44-2.11.59-.51.1-1 .32-1.42.62a.1.1 0 0 0-.02.13 1.22 1.22 0 0 0 1.06.5c.07.1 0 .24-.1.32-.17.1-.38.13-.41.4-.01.09 0 .18.05.26.12.18.3.3.51.35 1 .31 2.09-.23 2.83-.96.75-.74 1.3-1.66 2.03-2.4.4-.42.87-.77 1.3-1.17.83-.8 1.48-1.78 2.1-2.75.21-.28.37-.6.47-.93.07-.33.04-.68.13-1 .11-.44.43-.78.7-1.14.5-.7.85-1.57.78-2.44-.07-.87-.6-1.73-1.43-2.03-.25-.1-.54-.12-.8-.05-.34.1-.59.38-.82.65l-.55.63c-.14.14-.25.3-.32.49a.5.5 0 0 0 .11.54" fill="#FBBEBE"/><path opacity=".05" d="M49.91 90.74c.1 1.02-.67 2-.45 3 .05.22.14.42.17.63.1.6-.26 1.16-.6 1.65l-2.89 4.25c-.12.19-.25.36-.41.51-.56.48-1.39.44-2.11.59-.51.1-1 .32-1.42.62a.1.1 0 0 0-.02.13 1.22 1.22 0 0 0 1.06.5c.07.1 0 .24-.1.32-.17.1-.38.13-.41.4-.01.09 0 .18.05.26.12.18.3.3.51.35 1 .31 2.09-.23 2.83-.96.75-.74 1.3-1.66 2.03-2.4.4-.42.87-.77 1.3-1.17.83-.8 1.48-1.78 2.1-2.75.21-.28.37-.6.47-.93.07-.33.04-.68.13-1 .11-.44.43-.78.7-1.14.5-.7.85-1.57.78-2.44-.07-.87-.6-1.73-1.43-2.03-.25-.1-.54-.12-.8-.05-.34.1-.59.38-.82.65l-.55.63c-.14.14-.25.3-.32.49a.5.5 0 0 0 .11.54" fill="#000"/><path d="M27.87 95.07a12.83 12.83 0 0 0 1.86 3.96c.34.5.71.99 1.1 1.45.5.59 1.05 1.17 1.22 1.92.1.42.07.88.11 1.31.05.44.19.9.54 1.17a2 2 0 0 0 .9.3c.22.03.5.04.61-.15a.55.55 0 0 0 .06-.26l.06-.64c.01-.14.06-.32.2-.32s.2.17.32.26a.36.36 0 0 0 .28.02.35.35 0 0 0 .2-.19.8.8 0 0 0 .02-.56 2.67 2.67 0 0 0-1.38-1.7c-.23-.1-.46-.22-.67-.35-.22-.2-.4-.42-.53-.67a41.7 41.7 0 0 1-3.3-6.21 4.6 4.6 0 0 1-.34-1.22c-.02-.44 0-.87.05-1.3a7.38 7.38 0 0 0-.21-2.3c-.05-.2-.12-.38-.23-.56-.35-.54-1.18-.62-1.7-.24a1.77 1.77 0 0 0-.69 1.24c-.04.43.21.89.34 1.3l1.18 3.74Z" fill="#A1616A"/><path opacity=".05" d="M27.87 95.07a12.83 12.83 0 0 0 1.86 3.96c.34.5.71.99 1.1 1.45.5.59 1.05 1.17 1.22 1.92.1.42.07.88.11 1.31.05.44.19.9.54 1.17a2 2 0 0 0 .9.3c.22.03.5.04.61-.15a.55.55 0 0 0 .06-.26l.06-.64c.01-.14.06-.32.2-.32s.2.17.32.26a.36.36 0 0 0 .28.02.35.35 0 0 0 .2-.19.8.8 0 0 0 .02-.56 2.67 2.67 0 0 0-1.38-1.7c-.23-.1-.46-.22-.67-.35-.22-.2-.4-.42-.53-.67a41.7 41.7 0 0 1-3.3-6.21 4.6 4.6 0 0 1-.34-1.22c-.02-.44 0-.87.05-1.3a7.38 7.38 0 0 0-.21-2.3c-.05-.2-.12-.38-.23-.56-.35-.54-1.18-.62-1.7-.24a1.77 1.77 0 0 0-.69 1.24c-.04.43.21.89.34 1.3l1.18 3.74Z" fill="#000"/><path d="M52.35 114.22c-.64.39-1.42.41-2.16.33-.12-.02-.26-.03-.33.06-.11.14.02.33.15.44.43.32.94.53 1.48.6a24.42 24.42 0 0 0 5.4-.05c.08 0 .16-.02.23-.05a.41.41 0 0 0 .16-.25.99.99 0 0 0-.35-.95 2.92 2.92 0 0 0-.92-.5l-1.15-.44c-.27-.1-.7-.38-1-.36-.54.04-1.06.9-1.51 1.17Z" fill="#3F3D56"/><path d="M55.23 116.92c-.53.48-1.22.73-1.93.72-.18 0-.43.03-.43.22 0 .05.02.1.05.15.23.37.58.65 1 .78.4.09.8.12 1.2.07l1.18-.06c.22-.01.45-.02.67-.05l.69-.1a9.27 9.27 0 0 1 1.94-.1.51.51 0 0 0 .2-.1c.1-.13.04-.32 0-.48-.06-.34 0-.7-.06-1.05-.11-.6-.63-1.06-1.2-1.28-.53-.2-1.47-.43-1.97-.1-.54.36-.86.95-1.34 1.38Z" fill="#3F3D56"/><path d="M52.9 101.69c-.48.63-.96 1.37-.85 2.16.06.42.3.8.48 1.19.21.54.38 1.1.48 1.67.18.84.36 1.67.47 2.52.12.95.16 1.92.1 2.88-.01.24-.04.49-.2.65-.06.06-.15.12-.17.2-.02.09 0 .17.03.25.3.6.81 1.07 1.44 1.32a5.5 5.5 0 0 0 1.95.36c.09.01.18 0 .26-.03a.5.5 0 0 0 .2-.23c.49-.92.22-2.03.23-3.07 0-.86.2-1.72.17-2.59-.03-.7-.22-1.37-.28-2.06-.12-1.13.1-2.27.3-3.4.16-.86.32-1.71.52-2.56.1-.53.3-1.03.56-1.5.22-.35.53-.65.79-.98a4.5 4.5 0 0 0 .88-3.3c-.01-.1-1.66.43-1.8.5-.6.24-1.14.6-1.61 1.03-.38.36-.68.84-1.02 1.25a104 104 0 0 0-2.92 3.74Z" fill="#464353"/><path opacity=".05" d="M52.9 101.69c-.48.63-.96 1.37-.85 2.16.06.42.3.8.48 1.19.21.54.38 1.1.48 1.67.18.84.36 1.67.47 2.52.12.95.16 1.92.1 2.88-.01.24-.04.49-.2.65-.06.06-.15.12-.17.2-.02.09 0 .17.03.25.3.6.81 1.07 1.44 1.32a5.5 5.5 0 0 0 1.95.36c.09.01.18 0 .26-.03a.5.5 0 0 0 .2-.23c.49-.92.22-2.03.23-3.07 0-.86.2-1.72.17-2.59-.03-.7-.22-1.37-.28-2.06-.12-1.13.1-2.27.3-3.4.16-.86.32-1.71.52-2.56.1-.53.3-1.03.56-1.5.22-.35.53-.65.79-.98a4.5 4.5 0 0 0 .88-3.3c-.01-.1-1.66.43-1.8.5-.6.24-1.14.6-1.61 1.03-.38.36-.68.84-1.02 1.25a104 104 0 0 0-2.92 3.74Z" fill="#000"/><path d="M56.4 96.79c.1.49.58.87.6 1.37 0 .4-.28.74-.49 1.1-.2.35-.36.72-.5 1.11-.39 1-.87 1.97-1.45 2.88-.27.44-.58.92-.52 1.43.05.24.13.47.25.68l.83 1.65c.18.33.33.68.43 1.04.07.31.07.65.12.96.13 1 .6 2.02.32 3-.03.08-.11.19-.18.13.27.5.5 1.03.47 1.61 0 .3-.1.62.01.9.07.11.1.23.13.35 0 .08-.04.16-.05.25-.02.23.2.42.41.5.23.07.47.07.7.13.43.13.73.5 1.1.76.38.26.82.4 1.28.41.06.01.13 0 .18-.03a.3.3 0 0 0 .1-.23 1.26 1.26 0 0 0-.45-1.1.5.5 0 0 1-.16-.18.43.43 0 0 1-.02-.2c.07-.9.05-1.81-.04-2.71a4.2 4.2 0 0 1-.05-.87c.05-.23.07-.48.07-.72a3.7 3.7 0 0 0-.22-.69c-.13-.4-.09-.85-.1-1.29-.05-.74-.17-1.48-.37-2.2-.04-.3-.16-.57-.34-.8-.17-.18-.45-.35-.39-.6.04-.08.1-.16.16-.23a.95.95 0 0 0 .2-.72.32.32 0 0 0 .37-.17 5.8 5.8 0 0 0 2.92-3.32c.03-.1.07-.2.13-.3.12-.17.34-.25.53-.34.6-.3 1.02-.88 1.4-1.43.25-.31.43-.66.55-1.04.05-.24.08-.5.07-.75l.04-1.29c0-.08 0-.17-.03-.25a.64.64 0 0 0-.14-.2 2.5 2.5 0 0 0-1.38-.75c-.35-.06-.71-.05-1.07-.08-.7-.06-1.38-.27-2.07-.22a3.34 3.34 0 0 0-2.58 1.8c-.2.34-.38.63-.77.65Z" fill="#464353"/><path d="M20.2 116.54c.24.08.5.11.75.09.02-.2.3-.25.5-.24.1 0 .2.02.29.06l.14.12c.09.05.19.07.29.07l1.07.1c.47.03.97.07 1.41-.1a.46.46 0 0 0 .23-.15c.12-.18 0-.42-.16-.55-.16-.13-.38-.18-.55-.31-.37-.28-.42-.81-.62-1.23-.14-.27-.3-.52-.5-.75-.15-.19-.32-.36-.51-.51-.43-.31-.92-.3-1.42-.35-.36-.03-.7-.05-.95.26-.31.4-.19 1.18-.17 1.65.02.61.09 1.23.2 1.84Z" fill="#514E7F"/><path opacity=".05" d="M20.2 116.54c.24.08.5.11.75.09.02-.2.3-.25.5-.24.1 0 .2.02.29.06l.14.12c.09.05.19.07.29.07l1.07.1c.47.03.97.07 1.41-.1a.46.46 0 0 0 .23-.15c.12-.18 0-.42-.16-.55-.16-.13-.38-.18-.55-.31-.37-.28-.42-.81-.62-1.23-.14-.27-.3-.52-.5-.75-.15-.19-.32-.36-.51-.51-.43-.31-.92-.3-1.42-.35-.36-.03-.7-.05-.95.26-.31.4-.19 1.18-.17 1.65.02.61.09 1.23.2 1.84Z" fill="#000"/><path d="M20.64 95.78c-.32.1-.47.52-.41.85.06.34.26.63.43.93.47.85.68 1.82 1.08 2.71.3.66.7 1.28 1 1.94.3.66.48 1.41.3 2.12-.1.34-.26.66-.37 1-.11.36-.19.74-.22 1.12a21.4 21.4 0 0 0-.08 3.9c0 .16.04.31.1.46.07.13.18.26.13.4l-.1.14c-.07.15.07.3.2.41a.33.33 0 0 1-.21.16.5.5 0 0 1 .2.55c-.1.02-.11.19-.04.28.07.09.18.14.23.24a.34.34 0 0 1-.19.44.89.89 0 0 1-.51.03c-.3-.04-.58-.1-.86-.18a.76.76 0 0 1-.27-.13.79.79 0 0 1-.24-.52 9.45 9.45 0 0 1-.06-1.61c.05-2.6 0-5.22-.1-7.82a8.95 8.95 0 0 0-.78-3.04c-.22-.5-.47-.98-.75-1.45-.58-1.08-1.1-2.26-.96-3.48.01-.13.06-.29.19-.3.05-.01.1 0 .15.02.27.12.53.27.78.43.41.24.88.38 1.36.4Z" fill="#464353"/><path opacity=".05" d="M20.64 95.78c-.32.1-.47.52-.41.85.06.34.26.63.43.93.47.85.68 1.82 1.08 2.71.3.66.7 1.28 1 1.94.3.66.48 1.41.3 2.12-.1.34-.26.66-.37 1-.11.36-.19.74-.22 1.12a21.4 21.4 0 0 0-.08 3.9c0 .16.04.31.1.46.07.13.18.26.13.4l-.1.14c-.07.15.07.3.2.41a.33.33 0 0 1-.21.16.5.5 0 0 1 .2.55c-.1.02-.11.19-.04.28.07.09.18.14.23.24a.34.34 0 0 1-.19.44.89.89 0 0 1-.51.03c-.3-.04-.58-.1-.86-.18a.76.76 0 0 1-.27-.13.79.79 0 0 1-.24-.52 9.45 9.45 0 0 1-.06-1.61c.05-2.6 0-5.22-.1-7.82a8.95 8.95 0 0 0-.78-3.04c-.22-.5-.47-.98-.75-1.45-.58-1.08-1.1-2.26-.96-3.48.01-.13.06-.29.19-.3.05-.01.1 0 .15.02.27.12.53.27.78.43.41.24.88.38 1.36.4Z" fill="#000"/><path d="M16.23 92.61c-.17-.1-.36-.17-.57-.17-.23.03-.44.14-.61.3-.22.17-.42.35-.62.54a3.28 3.28 0 0 0-.73 3.24c.2.58.55 1.1.9 1.6l.7 1.01c1.09 1.56 2.17 3.11 3.3 4.63a.17.17 0 0 0 .13.16c.04.02.1.01.12.05l.01.07c0 .1-.02.21-.06.32a.15.15 0 0 0-.01.11c.03.09.19.04.24.12.03.05 0 .12-.06.16-.05.04-.1.1-.08.16 0 .07.11.13.1.2 0 .05-.03.09-.06.12a.3.3 0 0 0 .04.38c.07.74-.33 1.44-.41 2.18-.13 1.17.4 2.3.46 3.48 0 .13.02.26.08.38.1.2.39.32.38.55l-.08.28c0 .14.01.27.04.4 0 .14-.11.3-.24.24.1.31.18.63.25.94l2.48.2c.03-.22.02-.44-.02-.67-.05-.23-.16-.46-.21-.7a.83.83 0 0 1 .1-.7.28.28 0 0 1-.28-.22 1.1 1.1 0 0 1 0-.39c.07-.64-.2-1.29-.2-1.94.01-.5.19-1 .28-1.5.2-1.08 0-2.25.47-3.23.3-.6.7-1.25.37-1.83-.16-.28-.45-.48-.63-.74a3.02 3.02 0 0 1-.34-.8c-.38-1.2-1-2.29-1.54-3.41a3.59 3.59 0 0 1-.33-.9 4.54 4.54 0 0 1-.04-.82c0-.5-.04-1-.1-1.49a1.39 1.39 0 0 0-.18-.61c-.1-.14-.23-.26-.38-.36-.82-.55-1.79-.87-2.67-1.34Z" fill="#464353"/><path d="M19.2 117.45c.25.08.5.11.75.09.02-.2.3-.25.5-.24.1 0 .2.02.28.06l.14.12a.6.6 0 0 0 .3.07l1.06.1c.48.03.97.07 1.42-.1a.47.47 0 0 0 .23-.15c.12-.18 0-.42-.17-.55-.16-.13-.38-.18-.55-.31-.37-.28-.42-.8-.62-1.23-.13-.27-.3-.52-.5-.74-.15-.2-.32-.37-.5-.52-.44-.31-.93-.3-1.43-.35-.36-.03-.7-.05-.94.26-.33.4-.2 1.18-.18 1.65a12 12 0 0 0 .22 1.84Z" fill="#514E7F"/><path d="M45.26 98.74H32.68v12.59h12.58V98.74Z" fill="#fff"/><path d="M30.21 88.31a2.46 2.46 0 1 0 0-4.92 2.46 2.46 0 0 0 0 4.92Z" fill="#A1616A"/><path d="M27.9 86.58c-.36.3-.86.33-1.33.38-.99.1-1.95.38-2.84.82-.12.05-.23.13-.32.23a.93.93 0 0 0-.16.35c-.09.27-.12.56-.1.85.04.28.12.56.24.8.34.72.87 1.32 1.53 1.75.1.08.23.14.37.18.32.06.64-.13.95-.2.3-.08.6-.07.89.02.26.09.55.25.8.14.17-.09.3-.24.37-.41.25-.48.47-.97.67-1.47.07-.2.15-.39.24-.57.29-.55.78-.97 1.03-1.53a.34.34 0 0 0 .02-.29.4.4 0 0 0-.18-.14c-.36-.2-.7-.46-.98-.77-.16-.16-.46-.57-.7-.6-.25-.04-.33.31-.5.46Z" fill="#A1616A"/><path d="M27.95 91.58c-.28.14-.62.08-.93.01-.8-.16-1.6-.33-2.34-.68a1.25 1.25 0 0 1-.57-.44 1.4 1.4 0 0 1-.16-.55l-.14-.91c-.04-.33.04-.62.04-.94a.27.27 0 0 0-.05-.2.22.22 0 0 0-.16-.06c-.37 0-.6.4-.85.66-.15.15-.33.27-.52.35-.24.1-.53.16-.63.4-.04.1-.03.21-.07.31-.17.4-.88.26-1.05.65-.06.1-.05.24-.14.33-.08.09-.24.09-.37.1-.51.1-.76.69-1.2.96-.37.24-.85.24-1.24.42-.21.12-.43.23-.65.32-.25.04-.5.06-.75.04a.2.2 0 0 0-.15.05.2.2 0 0 0-.02.16 4.53 4.53 0 0 0 2.8 3.5l.24.12c.22.16.26.53.51.64a.53.53 0 0 0 .54-.11c.14-.14.27-.28.39-.43.23-.24.54-.4.87-.46.3-.05.64-.01.89-.2.1-.09.2-.19.28-.3.18-.17.4-.3.64-.38.65-.25 1.33-.4 2.02-.42.65-.04 1.31.02 1.93-.2.15-.04.3-.12.42-.23.14-.15.23-.32.3-.5a3.8 3.8 0 0 0 .12-2Z" fill="#514E7F"/><path d="M24.78 87.96c.18-.02.37 0 .55 0 .21 0 .42-.05.64-.06a1.6 1.6 0 0 1 1.5 1.15c.02.05.03.1.01.16a.11.11 0 0 1-.12.08c-.07-.2-.16-.38-.28-.55-.2-.28-.5-.48-.82-.58-.33-.09-.68-.1-1.02-.03-.14.02-.27.06-.41.1l-.67.18-.36.1c-.1.04-.25.17-.34.17-.12 0-.02-.1.03-.18.11-.14.26-.25.43-.3.28-.12.57-.2.86-.24Z" fill="#514E7F"/><path d="M26.44 95.35c.16.5.32 1.02.52 1.51.35.86.8 1.68 1.34 2.45.34.5.71.99 1.1 1.45.5.58 1.05 1.17 1.23 1.91.1.43.06.88.1 1.32.05.44.2.9.55 1.17.27.16.57.26.89.3.22.03.5.04.61-.16a.55.55 0 0 0 .07-.25l.05-.65c.01-.14.06-.32.2-.32s.2.18.32.26a.36.36 0 0 0 .28.03.36.36 0 0 0 .2-.19.82.82 0 0 0 .02-.56 2.68 2.68 0 0 0-1.37-1.71c-.24-.1-.46-.21-.67-.35-.22-.19-.4-.41-.53-.66-1.22-2.01-2.45-4.04-3.3-6.22a4.6 4.6 0 0 1-.35-1.22c-.02-.43 0-.86.05-1.29a7.38 7.38 0 0 0-.2-2.3c-.05-.2-.12-.4-.22-.57-.36-.54-1.2-.61-1.72-.24a1.76 1.76 0 0 0-.68 1.24c-.04.44.21.89.34 1.3.4 1.24.78 2.5 1.17 3.75Z" fill="#A1616A"/><path d="M33.8 84.12c.01-.2-.17-.4-.38-.53a5.2 5.2 0 0 1-.63-.38c-.19-.16-.3-.37-.48-.54a2.1 2.1 0 0 0-.7-.35c-.55-.2-1.13-.3-1.7-.3a2.99 2.99 0 0 0-1.63.42c-.1.07-.2.16-.27.26-.07.13-.12.27-.14.4-.1.45-.24.88-.42 1.3a3 3 0 0 1-.8 1.3c-.47.39-1.17.6-1.48 1.07a.35.35 0 0 0-.06.3c.04.12.18.2.3.27.76.43 1.4.98 1.73 1.65a1.91 1.91 0 0 1-.15 2.05c-.17.23-.41.5-.24.72.25.35 1.14.15 1.34.52.05.12.05.25.03.38 0 .38.37.72.82.9.47.16.97.24 1.47.24.13-.3.15-.64.04-.95a.38.38 0 0 1-.04-.22c.03-.08.09-.15.16-.2.54-.52.43-1.27.1-1.87-.32-.6-.83-1.16-1.01-1.8-.1-.32-.1-.67.16-.94.14-.12.3-.24.46-.33.3-.2.52-.48.65-.81.15-.42.12-.93.57-1.2.44-.28 1.01-.19 1.48-.37.37-.15.78-.7.81-1Z" fill="#464353"/><path d="M47.59 87.67a2.68 2.68 0 1 0 0-5.37 2.68 2.68 0 0 0 0 5.37Z" fill="#FBBEBE"/><path d="M50 84.87a3.48 3.48 0 0 0 2.23 1.56l-.2.73c-.35 1.26-.75 2.6-1.72 3.47a1.62 1.62 0 0 0-.27-1.25 4.75 4.75 0 0 0-.91-.95l-1.55-1.35a.42.42 0 0 1-.11-.13.4.4 0 0 1 0-.29c.2-.61.75-1 1.2-1.4.24-.22.44-.46.62-.72.32-.44.52 0 .71.33Z" fill="#FBBEBE"/><path d="M50.34 88.34c.02.2-.01.4-.08.6a.42.42 0 0 1-.48.24c.06-.13-.1-.27-.23-.25a.43.43 0 0 0-.3.26c-.1.18-.13.4-.1.6.05.25.2.5.15.75-.03.21-.18.42-.1.62a1 1 0 0 0 .2.24.68.68 0 0 1-.07.93l2.1.04c-.08.35.08.7.26 1.02a6.4 6.4 0 0 0 4.77 3.12.42.42 0 0 0-.1.63c.17.17.46.15.67.04.2-.13.4-.27.58-.43.34-.25.76-.36 1.18-.32.26.02.52.1.78.12.77.04 1.44-.52 2.18-.74.54-.17 1.16-.17 1.61-.51.2-.15.36-.39.3-.62a1.01 1.01 0 0 0-.22-.37c-.27-.34-.42-.75-.6-1.13a6.74 6.74 0 0 0-1.52-2.02 13.35 13.35 0 0 0-1.9-1.38 4.17 4.17 0 0 1-.56-.23c-.24-.16-.38-.42-.57-.64-.42-.49-1.05-.7-1.57-1.09-.34-.25-.64-.59-1.05-.71-.2-.06-.41-.07-.6-.13-.46-.13-.79-.53-1.23-.7-.35-.13-.74-.1-1.11-.14-.4-.05-.8-.2-1.14-.43-.11-.09-.23-.16-.37-.21-.56-.17-.6.87-.66 1.23-.08.53-.22 1.07-.22 1.61Z" fill="#3F3D56"/><path d="M50.89 91.84c.1 1.02-.68 2-.45 3 .05.22.14.42.17.64.1.59-.26 1.15-.6 1.64l-2.9 4.25c-.12.19-.25.36-.41.51-.56.5-1.39.44-2.11.6-.52.1-1 .3-1.42.62a.1.1 0 0 0-.03.06l.01.06a1.2 1.2 0 0 0 1.05.5c.08.1 0 .25-.1.32-.16.1-.37.14-.4.4-.01.1 0 .18.05.27.12.17.3.3.51.35 1 .3 2.08-.23 2.83-.97s1.3-1.66 2.03-2.4c.4-.42.87-.77 1.29-1.17.84-.8 1.49-1.77 2.12-2.74.2-.28.36-.6.46-.94.07-.33.04-.68.13-1 .11-.44.43-.78.7-1.13.5-.71.85-1.58.78-2.45-.07-.87-.6-1.73-1.43-2.03-.26-.1-.54-.12-.8-.05-.34.1-.6.39-.82.65l-.55.63c-.14.14-.25.3-.32.49a.5.5 0 0 0 .1.54" fill="#FBBEBE"/><path d="M52.35 87.66c-.38.02-.8.06-1.07.32a4.18 4.18 0 0 0-.8 2.1c-.01.48.12.94.2 1.4.06.4-.1.8-.13 1.19a8.05 8.05 0 0 0 1.53-.59c.28-.18.58-.34.89-.46.45-.15 1.22.1 1.65.32.02-.3-.2-.83-.18-1.13 0-.13.02-.25.07-.37.06-.13.14-.25.22-.37a1.49 1.49 0 0 0-.13-1.74c-.38-.43-.98-.6-1.56-.66a6.8 6.8 0 0 0-1.08-.04" fill="#3F3D56"/><path d="m44.05 82.29-.06-.5c.42.1.83-.26 1.1-.63.27-.37.52-.8.93-.97.5-.19 1.03.12 1.51.36a4.73 4.73 0 0 0 2.02.63c.31.1.46.5.5.85.05.36.04.73.2 1.05.11.24.31.42.43.65.32.63.01 1.5.36 2.12l-.86-.79c-.08-.07-.2-.15-.28-.08-.08.06-.07.16-.1.23a.45.45 0 0 1-.61.23c-.22-.13-.4-.3-.55-.5a3.34 3.34 0 0 0-1.36-1.04 1.74 1.74 0 0 0-1.45.09c-.4.22-.7.75-1.18.77-.68.03-.96-1.23-1.27-1.72a.61.61 0 0 0 .18-.77c.04-.01.48-.06.5.02Z" fill="#464353"/><path d="M104.73 50.37c-.26.12-.55.2-.84.23.3-.18.54-.47.65-.8-.3.16-.6.28-.94.35a1.46 1.46 0 0 0-2.53 1c0 .11.01.23.04.34a4.15 4.15 0 0 1-3.03-1.54 1.47 1.47 0 0 0 .46 1.96c-.24 0-.47-.07-.67-.18v.02a1.47 1.47 0 0 0 1.18 1.44 1.53 1.53 0 0 1-.66.02 1.47 1.47 0 0 0 1.37 1.02 2.94 2.94 0 0 1-2.18.6 4.15 4.15 0 0 0 6.42-3.52v-.18c.3-.2.54-.47.73-.76ZM99.4 81.95l.49 1.21 3.16 3.35 1.06-1 .66.71.7-.67.05-1.36.88-.84.07-2.4-2.83-3-4.24 4Zm6.38-.67-.05 1.37-1.05 1-.04 1.37-.67-.7-.88.82-2.84-3 3.36-3.15 2.17 2.29Z" fill="#00BAFC"/><path d="m103.2 80.68.53-.5 1.34 1.42-.53.5-1.34-1.42Zm-1.23 1.16.53-.5 1.34 1.42-.53.5-1.34-1.42ZM40.93 101.13h-5.17a.32.32 0 0 0-.32.32v5.18c0 .08.03.17.1.23.05.06.13.1.22.1h2.58v-2.31h-.7v-.85h.71v-.63c0-.75.52-1.16 1.2-1.16.32 0 .66.02.74.04v.78h-.53c-.37 0-.44.17-.44.43v.54h.87l-.11.85h-.76v2.3h1.61a.32.32 0 0 0 .33-.32v-5.18a.32.32 0 0 0-.33-.32ZM86.17 64.2a1.21 1.21 0 0 1 1.22 1.2v2.42a1.22 1.22 0 0 1-1.22 1.21h-2.42a1.22 1.22 0 0 1-1.2-1.2V65.4a1.21 1.21 0 0 1 1.2-1.2h2.42Zm0-.5h-2.42a1.7 1.7 0 0 0-1.7 1.7v2.43a1.7 1.7 0 0 0 1.7 1.7h2.42a1.7 1.7 0 0 0 1.7-1.7v-2.42a1.7 1.7 0 0 0-1.7-1.7Z" fill="#00BAFC"/><path d="M86.54 65.4a.36.36 0 1 1 0-.72.36.36 0 0 1 0 .73Zm-1.57.24a.97.97 0 1 1 0 1.94.97.97 0 0 1 0-1.94Zm0-.48a1.45 1.45 0 1 0 0 2.9 1.45 1.45 0 0 0 0-2.9ZM161.05 91.11c0-.68-.5-1.23-1.13-1.23-.84-.04-1.7-.05-2.57-.05h-.27c-.87 0-1.73.01-2.57.05-.62 0-1.12.55-1.12 1.23a22.4 22.4 0 0 0 0 3.23c0 .68.5 1.23 1.12 1.23a59.22 59.22 0 0 0 5.4 0c.63 0 1.14-.55 1.14-1.23a23.68 23.68 0 0 0 0-3.23Zm-4.57 3.1v-2.97l2.2 1.49-2.2 1.49ZM80.94 34.03a3.39 3.39 0 0 0-1.37 6.5c-.01-.26 0-.52.06-.78l.44-1.85a1.29 1.29 0 0 1-.11-.53c0-.5.3-.88.65-.88.31 0 .46.23.46.5 0 .32-.2.78-.3 1.21a.52.52 0 0 0 .54.65c.64 0 1.07-.82 1.07-1.8 0-.74-.5-1.3-1.4-1.3a1.61 1.61 0 0 0-1.68 1.63c0 .24.07.48.23.66a.16.16 0 0 1 .04.2l-.07.26a.12.12 0 0 1-.17.09c-.47-.2-.7-.71-.7-1.3 0-.96.81-2.11 2.43-2.11 1.29 0 2.15.94 2.15 1.94 0 1.33-.74 2.33-1.84 2.33a.97.97 0 0 1-.82-.42l-.24.93c-.08.26-.2.5-.34.73a3.44 3.44 0 0 0 3.37-.86 3.4 3.4 0 0 0-2.4-5.8Z" fill="#00BAFC"/><path d="M116.46 127.99c-.13-.55-.21-1.04-.21-1.04 0-.36-.07-.73-.24-1.05v-1.27c.07-.2.17-.4.28-.58.2-.35 0-1.63 0-1.63s-.74-1.8-.57-2.95c.18-1.14-1.52-5.08-1.52-5.08.01-.39.07-.76.16-1.13a.84.84 0 0 0 .03-.27v.01c-.03-.75-.63-2.17-.63-2.17l.08-2.7s.38-1.59-.24-3.72c-.21-.75-.35-1.34-.44-1.8l-.03-.16 2.26-.35s-.74-3.1-1.25-3.65c-.5-.54-.9-2.25-.9-2.25s-.26-2.2.16-2.84c.43-.64.49-1.74.49-1.74s.97-.7 1.08-1.01c.17-.44.28-.9.32-1.38 0-.37-.12-.7-.08-.9.04-.19-.28-.92-.12-1.27a.95.95 0 0 0 .07-.35c0-.3-.03-.61-.09-.91-.28-.24-.6-.41-.95-.51l-.02-.08-.06-.22a.73.73 0 0 0-.1-.06v-.4l.16-.71c.3-1.23-1.35-1.42-1.35-1.42a.86.86 0 0 0-.47-.4c-.32-.12-.05 1.85.1 1.98.12.09.49.7.65 1.01l.03.05a.68.68 0 0 0-.08.08l.06.43.01.06c-.1.14-.2.29-.26.45 0 0 .3.33.24.7-.02.29.01.58.1.85-.02-.02-.23-.25-.44-.19l-.8.23s-.45.08-.4.18c.03.1-.3.52-.3.52l-1.2-1.13a2.05 2.05 0 0 1-.13-.58c.13-.03.25-.07.38-.12a.81.81 0 0 0 .32-.21c.1-.16.16-.33.2-.51.08-.35.29-.66.43-.99.24-.55.32-1.15.23-1.75a1.16 1.16 0 0 0-.18-.51c-.2-.27-.55-.38-.8-.59-.27-.21-.43-.53-.72-.7-.29-.12-.6-.14-.9-.07-.6.1-1.17.3-1.68.6-.18.11-.37.23-.57.2a.76.76 0 0 1-.4-.3v-.02l-.02-.02c-.12.28-.18.59-.18.9v.18a.3.3 0 0 1 0 .04l-.01.07a.46.46 0 0 1-.1.16.68.68 0 0 0-.1.13l.01-.05a.7.7 0 0 0-.12.37c-.01.1.02.2.09.27.06.06.12.12.19.16a2.26 2.26 0 0 0 1.08 2.35l.04.1c.17.41.25.85.22 1.3 0 .03 0 .06-.02.1l-.04.04s-1.96.02-2.42-.4c-.46-.42-1.16 1.02-1.16 1.02s-.7.14-.85 0c-.14-.14-.96-.02-.96-.02-.34-.3-.78-.46-1.23-.44a3.6 3.6 0 0 0-.9-.5l-.02-.01a1 1 0 0 0-.44-.06s-.97-.8-1.24-1.22a38.5 38.5 0 0 0-1.63-2.02v-.07l-.01-.24a.9.9 0 0 1-.12.02c0-.03-.02-.05-.03-.08a4.36 4.36 0 0 0-.28-.65s0-.29.08-.36c.09-.08-.03-1.14-.03-1.14s-.87-2.03-1.65-.52c0 0-1.46.98-.23 2.12 0 0 .48.24.56.43l.32.7.05.1h-.01l.02.2v.07c-.24.13-.4.26-.36.36.07.17.12.35.14.53 0 0 1.71 2.13 1.93 3.04 0 0 4.57 2.72 6.08 2.91l-.26 1.36c-.04.37-.06.74-.06 1.1.02.3-.19 1.62-.19 1.62s-.26 1.94-.48 2.21c-.22.28-.18 1.44-.18 1.44-.05.56-.15 1.1-.3 1.65-.22.74-.06 1.65-.06 1.65s-.76 1.75 1.06.56l1.94-.09v.53c-.01 1-.02 2.38.02 3.42.09 1.85.65 5.49.65 5.49v1.83a3.39 3.39 0 0 0 .44 2.36l.14 1.22s.32.81.34 1.3c0 .03 0 .07-.02.11a.83.83 0 0 0-.01.19c-.02.55.32 1.88.32 1.88s.02 1.34.22 1.42c.17.06-.23.77-.35.96v-.03a.41.41 0 0 1-.03.04.96.96 0 0 0-.06.33.49.49 0 0 0 .22.48c.38.23.58.42.26.5-.12.02-.23.04-.35.08l-.02-.05a.21.21 0 0 0-.13.22 1 1 0 0 0 .13.46c.14.35.32.68.54.99l.16-.02a.73.73 0 0 1-.32.36.72.72 0 0 1-.27.1.76.76 0 0 0-.57.27c-.2.26-.32.61.07.92l1.44.5s2.46.32 2.33-.24c-.13-.55-.2-1.03-.2-1.03 0-.34-.07-.68-.21-.98l-.09-.15.09-.01s.18-1.22.42-1.45c.06-.06.07-.1.06-.13.02-.06-.04-.1-.12-.13l-.02.05a1.27 1.27 0 0 0-.24-.02s-.08-.65.18-.88a.24.24 0 0 0 .05-.19c0-.09 0-.17-.03-.26v.02a9.28 9.28 0 0 0-.58-1.5s-.02-.6.14-.83c.16-.23-.02-3.16-.02-3.16s.06-1.41-.12-2.07c-.18-.66.22-1.44.22-1.44v-.05l-.02-.23v.02c-.04-.38-.12-1.06-.18-1.37-.08-.45.02-2.58.02-2.58l.36-.91.65 1.57.68 2.1c.2.26.31.56.35.89v.2c-.02.27.06.53.2.75 0 0 .19.99.47 1.24.28.25.28.74.28.74s.34 1.44.5 1.69c.13.21.14.8.14.97v.05s.05.51.04.94v.17-.02c0 .12-.01.24-.04.35v.02-.07c-.07.3-.1.6-.1.9-.01.51.07 1.13.38 1.48.54.62.88.55.88.55s-.26.77-.58.93a.24.24 0 0 0-.03.02l-.01-.05a.39.39 0 0 0-.1.29c.02.42.16.82.4 1.15.08.08.17.14.27.17l-.05.03-.1.05a.53.53 0 0 1-.17.04.78.78 0 0 0-.57.28c-.2.25-.32.6.07.92l1.44.5s2.43.32 2.3-.24Z" fill="url(#b)"/><path d="m107.04 128.9-1.4-.49c-.37-.3-.25-.66-.06-.92a.73.73 0 0 1 .55-.28c.1 0 .19-.04.27-.1a.63.63 0 0 0 .22-.2c.1-.15.16-.34.16-.53 0 0 1.52-.44 1.93 0 .08.08.14.17.19.27.14.31.2.65.2.98 0 0 .07.49.2 1.04.12.56-2.26.24-2.26.24ZM113.83 128.23l-1.39-.5c-.38-.3-.26-.66-.06-.92a.74.74 0 0 1 .55-.27.5.5 0 0 0 .16-.05.82.82 0 0 0 .1-.05c.4-.21.38-.73.38-.73s1.52-.45 1.94 0c.05.06.1.12.14.2.17.32.25.68.24 1.05 0 0 .07.48.2 1.04.13.55-2.26.23-2.26.23Z" fill="#2D293D"/><path opacity=".1" d="M108.72 126.38c.07.08.13.17.18.27l-2.28.27c.1-.16.16-.35.16-.54 0 0 1.52-.44 1.94 0ZM115.65 125.9v.42c-.35.59-2.07.46-2.57.17a.89.89 0 0 0 .11-.06c.39-.21.38-.74.38-.74s1.52-.44 1.93 0c.06.07.11.13.15.2Z" fill="#000"/><path d="M115.93 124.05c-.11.19-.2.38-.28.59v1.53c-.38.64-2.4.43-2.67.08s-.57-1.27-.26-1.42c.31-.15.57-.93.57-.93s-.33.08-.86-.55c-.53-.62-.37-2-.27-2.32.1-.34 0-1.44 0-1.44s.02-.78-.13-1.03c-.16-.25-.49-1.69-.49-1.69s0-.48-.27-.73c-.27-.26-.44-1.25-.44-1.25a1.28 1.28 0 0 1-.2-.83c.06-.48-.33-1.01-.33-1.01l-.66-2.1-.62-1.57-.35.91s-.1 2.14-.02 2.58c.08.45.2 1.63.2 1.63s-.4.78-.22 1.44c.18.66.12 2.07.12 2.07s.17 2.93.02 3.17c-.16.23-.14.8-.14.8s.8 1.71.55 1.94c-.26.23-.18.88-.18.88s.54 0 .31.23c-.23.23-.4 1.45-.4 1.45l-2.36.3a4.98 4.98 0 0 1-.52-1c-.31-.71.06-.64.37-.71.31-.07.11-.27-.26-.5-.36-.24-.16-.76-.16-.76s.57-.95.37-1.03c-.2-.08-.21-1.42-.21-1.42s-.39-1.6-.3-2.02c.1-.42-.3-1.45-.3-1.45l-.14-1.22a3.36 3.36 0 0 1-.42-2.31v-1.9s-.54-3.64-.62-5.48a75 75 0 0 1 0-4.73l8.39-.88c.01.42.06.84.15 1.25.08.46.22 1.06.43 1.8.6 2.14.23 3.73.23 3.73l-.08 2.7s.74 1.8.59 2.41c-.1.37-.15.75-.16 1.13 0 0 1.65 3.94 1.47 5.09-.17 1.14.55 2.94.55 2.94s.19 1.3 0 1.63Z" fill="#464353"/><path opacity=".05" d="m111.13 113.94 2.55-.34s-1.44 1.48-2.55.34Z" fill="#000"/><path opacity=".1" d="M113.31 111.1s.1.91-.46 1.25c0 0 .99-.15.47-1.24ZM113.16 108.24s-2.13 1.75-2.9 1.6c-.78-.13 2.9-1.6 2.9-1.6ZM107.97 114.77s-1.61.37-1.67 1.02c-.05.65 1.67-1.02 1.67-1.02Z" fill="#000"/><path opacity=".05" d="M108.33 122.86s-2.3.43-1.64.72c.55.22 1.13.4 1.71.52 0 0 .74.04-.08-1.24Z" fill="#000"/><g opacity=".05" fill="#000"><path opacity=".05" d="M106.22 124.03a.44.44 0 0 1-.2-.33l-.03.04s-.21.53.16.76l.12.08.21-.04c.3-.07.11-.27-.26-.5ZM109.17 123.89c.07-.06.06-.21.03-.4-.1.17-.14.36-.14.56a.43.43 0 0 1 .11-.16ZM108.82 114.23c-.09.23-.14.47-.16.71.04-.16.1-.33.18-.48l-.02-.23ZM114.06 113.21a5.1 5.1 0 0 0 0 0ZM108.77 121.13c.04-.14.06-.28.05-.43-.07.17-.1.36-.1.54a.55.55 0 0 1 .05-.11ZM109.25 124.79c-.12.39-.21.79-.27 1.19l-2.35.27a4.9 4.9 0 0 1-.59-1.16c-.14.07-.2.21-.01.65.14.35.31.68.53.99l2.34-.28s.18-1.22.4-1.45c.12-.12.05-.18-.05-.21ZM106.15 121.3s.02 1.34.2 1.42c.1-.22.17-.43.08-.47-.19-.07-.2-1.41-.2-1.41s-.4-1.6-.3-2.02c.1-.43-.31-1.45-.31-1.45l-.14-1.23a3.37 3.37 0 0 1-.42-2.3v-1.9s-.55-3.64-.62-5.48c-.05-1.18-.04-2.8-.02-3.8v-.48h-.07l-.02.93c-.02 1-.03 2.62.02 3.8.08 1.84.62 5.5.62 5.5v1.88c-.14.8.02 1.63.44 2.32l.13 1.23s.41 1.02.31 1.45c-.1.42.3 2.01.3 2.01ZM113.05 125.73c-.19-.28-.31-.6-.37-.92-.24.21.04 1.05.3 1.38.25.34 2.29.57 2.68-.07v-.37c-.53.52-2.35.31-2.6-.02ZM116 123.53c-.1.2-.2.39-.27.59v.27l.2-.39c.06-.15.09-.32.08-.48v.02ZM113.17 123.84c.08-.15.14-.3.2-.46 0 0-.33.08-.86-.54-.38-.45-.4-1.3-.35-1.87-.1.34-.25 1.71.27 2.33.35.41.6.52.74.54ZM112.16 119.54c.04.38.05.77.04 1.15l.04-.18c.1-.33 0-1.44 0-1.44s.02-.77-.14-1.03c-.15-.25-.48-1.69-.48-1.69s0-.48-.27-.73c-.27-.26-.45-1.25-.45-1.25a1.28 1.28 0 0 1-.2-.83c.07-.48-.31-1-.31-1l-.67-2.1-.62-1.57-.35.91-.02.3.29-.74.62 1.57.66 2.1s.39.52.32 1c-.03.3.04.59.2.83 0 0 .18.99.45 1.24s.27.74.27.74.32 1.43.48 1.69c.17.25.14 1.03.14 1.03Z"/></g><path d="m113.8 83.83-.15.71v.56l-.8.08-.1-.16c-.15-.3-.5-.92-.62-1.02-.15-.12-.42-2.1-.1-1.98.2.08.36.22.45.41 0 0 1.6.17 1.31 1.4Z" fill="#FFCDD3"/><path opacity=".1" d="m113.66 85.09-.8.08-.1-.16a.71.71 0 0 1 .9-.15v.23Z" fill="#000"/><path d="m113.86 85.47-1.06.25-.02-.16-.07-.43a.73.73 0 0 1 .78-.27c.1.03.18.07.26.13l.05.22.06.26Z" fill="#DCE6F2"/><path d="m96.57 83.9-1.14.62-.1-.22c-.12-.22-.28-.56-.33-.69-.07-.19-.54-.42-.54-.42-1.2-1.14.23-2.12.23-2.12.75-1.52 1.59.5 1.59.5s.11 1.08.03 1.15c-.08.07-.08.36-.08.36a4.43 4.43 0 0 1 .34.83Z" fill="#FFCDD3"/><path opacity=".1" d="m96.57 83.9-1.14.62-.1-.22c.16-.13.73-.6.91-.57h.27l.06.18Z" fill="#000"/><path d="m96.68 84.25-1.28.63-.02-.27-.02-.2s.74-.63.97-.6h.33l.02.23v.21Z" fill="#DCE6F2"/><path d="M110.69 88.54s-5.59.63-4.55.29c.73-.24 1.02-.7 1.08-1.21.03-.44-.04-.88-.2-1.3-.14-.35-.3-.68-.5-1 0 0 4.26-2.35 3.41-.22-.13.33-.22.67-.24 1.02-.03.34 0 .69.1 1.02.17.54.48 1.02.9 1.4Z" fill="#FFCDD3"/><path opacity=".1" d="M109.93 85.1c-.13.33-.22.67-.24 1.01-.4.34-.85.33-1.41.33-.44 0-.92.1-1.27-.1-.13-.36-.3-.7-.5-1.02 0 0 4.27-2.35 3.42-.22Z" fill="#000"/><path d="M108.2 86.58a2.31 2.31 0 1 0 0-4.62 2.31 2.31 0 0 0 0 4.62Z" fill="#FFCDD3"/><path opacity=".1" d="M110.69 88.54s-5.59.63-4.55.29c.73-.24 1.02-.7 1.08-1.21.28-.3.84-.52 1.2-.64a1.67 1.67 0 0 1 1.38.15c.16.54.47 1.03.89 1.4ZM113.86 85.47l-1.06.25-.02-.16a.94.94 0 0 1 1.02-.35l.06.26ZM96.68 84.25l-1.28.63-.02-.27c.41-.22.84-.42 1.29-.57l.01.21ZM112.9 102.61c-2.17.34-5.25.79-5.73.64-.41-.13-1.7-.11-2.83-.07 0-.57.02-.94.02-.94l8.39-.87c0 .41.06.83.15 1.24Z" fill="#000"/><path d="M115.05 102.1s-7.12 1.22-7.88.99c-.77-.24-4.7.02-4.7.02-1.76 1.18-1.02-.57-1.02-.57s-.16-.9.06-1.65c.14-.54.24-1.09.29-1.65 0 0-.04-1.16.17-1.43.21-.27.47-2.21.47-2.21s.2-1.32.17-1.62c-.02-.3.06-1.1.06-1.1l.25-1.36c-1.45-.2-5.88-2.91-5.88-2.91-.21-.91-1.86-3.05-1.86-3.05a2.25 2.25 0 0 0-.14-.52c-.11-.31 1.63-.94 1.63-.94s1.3 1.6 1.58 2.02c.27.43 1.2 1.23 1.2 1.23.14-.02.29 0 .43.05h.02c.31.12.6.3.87.5.43-.01.86.15 1.18.45 0 0 .8-.12.93.02.14.13.8 0 .8 0s.69-1.44 1.14-1.02c.45.41 2.34.4 2.34.4.25-.34.87-.58 1.25-.7.33-.11.68-.12 1.01-.02.15.04.28.1.4.2l1.15 1.12s.32-.43.3-.52c-.04-.1.38-.18.38-.18l.78-.23c.21-.06.4.17.42.2a2.26 2.26 0 0 1-.1-.86.97.97 0 0 0-.23-.7c.69-1.66 2.22-.25 2.22-.25s.18.9.02 1.26c-.15.35.16 1.08.12 1.28-.05.2.08.52.08.89a5.3 5.3 0 0 1-.31 1.38c-.12.3-1.05 1-1.05 1s-.06 1.11-.47 1.75c-.4.64-.16 2.84-.16 2.84s.39 1.7.87 2.26c.49.55 1.21 3.63 1.21 3.63Z" fill="#3F3D56"/><path opacity=".1" d="M104.67 89.33s-.21-.64-.4-.7a4.6 4.6 0 0 1-.57-.25l.13-.24s.72.2.84.42c.12.2 0 .77 0 .77ZM100.78 87.92c-.04.2-1.77.37-1.77.37l.87-.88h.03c.3.13.6.3.87.5Z" fill="#000"/><path d="M95.77 85.4a.15.15 0 1 0 0-.3.15.15 0 0 0 0 .3ZM95.97 85.72a.15.15 0 1 0 0-.31.15.15 0 0 0 0 .3ZM96.16 86a.15.15 0 1 0 0-.3.15.15 0 0 0 0 .3ZM96.37 86.32a.15.15 0 1 0 0-.31.15.15 0 0 0 0 .3ZM114.66 86.27a.13.13 0 1 0 0-.25.13.13 0 0 0-.12.12c0 .07.05.13.12.13Z" fill="#575988"/><path d="M114.68 86.56c.07 0 .13-.06.13-.13a.13.13 0 1 0-.25 0c0 .07.05.13.12.13ZM114.7 86.84c.07 0 .12-.05.12-.12a.13.13 0 1 0-.13.13Z" fill="#575988"/><path opacity=".1" d="M104.68 94.6c-.02-.03 4.35 5.5 7.75 2.3 0 0-5.37.73-7.75-2.3ZM102.17 97.46s2.61.08 2.89.83v.78a.5.5 0 0 1-.48 0c-.27-.14-1.85-.94-2.41-.56v-1.05Z" fill="#000"/><path d="M102.22 97.46s2.5.07 2.76.79V99a.48.48 0 0 1-.47 0c-.25-.14-1.77-.9-2.3-.54v-1Z" fill="#3F3D56"/><path opacity=".1" d="M103.6 91.77c.26.62.6 1.2 1.01 1.74.44.6.98 1.12 1.6 1.54 0 0-2.57-2.9-2.61-3.28ZM102.74 88.74s.44 1.88 1.56 2.52l-1.56-2.52ZM102.06 88.93c0-.04-.38 1.49 1.46 2.33 0 0-.78-.26-1.45-2.33ZM113.5 87.66c-.03 0 .9.6 1.16.88 0 0-.6-.91-1.16-.88Z" fill="#000"/><path d="M107.58 86.36a.5.5 0 0 0 .18.31 4.72 4.72 0 0 0 2.31-.15.78.78 0 0 0 .32-.2c.1-.16.16-.33.17-.51.1-.35.3-.65.43-.98a3.3 3.3 0 0 0 .23-1.77 1.17 1.17 0 0 0-.18-.51c-.18-.27-.52-.38-.77-.59-.25-.21-.4-.54-.7-.7a1.35 1.35 0 0 0-.86-.07c-.58.1-1.13.3-1.63.6-.16.11-.35.23-.54.2a.75.75 0 0 1-.4-.31c-.14.31-.2.66-.18 1v.15a.48.48 0 0 1-.1.17c-.18.2-.29.52-.12.72.08.09.2.14.27.23.13.16.08.4.08.6 0 .07.01.14.05.2a.3.3 0 0 0 .29.07c.1-.03.2-.04.3-.03.1.04.2.11.26.2.32.42.45.87.59 1.37Z" fill="#2D293D"/><path opacity=".1" d="M110.45 86.14c-.09.1-.2.17-.32.2a4.63 4.63 0 0 1-2.3.16.48.48 0 0 1-.19-.32 3.6 3.6 0 0 0-.58-1.36.5.5 0 0 0-.27-.2c-.1-.02-.2 0-.3.02a.3.3 0 0 1-.29-.06.32.32 0 0 1-.05-.2c0-.22.05-.45-.08-.61-.07-.1-.19-.14-.26-.23a.45.45 0 0 1-.05-.46c-.12.2-.18.44-.03.61.07.1.19.14.26.23.13.16.09.4.08.6 0 .08.02.15.06.21a.3.3 0 0 0 .28.07c.1-.03.2-.04.3-.03.11.04.2.1.27.2.32.42.45.87.59 1.37a.5.5 0 0 0 .18.31 4.71 4.71 0 0 0 2.31-.15.79.79 0 0 0 .32-.2.6.6 0 0 0 .1-.2c0 .02-.01.03-.03.04ZM107.17 87.76s2.88.38 3.14-.05l-3.14.05ZM112.78 86.57s1.6 0 1.95.6l-1.95-.6Z" fill="#000"/></g><defs><linearGradient id="b" x1="105.04" y1="129" x2="105.04" y2="80.5" gradientUnits="userSpaceOnUse"><stop stop-color="gray" stop-opacity=".25"/><stop offset=".54" stop-color="gray" stop-opacity=".12"/><stop offset="1" stop-color="gray" stop-opacity=".1"/></linearGradient><clipPath id="a"><path fill="#fff" transform="translate(.57)" d="M0 0h176.85v130H0z"/></clipPath></defs></svg>