<svg width="300" height="278" fill="none" xmlns="http://www.w3.org/2000/svg"><g clip-path="url(#a)"><path d="M18.18 22.14A18.2 18.2 0 0 0 0 40.32V249.8a18.2 18.2 0 0 0 18.18 18.18h153.67a18.2 18.2 0 0 0 18.18-18.18V40.32a18.2 18.2 0 0 0-18.18-18.18H18.18Z" fill="#3F3D56"/><path d="M180.58 35.05H9.46v220.02h171.12V35.05Z" fill="#fff"/><path d="M158.2 74.5H31.84v8.3H158.2v-8.3ZM158.2 96.63H31.84v8.3H158.2v-8.3ZM158.2 118.77H31.84v8.3H158.2v-8.3ZM158.2 140.91H31.84v8.3H158.2v-8.3ZM158.2 163.05H31.84v8.3H158.2v-8.3ZM158.2 185.19H31.84v8.3H158.2v-8.3ZM158.2 207.33H31.84v8.3H158.2v-8.3Z" fill="#00BAFC"/><path d="M159.99 21.1 34.67 44.04l29.48 161.12 125.32-22.93L160 21.1Z" fill="#E6E6E6"/><path d="M148.89 52.98 56.34 69.92l1.1 6.08L150 59.06l-1.11-6.08ZM151.86 69.2 59.3 86.13l1.12 6.08 92.55-16.93-1.11-6.08ZM154.82 85.41l-92.55 16.94 1.11 6.08 92.56-16.94-1.12-6.08ZM157.79 101.62l-92.55 16.94 1.1 6.08 92.56-16.94-1.11-6.08ZM160.76 117.84 68.2 134.78l1.12 6.07 92.55-16.93-1.11-6.08ZM163.72 134.05 71.17 151l1.11 6.08 92.56-16.94-1.12-6.08ZM166.7 150.26 74.13 167.2l1.11 6.08 92.55-16.94-1.1-6.08Z" fill="#00BAFC"/><path d="m248.69 197.36-35.46 6.49 8.34 45.6 35.46-6.5-8.34-45.59Z" fill="#E6E6E6"/><path d="m245.55 206.38-26.19 4.8.31 1.71 26.2-4.79-.32-1.72ZM246.39 210.97l-26.2 4.8.32 1.71 26.2-4.79-.32-1.72ZM247.23 215.56l-26.2 4.79.32 1.72 26.2-4.8-.32-1.71ZM248.07 220.15l-26.2 4.79.32 1.72 26.2-4.8-.32-1.72ZM248.9 224.73l-26.18 4.8.31 1.72 26.2-4.8-.32-1.72ZM249.75 229.32l-26.2 4.8.32 1.71 26.2-4.79-.32-1.72ZM250.59 233.9l-26.2 4.8.32 1.72 26.19-4.8-.31-1.71Z" fill="#fff"/><path d="M126.7 11.53h-15.08V8.44A8.44 8.44 0 0 0 103.18 0H86.86a8.44 8.44 0 0 0-8.45 8.44v3.1H63.33a8.44 8.44 0 0 0-8.44 8.44v23.38h80.25V19.98a8.45 8.45 0 0 0-8.44-8.45ZM89.6 239.07c2.5-1.7 5.06-3.48 8.02-4.26 2.7-.7 5.8-.52 7.94 1.46 1.72 1.6 2.45 4.05 1.17 6.15a3.9 3.9 0 0 1-2.59 1.88 3.13 3.13 0 0 1-2.8-1.1c-.67-.73-1.07-1.83-.71-2.8.37-1.03 1.37-1.66 2.36-2 1.14-.37 2.32-.61 3.51-.73l4.9-.67 20.02-2.74 22.3-3.06a.7.7 0 0 0 .49-.85.71.71 0 0 0-.86-.48l-44.37 6.07c-1.6.22-3.23.38-4.82.7a8.1 8.1 0 0 0-3.46 1.44c-2.13 1.68-1.98 4.66-.02 6.42a4.58 4.58 0 0 0 6.59-.5 5.98 5.98 0 0 0 .45-7.31c-1.9-2.86-5.35-3.96-8.65-3.56-3.82.47-7.06 2.62-10.17 4.74-.73.5-.03 1.7.7 1.2Z" fill="#3F3D56"/><path d="m245.3 187.79.47 4.61S243 202.55 249 202.55s1.38-10.15 1.38-10.15l.46-3.69-5.53-.92ZM287.2 172.42l-2.11 4.13s-7.84 7.02-2.8 10.27 6.67-7.77 6.67-7.77l2.4-2.85-4.16-3.78Z" fill="#A0616A"/><path d="m252.69 191.94 6.46 43.82 3.22 31.36s2.77 6.92 12 .93l-1.39-18-.92-16.14s-.92-15.68-1.84-18.45c-.93-2.77.46-11.99.46-11.99l3.69-15.22-21.68 3.69Z" fill="#2F2E41"/><path d="m263.3 266.2-3.7 4.15s-5.53-1.84-6.91 1.85c-1.38 3.69 10.6 4.6 10.6 4.6s12.46.93 12.46 0c0-.91-.33-7.97-2.01-8.36-1.68-.4-10.44-2.24-10.44-2.24ZM270.21 189.63l6.46 46.13 3.23 31.36s2.77 6.92 12 .93l-1.39-18-.92-16.14s-.92-15.68-1.85-18.45c-.92-2.77.46-11.99.46-11.99l-.92-17.06-17.06 3.22Z" fill="#2F2E41"/><path d="m280.82 266.2-3.69 4.15s-5.53-1.84-6.91 1.85c-1.39 3.69 10.6 4.6 10.6 4.6s12.46.93 12.46 0c0-.91-.34-7.97-2.01-8.36-1.68-.4-10.45-2.24-10.45-2.24Z" fill="#2F2E41"/><path d="M256.38 116.76a9.69 9.69 0 1 0 0-19.37 9.69 9.69 0 0 0 0 19.37Z" fill="#A0616A"/><path d="m263.53 111.45 4.15 6.92-10.61 4.61-1.38-8.3 7.84-3.23Z" fill="#A0616A"/><path d="M268.83 117.68s-9.68-.92-13.37 5.07l-9.1 6.92a5.24 5.24 0 0 0-2.04 4.87l7.9 59.7 11.54-.46 18.9-3.69 5.54-1.38-2.76-24.45s-3.23-9.68.46-16.14l-1.85-22.6-12.91-5.07-2.3-2.77Z" fill="#575A89"/><path d="m247.15 131.52-.69-1.16s-.92 0-.92 1.85c0 1.84-1.61 41.74-1.61 41.74l-.47 15.22 8.77.93 3.23-28.6-1.39-18.91-6.92-11.07ZM277.6 124.6l6.45.92a42.86 42.86 0 0 1 6.46 8.76c2.77 5.08 11.07 14.76 9.23 22.14-1.85 7.38-7.38 20.76-7.38 20.76l-8.77-3.69s6.92-16.14 6.46-17.53c-.46-1.38-6-9.68-6-9.68l-6.45-21.68Z" fill="#575A89"/><path d="M249.69 101.77s-7.84-.46-2.77-5.54c0 0 4.15-1.84 6-.92 0 0 2.77-1.85 2.77-.92 0 0 9.68-2.77 11.07 6.92 1.38 9.68-.93 14.3-.93 14.3l-6.45-.47s1.38-7.84-3.7-6.92c0 0-4.15 1.39-4.6 0-.47-1.38-1.39-6.45-1.39-6.45Z" fill="#2F2E41"/><path opacity=".2" d="m253.38 189.4 4.15-27.67-2.77-17.07.93 18.56-2.77 26.18h.46Z" fill="#000"/></g><defs><clipPath id="a"><path fill="#fff" d="M0 0h300v278H0z"/></clipPath></defs></svg>