<svg width="204" height="130" fill="none" xmlns="http://www.w3.org/2000/svg"><g clip-path="url(#a)"><path opacity=".5" d="M191.14 111.27c-.37-1.52-1.57-2.65-2.46-3.94a10.64 10.64 0 0 1-.65-10.8c.85-1.62 2.19-3.3 1.7-5.07-.32-1.2-1.4-2-2.45-2.65a24.04 24.04 0 0 0-13.34-3.43c-5.73.24-11.46 2.53-17.09 1.4-5.48-1.11-10.12-3.86-15.86-4.19-4.28-.24-8.52.03-12.81-.44a190 190 0 0 0-31.95-.76 190 190 0 0 0-31.94.76c-4.28.47-8.52.2-12.81.44-5.75.32-10.39 3.08-15.87 4.19-5.63 1.13-11.35-1.16-17.1-1.4A24.04 24.04 0 0 0 5.2 88.81c-1.07.64-2.13 1.46-2.46 2.65-.48 1.77.85 3.44 1.7 5.07a10.65 10.65 0 0 1-.64 10.8c-.9 1.28-2.1 2.42-2.46 3.94-.74 3.04 2.22 5.72 5.11 6.93 7.9 3.3 17.5 1.7 24.72 6.3 3.23 2.06 6.06 5.37 9.9 5.5 2.6.08 4.95-1.36 7.22-2.63 3.38-1.9 6.93-3.5 10.59-4.8 3.2-1.14 6.58-2.06 9.95-1.68 5.15.57 27.41 11.32 37.45 4.97 6.87-4.36 12.23-4.4 17.4-4.97 3.36-.38 6.75.53 9.95 1.67 3.65 1.3 7.2 2.91 10.59 4.8 2.26 1.28 4.62 2.72 7.21 2.63 3.84-.12 6.67-3.43 9.9-5.5 7.22-4.6 16.82-3 24.72-6.3 2.88-1.2 5.84-3.88 5.1-6.92Z" fill="url(#b)"/><path d="M190.1 111.2c-.37-1.48-1.56-2.62-2.44-3.88a10.54 10.54 0 0 1-.63-10.7c.85-1.6 2.16-3.25 1.68-5-.32-1.18-1.38-1.99-2.43-2.62a23.78 23.78 0 0 0-13.18-3.4c-5.67.24-11.33 2.5-16.9 1.38-5.42-1.1-10.01-3.82-15.7-4.14-4.23-.24-8.43.03-12.67-.42a187.91 187.91 0 0 0-31.6-.76 187.9 187.9 0 0 0-31.58.76c-4.24.46-8.44.19-12.68.42-5.68.32-10.27 3.04-15.7 4.14-5.56 1.13-11.22-1.14-16.9-1.37-4.62-.18-9.2 1-13.18 3.39-1.04.64-2.1 1.44-2.43 2.62-.47 1.75.86 3.4 1.7 5a10.54 10.54 0 0 1-.65 10.7c-.88 1.26-2.06 2.39-2.43 3.89-.74 3 2.18 5.66 5.04 6.84 7.8 3.26 17.3 1.68 24.44 6.23 3.2 2.04 6 5.31 9.8 5.44 2.55.08 4.9-1.35 7.13-2.6a68.44 68.44 0 0 1 10.48-4.76c3.16-1.13 6.5-2.03 9.84-1.65 5.12.57 27.13 11.2 37.04 4.91 6.8-4.3 12.1-4.34 17.2-4.91 3.34-.38 6.69.53 9.85 1.65a68.45 68.45 0 0 1 10.48 4.76c2.24 1.25 4.57 2.68 7.13 2.6 3.8-.13 6.6-3.4 9.8-5.44 7.14-4.55 16.64-2.97 24.44-6.23 2.85-1.19 5.77-3.83 5.04-6.84Z" fill="#00BAFC"/><path opacity=".6" d="M8.05 46.7c.6-.2 1.25-.41 1.9-.3 1.06.19 1.8 1.2 2.12 2.23.32 1.04.3 2.13.51 3.2.2 1.07.69 2.17 1.64 2.68.96.5 2.08.3 3.14.18 1.39-.16 2.8-.17 4.18-.04 1.17.12 2.54.51 2.89 1.63.28.92-.28 1.85-.64 2.74-.7 1.65-.75 3.6.04 5.21.8 1.6 2.4 2.8 3.08 4.5.2.43.25.9.16 1.36-.1.32-.26.62-.48.87-.53.68-1.16 1.28-1.64 2-1 1.49-1.28 3.34-1.4 5.13-.1 1.77-.1 3.53.04 5.3-1.31-.43-2.76-.05-4.1-.33-2.87-.6-4.67-4-7.59-4.2-1.38-.1-2.87.56-4.1-.08a3.1 3.1 0 0 1-1.31-1.49 5.3 5.3 0 0 1-.34-3.56c.21-.82.64-1.62.55-2.47a3.35 3.35 0 0 0-1-1.9c-1.42-1.5-3.48-2.42-4.5-4.23a4.83 4.83 0 0 1 .57-5.43c.36-.36.7-.73 1.03-1.12.5-.7.64-1.56.7-2.41.15-2.03-.2-4.17.46-6.14.6-1.78 2.4-2.73 4.09-3.32Z" fill="#00BAFC"/><path opacity=".6" d="M8.08 46.77s5.82 32.31 13.37 36.16" stroke="#535461" stroke-miterlimit="10"/><path opacity=".6" d="M24.26 55.71s-6.23.85-12.45 7.25M12.9 66.72S8.1 62.03.61 62.82M27 68.76s-8.74.74-11.98 4.1M16.33 75.99s-4.9-.85-9.43 2.04" stroke="#535461" stroke-miterlimit="10"/><path opacity=".6" d="M188.18 21.32a6.1 6.1 0 0 0-3.03-.49c-1.7.3-2.9 1.92-3.41 3.58-.5 1.66-.5 3.43-.82 5.14-.32 1.7-1.1 3.47-2.63 4.29-1.53.81-3.33.49-5.03.3a31.8 31.8 0 0 0-6.7-.08c-1.87.18-4.07.82-4.62 2.62-.45 1.47.44 2.96 1.04 4.38a10.19 10.19 0 0 1-.07 8.36c-1.3 2.62-3.86 4.5-4.94 7.2a3.57 3.57 0 0 0-.26 2.18c.16.52.43 1 .78 1.4.85 1.1 1.85 2.05 2.63 3.2 1.6 2.39 2.04 5.36 2.23 8.23.18 2.82.17 5.66-.05 8.48 2.1-.7 4.42-.08 6.58-.52 4.6-.95 7.47-6.4 12.15-6.73 2.22-.15 4.6.9 6.58-.12a4.97 4.97 0 0 0 2.1-2.4c.83-1.78 1-3.8.52-5.69-.35-1.32-1.03-2.6-.9-3.97.12-1.16.81-2.18 1.61-3.03 2.28-2.42 5.59-3.9 7.22-6.79a7.74 7.74 0 0 0-.91-8.7c-.54-.61-1.19-1.14-1.66-1.8a7.48 7.48 0 0 1-1.13-3.86c-.23-3.25.32-6.69-.72-9.84-.96-2.87-3.87-4.4-6.56-5.34Z" fill="#00BAFC"/><path opacity=".6" d="M188.13 21.4s-9.33 51.8-21.44 57.98" stroke="#535461" stroke-miterlimit="10"/><path opacity=".6" d="M162.18 35.74s9.99 1.38 19.97 11.63M180.4 53.39s7.68-7.52 19.69-6.24M157.8 56.66s14.02 1.19 19.21 6.58M174.9 68.25s7.86-1.37 15.11 3.26" stroke="#535461" stroke-miterlimit="10"/><path d="M16.56 0v105.5h154.88V0H16.56Z" fill="url(#c)"/><path d="M169.8 4.79H18.86v98.8H169.8V4.8Z" fill="#fff"/><path d="M169.8.09H18.86v7.27H169.8V.09Z" fill="#EEE"/><path d="M24.6 5.37a1.76 1.76 0 1 0 0-3.52 1.76 1.76 0 0 0 0 3.52Z" fill="#FF5252"/><path d="M29.45 5.37a1.76 1.76 0 1 0 0-3.52 1.76 1.76 0 0 0 0 3.52Z" fill="#FF0"/><path d="M34.3 5.37a1.76 1.76 0 1 0 0-3.52 1.76 1.76 0 0 0 0 3.52Z" fill="#69F0AE"/><path opacity=".5" d="M80.89 19H24.64v2.34H80.9V19ZM80.89 23.69H24.64v2.34H80.9V23.7ZM80.89 28.37H24.64v2.35H80.9v-2.35ZM80.89 33.06H44.03v2.35H80.9v-2.35ZM54.26 37.75H24.64v2.34h29.62v-2.34ZM63.42 42.44h-22.8v2.34h22.8v-2.34ZM154.6 35.4H88.36v38.14h66.26V35.41Z" fill="#00BAFC"/><path d="M162.5 39.03H96.22v38.13h66.26V39.03Z" fill="#EEE"/><path opacity=".5" d="M202.33 74.21a1 1 0 0 0 .21-.61v-.02l.02-.07v-.11a.5.5 0 0 0 0-.08c-.13-.85-5.19-6.4-6.46-13.18a12 12 0 0 0-.62-2.15c.04-.35.02-.7-.07-1.05-.21-.87-.64-1.75-.42-2.61.03-.11.06-.22.11-.33a12.79 12.79 0 0 0 .95-1.64c.77-2.05-1.63-4.16-1.19-6.3.2-.93.91-1.74.9-2.68-.03-1.08-1.03-1.92-2.06-2.32-1.03-.4-2.16-.52-3.17-.97-2.22-.98-3.44-3.35-5.46-4.67-2.57-1.67-5.93-1.37-9.01-.94a.62.62 0 0 0-.47.35h-.03l-.09.2a6.33 6.33 0 0 1-1.85 1.79c-.86.6-1.8 1.2-2.32 2.11l-.2.39c-1.15 2.05.23 2.94 1.92 3.43a5.5 5.5 0 0 0 6.22 6.26l.17.11h.04c.58.42 1.07.93 1.28 1.54l-1.78 1.37.18.48-7.02 3.24c-2.66.12-6.97-8.25-6.97-8.25s-.63-4.8-2.9-5.67c-.7-.26-.97.28-1.01 1.17-1.02 1.07.69 7.05.69 7.05l5.44 9.6c.5.99.64 1.6 3.04 1.98 1.97.3 8.13-1.89 10.27-2.68l.1.85a5 5 0 0 0-.33 2.04c0 1.57.7 3.86 4.13 5.68 0 0 3.53 4.56 3.14 8.87 0 0 .17.18.44.41-.04 1.22-.21 2.72-.82 3.3a.32.32 0 0 0-.1.3.3.3 0 0 0 .15.33l-4.46 7.81-.5.64a22.77 22.77 0 0 1-2.75 2.93 12.8 12.8 0 0 0-1.67 1.66c-.24.42-.83 1.8-.58 2.93.32 1.38.46 2.8.4 4.2l-.58 10.11c-.2 1.13-.46 2.24-.8 3.33h-.09s-2.15 2.6-5.57 3.2c-3.42.61-3.3 2.34-2.28 2.59 1.01.24 13.3-.25 13.3-.25s.46-.9.33-1.73c3.92-.38 9.35-1.02 9.35-1.02s.75-1.79-.33-2.57c-.41-.3-.71-.74-.87-1.23l-.2-.9-.02-.26h-.04a8.95 8.95 0 0 1-.25-2.51c.32-1.42 1.14-9.6-.89-11.95-.92-1.06-.8-2.27-.38-3.28 2.43-1.6 5.83-5.02 7.8-7.09l.3.28.07.06s6.7-3.31 6.72-9.16a9.03 9.03 0 0 0-1.06-4.3Zm-21.44 41.26c-.01-.22 0-.43.03-.64l-.22-.02c.13-.93.43-1.97 1.1-2.7a22.82 22.82 0 0 0 2.44-6.74l1.23 4.65s.13.96.16 1.98h-.02s-1.72 2.45-4.72 3.47Z" fill="url(#d)"/><path d="M186.45 55.23s-3 1.08-4.69 2.89c0 0-8.18 3.24-10.46 2.88-2.29-.36-2.4-.96-2.9-1.92l-5.16-9.37s-2.17-7.82 0-6.98c2.16.84 2.77 5.54 2.77 5.54s4.09 8.18 6.61 8.06l6.85-3.26s1.56-2.29 2.29-2.17c.72.12 4.69 4.33 4.69 4.33Z" fill="#FDB797"/><path opacity=".05" d="M186.45 55.23s-3 1.08-4.69 2.89c0 0-8.18 3.24-10.46 2.88-2.29-.36-2.4-.96-2.9-1.92l-5.16-9.37s-2.17-7.82 0-6.98c2.16.84 2.77 5.54 2.77 5.54s4.09 8.18 6.61 8.06l6.85-3.26s1.56-2.29 2.29-2.17c.72.12 4.69 4.33 4.69 4.33Z" fill="#000"/><path d="m181.51 50.8-2.4 1.88s1.2 3.14.9 4.24c-.3 1.1 4.8-1.73 4.8-1.73l-2.1-4.7-1.2.3Z" fill="#F9CE43"/><path opacity=".05" d="m181.51 50.8-2.4 1.88s1.2 3.14.9 4.24c-.3 1.1 4.8-1.73 4.8-1.73l-2.1-4.7-1.2.3Z" fill="#000"/><path d="M177.37 48.7s5.35 1.74 2.88 4.8l7.7-3.72s-3.24.24-5.29-4.69l-5.3 3.6ZM187.47 80.1 180.86 92l4.45 17.31s.48 3.85-.24 4.21h5.05s-.97-3.4-.72-4.57c.3-1.38 1.08-9.37-.86-11.66-1.93-2.3.97-5.3.97-5.3l5.77-9.14-7.8-2.76Z" fill="#FDB797"/><path opacity=".05" d="M187.47 80.1 180.86 92l4.45 17.31s.48 3.85-.24 4.21h5.05s-.9-3.42-.72-4.57c.18-1.14 1.08-9.37-.86-11.66-1.93-2.3.97-5.3.97-5.3l5.77-9.14-7.8-2.76Z" fill="#000"/><path d="M185.44 111.26s-1.84 2.7-5.03 3.55c-3.2.86-2.94 2.53-1.96 2.7.98.15 12.57-1.25 12.57-1.25s.7-1.75-.32-2.5c-1.02-.77-1.03-2.35-1.03-2.35l-4.23-.15Z" fill="#0D134D"/><path opacity=".1" d="M187.83 75.28s.29 3.91-.75 4.94a.32.32 0 0 0-.1.27.31.31 0 0 0 .16.24l3.1 1.65 2.77-5.3-5.18-1.8Z" fill="#000"/><path d="M187.83 75.16s.29 3.91-.75 4.94a.32.32 0 0 0-.1.27.31.31 0 0 0 .16.24l3.1 1.65 2.77-5.3-5.18-1.8Z" fill="#E23553"/><path opacity=".1" d="M187.83 75.37s.29 3.92-.75 4.94a.32.32 0 0 0-.1.27.31.31 0 0 0 .16.24l3.1 1.65 2.77-5.3-5.18-1.8Z" fill="#000"/><path d="M187.95 82.86s-1.78 1.2-5.54 6.1a22.04 22.04 0 0 1-2.6 2.86c-.71.64-1.45 1.36-1.6 1.62-.22.41-.78 1.76-.54 2.87.3 1.35.43 2.73.37 4.1l-.54 9.88s-.73 4.45-1.69 4.93l4.94.85s-.37-3.13 1.08-4.69c0 0 3.37-5.77 2.52-12.27 0 0-.36-2.88 2.9-4.45 3.24-1.56 9.86-9.14 9.86-9.14l-9.16-2.66Z" fill="#FDB797"/><path d="M176.65 113.53s-2.05 2.53-5.3 3.13c-3.24.6-3.12 2.29-2.16 2.53.96.24 12.63-.24 12.63-.24s.85-1.69-.12-2.53c-.97-.84-.72-2.4-.72-2.4l-4.33-.49Z" fill="#0D134D"/><path opacity=".1" d="M190.96 76.48s-1.47 4.93-3.33 6.37a.24.24 0 0 0-.07.1.24.24 0 0 0 .13.32c1.54.56 6.49 2.44 8.2 4.16l.06.06s10.29-5.23 4.75-14.13l-9.74 3.12Z" fill="#000"/><path d="M190.96 76.37s-1.47 4.93-3.33 6.36a.24.24 0 0 0-.07.1.24.24 0 0 0 .13.32c1.54.56 6.49 2.44 8.2 4.16l.06.06s10.29-5.23 4.75-14.13l-9.74 3.13Z" fill="#E23553"/><path opacity=".1" d="M182.52 51.92a9.4 9.4 0 0 1-2.48 1.18l.82 7.36s-1.93 4.33 3.6 7.35c0 0 3.35 4.46 2.98 8.67 0 0 1.8 1.93 3 1.45s.12.24.36.12.72.96 4.45 0c3.74-.95 6.4-3.46 6.27-4.3-.13-.85-4.92-6.27-6.1-12.9-1.19-6.61-8.27-11.32-8.27-11.32s-.24.13-.64.3a28 28 0 0 0-4 2.09Z" fill="#000"/><g opacity=".1" fill="#000"><path opacity=".1" d="M187.54 82.9a.23.23 0 0 0 .16.24c1.32.48 5.17 1.95 7.31 3.44-1.85-1.5-5.79-3.05-7.47-3.68ZM200.7 73.24l-.2.07c4.72 8.26-4.19 13.26-4.96 13.67.13.11.25.21.36.33l.06.06s10.28-5.23 4.74-14.13Z"/></g><path d="M195.3 77.8c-3.74.97-4.22-.11-4.46 0-.24.13.85-.6-.36-.11-1.21.48-3-1.45-3-1.45l.02-.61c.01-4.03-3.04-8.05-3.04-8.05-5.54-3-3.61-7.33-3.61-7.33l-.23-1.98-.62-5.38a9.39 9.39 0 0 0 2.48-1.19c1.27-.8 2.6-1.5 3.98-2.1.41-.17.64-.3.64-.3s7.1 4.69 8.31 11.3c1.21 6.63 6.02 12.04 6.14 12.88.11.84-2.53 3.36-6.26 4.33Z" fill="#F9CE43"/><path opacity=".1" d="m182.78 45.21-5.3 3.6a9 9 0 0 1 2.07 1.04c1.8-.25 2.9-1.55 3.65-3.14-.29-.46-.16-.88-.42-1.5Z" fill="#000"/><path d="M178.7 49.78a5.3 5.3 0 1 0 0-10.58 5.3 5.3 0 0 0 0 10.58Z" fill="#FDB797"/><path opacity=".1" d="M196.13 77.2c-3.73.97-4.2-.11-4.45 0-.24.13.85-.6-.36-.11-1.21.48-3-1.45-3-1.45l.02-.61c.02-4.02-3.03-8.05-3.03-8.05-5.54-3-3.61-7.34-3.61-7.34l-.23-1.97-.58-5.1c-.28.13-.58.24-.88.32l.61 5.38.23 1.98s-1.92 4.33 3.6 7.33c0 0 3.06 4.03 3.04 8.05 0 .2 0 .4-.02.61 0 0 1.8 1.92 3 1.45s.12.24.36.12.73.96 4.45 0c1.7-.44 3.28-1.22 4.66-2.28a13.12 13.12 0 0 1-3.8 1.68Z" fill="#000"/><path d="M186.15 56.28s-3 1.08-4.69 2.88c0 0-8.18 3.25-10.46 2.89-2.29-.36-2.41-.96-2.9-1.92l-5.16-9.37s-2.17-7.82 0-6.98c2.16.84 2.77 5.54 2.77 5.54s4.09 8.18 6.61 8.06l6.85-3.27s1.57-2.28 2.29-2.16c.72.12 4.69 4.33 4.69 4.33Z" fill="#FDB797"/><path opacity=".1" d="M182.09 51.87s-2.5-.23-3.22 2.9c-.72 3.13 5.54 5.05 5.54 5.05l3.37-4.68-5.7-3.27Z" fill="#000"/><path d="M182.2 51.87s-2.49-.23-3.2 2.9c-.73 3.13 5.53 5.05 5.53 5.05l3.37-4.68-5.7-3.27Z" fill="#F9CE43"/><g opacity=".1" fill="#000"><path opacity=".1" d="M181.19 52.43c-.38.19-.77.34-1.18.45l.02.19c.4-.2.79-.4 1.16-.64ZM201.55 73.48c-.12-.85-4.94-6.26-6.14-12.87-1.2-6.62-8.3-11.3-8.3-11.3l-.65.3c-1.08.46-2.13.99-3.15 1.58.68-.35 1.37-.68 2.07-.98l.64-.3s7.1 4.68 8.31 11.3c1.21 6.62 6.01 12.03 6.13 12.87.08.53-.95 1.73-2.65 2.79 2.34-1.16 3.83-2.76 3.74-3.4Z"/></g><path opacity=".1" d="M183.64 51.92s3.1 1.54 3.7 4.5" stroke="#000" stroke-miterlimit="10"/><path opacity=".1" d="M176.03 44.2c.5.1 1.05.26 1.3.7.17.33.14.73.31 1.07.45.83 1.75.55 2.56 1.04 1.5.9.52 3.7 2 4.6.28.17.61.24.9.4 1.26.68 1.08 2.5.85 3.91-.22 1.41.05 3.35 1.46 3.55.78.1 1.66-.41 2.31.02.35.23.5.64.8.94a1.44 1.44 0 0 0 1.53.32c.48-.2.83-.66 1.33-.8.8-.24 1.7.4 2.48.1.77-.3.95-1.41.75-2.26-.2-.84-.6-1.7-.4-2.56.18-.7.76-1.24 1-1.91.75-2-1.54-4.07-1.12-6.16.18-.9.87-1.7.85-2.62-.02-1.06-.96-1.87-1.94-2.26-.99-.4-2.06-.5-3.03-.94-2.1-.96-3.25-3.28-5.18-4.57a7.27 7.27 0 0 0-2.85-1.1 9.35 9.35 0 0 0-7.45 2.03c-.19.16-.38.3-.58.44-.82.6-1.7 1.18-2.2 2.06-1.83 3.19 2.37 3.55 4.32 4Z" fill="#000"/><path d="M176.18 43.9c.5.1 1.05.26 1.3.7.17.33.14.73.31 1.07.45.83 1.75.55 2.56 1.04 1.5.9.52 3.7 2 4.6.28.17.61.24.9.4 1.26.68 1.08 2.5.85 3.91-.22 1.41.05 3.35 1.46 3.55.78.1 1.66-.41 2.31.02.35.23.5.64.79.94a1.44 1.44 0 0 0 1.54.32c.48-.2.83-.66 1.33-.8.8-.24 1.7.4 2.48.1.77-.3.95-1.41.75-2.26-.2-.84-.6-1.7-.4-2.56.18-.7.76-1.24 1-1.91.74-2-1.54-4.07-1.12-6.16.18-.9.86-1.7.85-2.62-.02-1.06-.96-1.87-1.94-2.26-.99-.4-2.06-.5-3.03-.94-2.1-.96-3.26-3.28-5.18-4.57a7.13 7.13 0 0 0-2.58-1.04 9.36 9.36 0 0 0-7.73 1.98c-.18.15-.38.3-.57.42-.82.6-1.7 1.18-2.2 2.06-1.83 3.2 2.37 3.56 4.32 4ZM133.3 77.16H96.23v-6.98c9.06-4.24 23-6.61 37.07 6.98Z" fill="#00BAFC"/><path opacity=".1" d="M162.06 76.17v1h-46.23v-.22s22.75-22.15 46.23-.78Z" fill="#000"/><path d="M162.5 76.17v1h-46.24v-.22s22.75-22.15 46.23-.78ZM103.9 49.25a3.4 3.4 0 1 0 0-6.81 3.4 3.4 0 0 0 0 6.81Z" fill="#00BAFC"/><path d="M132.92 43.27c-.39 0-.82 0-1.12.02-.13 0-.26.03-.39.08l-2 .72a154 154 0 0 0 4.97.01l9.3-.07c.95 0 1.95-.01 2.74-.07.53-.04.92-.1 1.41-.14 1.76-.15 4.33-.12 6.63-.12 2.3.01 5.06-.05 5.87-.28h-4.93c-.53 0-1.09 0-1.56-.02-.54-.03-.88-.1-1.36-.14-.8-.07-1.9-.07-2.92-.08-5.61-.02-11.16.11-16.64.09ZM138.44 47.4h-.25a.3.3 0 0 0-.08.01l-.43.16h1.08l2.01-.02.6-.01c.11 0 .2-.02.3-.03.38-.03.94-.03 1.44-.03.42.02.85 0 1.27-.06H142.98l-.3-.03a8.28 8.28 0 0 0-.63-.02c-1.22 0-2.42.03-3.61.03ZM124.16 53.36h-.24a.3.3 0 0 0-.09.02l-.42.15h1.07l2.02-.01c.21 0 .42 0 .6-.02l.3-.03c.38-.03.93-.02 1.43-.02.43.01.86 0 1.28-.06H128.71l-.3-.03a8.28 8.28 0 0 0-.64-.02c-1.21 0-2.41.03-3.6.02Z" fill="#F4F4F4"/><path d="M116.15 75.27h-1.6s-.5-17.52 1.6-22.92h.4s-1.4 19.82-.4 22.92Z" fill="#00BAFC"/><path d="M115.05 51.44s-1.3 3.6-.7 5.21c0 0 .9-3.3 1.95-3.8 1.05-.5 2.15 3.8 2.15 3.8s.6-2.7-.5-4.9c0 0 2.2 1.2 3.3 3.5 0 0 .2-1.49-2.4-4.6 0 0 2.3.6 3.81 2 0 0 .5-1.1-2.6-2.9 0 0 .4-1.3 2.8-.7 0 0 0-1.7-3.8-1.4 0 0 0-1.1 2.5-.9 0 0 0-1.4-2.9-.9 0 0 .6-.9 1-1.1-.5-.05-1 .09-1.4.4 0 0 .1-1.81-1.4-2.51l-.2 2.5s-1.7-1.98-1.31-1.6c.1.1.4 1.3.3 1.9 0 0-1.7-1.4-3.8.1 0 0 2.6.2 3 1.1 0 0-2.2-.4-2.7-.1 0 0 1.7.6 1.6 1 0 0-3 0-3.41 1.1 0 0 3.1.4 3.3.7 0 0-3.6 2.61-3.8 3.31 0 0 3.7-2.2 4.3-2.2.6 0-2.7 3.2-2.5 4 0 0 2.72-3.2 3.41-3ZM135.91 74.62h1.23s.38-13.39-1.23-17.52h-.3s1.07 15.14.3 17.52Z" fill="#00BAFC"/><path d="M136.76 56.41s1 2.76.53 3.98c0 0-.69-2.52-1.5-2.9-.8-.39-1.64 2.9-1.64 2.9s-.45-2.06.39-3.75a6.65 6.65 0 0 0-2.53 2.68s-.15-1.15 1.84-3.52c0 0-1.76.46-2.9 1.53 0 0-.39-.84 1.98-2.22 0 0-.3-1-2.14-.53 0 0 0-1.3 2.9-1.07 0 0 0-.84-1.9-.69 0 0 0-1.06 2.2-.68 0 0-.45-.7-.76-.84.39-.04.77.07 1.07.3 0 0-.08-1.37 1.06-1.92l.16 1.92s1.28-1.51 1-1.22c-.19.46-.27.96-.24 1.45 0 0 1.3-1.06 2.9.08 0 0-1.98.15-2.29.84 0 0 1.69-.3 2.07-.08 0 0-1.3.46-1.22.77 0 0 2.29 0 2.6.84 0 0-2.37.3-2.53.53 0 0 2.76 2 2.9 2.53 0 0-2.82-1.68-3.28-1.68-.46 0 2.06 2.44 1.92 3.06 0-.01-2.06-2.46-2.6-2.3ZM150.56 72h.76s.23-8.29-.76-10.85h-.2s.67 9.39.2 10.85Z" fill="#00BAFC"/><path d="M151.08 60.73s.61 1.7.33 2.46c0 0-.42-1.56-.92-1.8s-1.02 1.8-1.02 1.8-.28-1.28.24-2.32c-.67.4-1.21.97-1.57 1.66 0 0-.1-.72 1.14-2.18a4.8 4.8 0 0 0-1.8.94s-.24-.52 1.23-1.37c0 0-.19-.62-1.33-.33 0 0 0-.8 1.8-.67 0 0 0-.52-1.18-.42 0 0 0-.66 1.37-.43-.12-.2-.28-.37-.47-.52.24-.02.47.05.66.19 0 0-.04-.85.66-1.18l.1 1.18s.8-.94.62-.76c-.12.29-.17.6-.15.9a1.48 1.48 0 0 1 1.8.05s-1.23.1-1.42.52c0 0 1.04-.19 1.28-.05 0 0-.8.29-.76.48 0 0 1.42 0 1.61.52 0 0-1.47.19-1.56.33 0 0 1.7 1.23 1.8 1.56 0 0-1.75-1.04-2.04-1.04-.28 0 1.28 1.52 1.19 1.9 0 0-1.28-1.52-1.61-1.42Z" fill="#00BAFC"/><path d="m122.86 62.63-.16-.85a.46.46 0 0 0-.14-.34l-.74-.36a.85.85 0 0 1-.14-.21l.02-.02c.04-.05.07-.11.08-.18a.2.2 0 0 0 0-.05h.01c.07.01.14 0 .2-.04.05-.04.1-.1.1-.17v-.02a.27.27 0 0 1-.24.22.76.76 0 0 0 .33-.63v-.03a.28.28 0 0 0 .08-.08.25.25 0 0 0 .05-.1v-.03l-.05.1a.26.26 0 0 1-.08.08.74.74 0 0 0-.05-.22h.02c.07 0 .14-.03.2-.08a.27.27 0 0 0 .08-.2v-.01a.27.27 0 0 1-.28.25h-.03a.44.44 0 0 0 .31-.36v-.03c0 .05-.02.1-.05.14a.28.28 0 0 0-.06-.18.27.27 0 0 0-.37-.06c-.06.04-.1.1-.11.16l-.05-.02a.27.27 0 0 1 .25-.2h-.02a.27.27 0 0 0-.27.18.75.75 0 0 0-.95.27c-.05.05-.13.1-.13.16a.55.55 0 0 0-.06.08c-.08.18-.11.38-.09.57a.6.6 0 0 1-.2.52.26.26 0 0 0 .2 0 .76.76 0 0 0 .18-.1.4.4 0 0 0 .13-.12v-.01a.6.6 0 0 0 .11.06c.02.12.02.27-.04.32l.02-.02a.7.7 0 0 1-.48.13.6.6 0 0 0-.5.32l-.23.97v.04s0 .02.02.03l.03.02.07.02c.02.16 0 .33-.04.5a4.1 4.1 0 0 0-.09.72c.02.12.05.75.06 1.05a3 3 0 0 0-.06.31l-.34 2.06s-.26 1.65-.24 2.14l-.05.3s-.7.87-.49.99c.2.12.52.18.82-.29.04-.1.1-.2.2-.29a.28.28 0 0 0 .1-.24l-.03-.21.03.01h.02s.35-1.12.3-1.91c0 0 .65-2.27 1.13-2.62v-.02l.04-.02.1 2.2-.1 2.4-.02.15s-.7.88-.5 1c.2.12.52.18.83-.29.03-.1.1-.2.19-.28a.28.28 0 0 0 .1-.24l-.04-.32c.12-.41.43-1.58.3-2.26l.21-1.45c.22-.24.19-.85.19-.85.17-.35.21-1.73.21-1.73l.05-.68h.13v-.01l.01-.02h.01v-.02Zm-.6 1.38-.06-.14h-.02v-.05a.58.58 0 0 0 .03-.07c.03-.04.04-.1.04-.15.02.14.03.28.01.41Zm-.06-.58-.04-.46.01-.03.06.58-.03-.1Zm-2.02.06a.15.15 0 0 0-.03.06v.08l.01.14-.06.28v-.54l.11-.19a.3.3 0 0 1-.03.17Z" fill="url(#e)"/><path d="M120.61 59.97c-.08.17-.1.36-.08.55a.58.58 0 0 1-.2.5.25.25 0 0 0 .2 0 .74.74 0 0 0 .17-.1.38.38 0 0 0 .12-.12.45.45 0 0 0 .03-.23c0-.14.01-.28.04-.41.01-.09.1-.32 0-.37-.1-.04-.24.12-.28.18Z" fill="#72351C"/><path d="m119.2 69.03-.06.42s-.67.86-.48.96c.2.11.5.18.8-.27.03-.1.1-.2.18-.28a.28.28 0 0 0 .07-.1.26.26 0 0 0 .02-.13l-.07-.65-.46.05ZM121.22 69.2l-.06.42s-.67.85-.48.96c.2.11.5.17.8-.27.03-.1.1-.2.18-.28a.27.27 0 0 0 .09-.23l-.07-.65-.46.05Z" fill="#333"/><path d="M120.18 64.1s-.32.23-.43 1.02l-.33 1.99s-.28 1.8-.23 2.14l.56.2s.33-1.1.3-1.85c0 0 .67-2.4 1.14-2.56l.1 2.11-.11 2.38.48.1s.48-1.52.33-2.32l.25-1.7s.28-.91-.11-1.7l-1.95.2Z" fill="#4D8AF0"/><g opacity=".1" fill="#000"><path opacity=".1" d="M121.14 65.07v-.03c-.47.17-1.14 2.55-1.14 2.55-.02.62-.11 1.24-.3 1.83l.07.02s.33-1.09.3-1.84c-.01 0 .6-2.17 1.07-2.53ZM122.14 63.91h-.06c.23.54.27 1.13.1 1.7l-.24 1.7c.14.75-.28 2.15-.33 2.3l.06.01s.49-1.51.33-2.31l.25-1.7s.3-.91-.1-1.7Z"/></g><path d="m119.75 62.55.01.04.04.03c.16.04.3.11.43.21.23.19-.25-.36-.25-.36l-.16.03-.07.06v-.01Z" fill="#F55F44"/><path opacity=".1" d="m119.75 62.55.01.04.04.03c.16.04.3.11.43.21.23.19-.25-.36-.25-.36l-.16.03-.07.06v-.01Z" fill="#000"/><path d="M122.05 63.03c.2-.14.43-.23.67-.26.01 0 .03 0 .04-.02a.06.06 0 0 0 .02-.04s-.56-.22-.73.32Z" fill="#F55F44"/><path opacity=".1" d="M122.78 62.7s-.56-.2-.73.33c0 0 .41-.31.7-.26" fill="#000"/><path d="M121.4 60.87a.73.73 0 1 0 0-1.46.73.73 0 0 0 0 1.46Z" fill="#72351C"/><path d="M120.9 60.65s.1.43 0 .51c-.1.1-.3.25-.15.38.16.12.71.34.9.23.18-.1.4-.07.34-.28-.05-.22-.45-.17-.46-1.23l-.63.4Z" fill="#FDB797"/><path opacity=".1" d="M119.88 62.42c.01.23 0 .46-.05.7-.05.22-.07.45-.08.69.02.15.07 1.17.07 1.17s-.08.88.35.8c.43-.08-.07-1.01-.07-1.01l.02-1.21c.12-.16.2-.35.22-.55.03-.29-.47-.59-.47-.59Z" fill="#000"/><path d="M119.87 62.42c.01.23 0 .46-.05.7-.04.22-.07.45-.08.69.03.15.07 1.17.07 1.17s-.08.88.35.8c.43-.08-.06-1.01-.06-1.01l.02-1.21c.11-.16.19-.35.2-.55.04-.29-.45-.59-.45-.59Z" fill="#FDB797"/><path opacity=".1" d="m122.64 62.49-.06.95s-.04 1.32-.2 1.66c0 0 .04.93-.4.91-.43-.02.08-1.02.08-1.02s.23-1.04.11-1.37l-.1-1.13h.57Z" fill="#000"/><path d="m122.64 62.49-.06.95s-.03 1.32-.2 1.66c0 0 .05.93-.38.91-.44-.02.07-1.02.07-1.02s.23-1.04.11-1.37l-.11-1.13h.57Z" fill="#FDB797"/><path opacity=".1" d="M121.23 61.57s.36.16.55-.32l.71.35a.44.44 0 0 1 .14.32l.15.82s-.52-.17-.68.31l.04.47a.5.5 0 0 1-.02.34v.16c0 .04-.01.08-.03.1a.23.23 0 0 1-.18.1c-.2 0-.38.01-.58.04-.15.05-.61-.09-.77 0-.15.09-.47-.06-.47-.06l.08-.38s-.06-.18.02-.25c.07-.06.03-.64-.04-.8 0 0-.26-.25-.42-.21l.2-.95a.57.57 0 0 1 .49-.31c.16.02.33-.03.46-.13 0 0-.16.35.36.4Z" fill="#000"/><path opacity=".1" d="M121.27 61.55c.1.03.35.05.5-.33l.72.35a.46.46 0 0 1 .14.32l.15.83s-.52-.18-.68.3l.04.47.03.09a.26.26 0 0 1-.03.23.09.09 0 0 0-.02.04V64c0 .04-.01.07-.03.1a.23.23 0 0 1-.18.1c-.2 0-.38 0-.58.04-.15.04-.61-.1-.77 0-.15.08-.47-.07-.47-.07l.08-.37s-.06-.19.02-.25c.07-.07.03-.64-.04-.8 0 0-.26-.25-.42-.22l.2-.95a.57.57 0 0 1 .49-.3c.16 0 .33-.04.46-.14 0 0-.17.32.28.39l.11.02Z" fill="#000"/><path d="M121.27 61.57c.1.02.35.05.5-.34l.72.35a.46.46 0 0 1 .14.33l.15.82s-.52-.18-.68.3l.04.47a.5.5 0 0 1-.02.35v.06a.23.23 0 0 1-.11.27.22.22 0 0 1-.1.02c-.2 0-.39.02-.58.05-.15.04-.61-.1-.77 0-.15.08-.48-.07-.48-.07l.1-.37s-.07-.19 0-.25c.08-.07.04-.64-.03-.8 0 0-.26-.25-.43-.22l.22-.95a.57.57 0 0 1 .47-.3c.17.01.33-.04.47-.14 0 0-.18.32.28.39l.11.03Z" fill="#F55F44"/><path opacity=".1" d="m121.54 60.3-.62.39.03.21a.6.6 0 0 0 .23.04c.15 0 .3-.07.4-.18-.03-.15-.04-.3-.04-.46Z" fill="#000"/><path d="M121.16 60.9a.6.6 0 1 0 0-1.2.6.6 0 0 0 0 1.2Z" fill="#FDB797"/><path d="M122.05 59.83a.26.26 0 1 0 0-.53.26.26 0 0 0 0 .53Z" fill="#72351C"/><path d="M122.1 59.85a.26.26 0 0 1-.26-.25v.02c0 .07.03.14.08.19a.27.27 0 0 0 .37 0 .27.27 0 0 0 .08-.19v-.02a.27.27 0 0 1-.27.25Z" fill="#72351C"/><path d="M121.95 60.1a.27.27 0 0 1-.21-.3v.03a.26.26 0 0 0 .21.3.26.26 0 0 0 .3-.2v-.03a.26.26 0 0 1-.3.2ZM121.75 60.74a.26.26 0 0 1-.22-.3v.03c0 .06 0 .14.05.2a.27.27 0 0 0 .48-.1v-.03a.26.26 0 0 1-.31.2ZM122.1 59.7a.26.26 0 0 1-.26-.24v.02c0 .07.03.14.08.19a.27.27 0 0 0 .37 0 .27.27 0 0 0 .08-.2v-.01a.26.26 0 0 1-.27.25Z" fill="#72351C"/><path d="M121.73 59.56c0-.06.03-.13.08-.18a.26.26 0 0 1 .17-.08h-.02a.26.26 0 1 0 0 .53h.02a.27.27 0 0 1-.25-.27Z" fill="#72351C"/><path opacity=".1" d="M122 62.06c.03.13.03.26 0 .4 0 0-.03.34.02.4M120.22 62.14c.02.13.02.26 0 .4 0 0-.04.34.02.4M120.2 63.55c.06.02.12.02.18 0a.37.37 0 0 1 .21 0M120.3 63.03c.2.01.4-.02.6-.1 0 0 .75.2.96.06" fill="#000"/><path d="M120.06 66.2h-.17a.14.14 0 1 0 0 .29h.17a.14.14 0 1 0 0-.29Z" fill="#FDB797"/><path d="m119.75 66.28.25-.01.2.03h-.07l-.38-.02ZM121.41 65.08h.25l.21.02h-.07l-.39-.02ZM121.41 65.13h.25l.21.02h-.07l-.39-.02ZM121.41 65.19h.25l.21.02h-.07l-.39-.02ZM121.41 65.24h.25l.21.02h-.07l-.39-.02ZM119.75 66.48h.25l.2.02h-.07l-.38-.02ZM119.75 66.45h.25l.2.03h-.07l-.38-.03ZM119.75 66.42h.25l.2.03h-.07l-.38-.03ZM119.75 66.4h.25l.2.02h-.07l-.38-.02ZM119.75 66.24l.25-.01.2.03h-.07l-.38-.02ZM119.75 66.2l.25-.02.2.04h-.07l-.38-.03Z" fill="#F0E4E4"/><path opacity=".1" d="M121.27 59.9c-.03.23 0 .46.08.67a.8.8 0 0 1-.03.64.21.21 0 0 0 .19-.04c.05-.05.1-.1.13-.16.04-.05.07-.1.09-.17 0-.1-.01-.2-.05-.28a3.63 3.63 0 0 1-.09-.5c0-.1 0-.4-.11-.42-.12-.03-.2.18-.21.27Z" fill="#000"/><path d="M121.28 59.9c-.02.23 0 .46.09.67a.79.79 0 0 1-.04.64.21.21 0 0 0 .2-.05c.05-.05.1-.1.13-.16.04-.05.07-.1.08-.17 0-.1 0-.19-.04-.28a3.63 3.63 0 0 1-.09-.5c-.01-.1 0-.39-.11-.42-.12-.03-.2.19-.22.27Z" fill="#72351C"/><path opacity=".1" d="M121.02 60.06c.05.05.06.13.1.2a.38.38 0 0 0 .3.11c.03 0 .06 0 .1.02.04.03.04.1.07.15l.06.04a.17.17 0 0 0 .13 0l.06-.04c.06-.08.1-.17.1-.27v-.31a.48.48 0 0 0-.14-.33.56.56 0 0 0-.23-.1.7.7 0 0 0-.37-.03 9.63 9.63 0 0 0-.38.23c-.08.05-.23.16-.08.22.09.05.2.03.28.11Z" fill="#000"/><path d="M121.04 60.05c.05.05.06.13.1.2a.38.38 0 0 0 .3.11c.03 0 .06 0 .09.02.04.03.05.1.08.15a.18.18 0 0 0 .12.05.17.17 0 0 0 .13-.05c.06-.08.09-.17.09-.27v-.31a.48.48 0 0 0-.13-.33.57.57 0 0 0-.24-.1.7.7 0 0 0-.36-.03 9.29 9.29 0 0 0-.38.23c-.08.05-.23.17-.09.23.1.04.22.02.29.1Z" fill="#72351C"/><path d="M121.43 65.08h.25l.2.02h-.06l-.4-.02ZM121.43 65.13h.25l.2.02h-.06l-.4-.02ZM121.43 65.19h.25l.2.02h-.06l-.4-.02ZM121.43 65.24h.25l.2.02h-.06l-.4-.02ZM121.32 68.06h.25l.21.03h-.07l-.39-.03ZM121.32 68.12h.25l.21.02h-.07l-.39-.02ZM121.32 68.17h.25l.21.02h-.07l-.39-.02ZM121.32 68.22h.25l.21.02h-.07l-.39-.02Z" fill="#F0E4E4"/></g><defs><linearGradient id="b" x1="96.23" y1="130" x2="96.23" y2="81.05" gradientUnits="userSpaceOnUse"><stop stop-color="gray" stop-opacity=".25"/><stop offset=".54" stop-color="gray" stop-opacity=".12"/><stop offset="1" stop-color="gray" stop-opacity=".1"/></linearGradient><linearGradient id="c" x1="67909.7" y1="52246.1" x2="67909.7" y2="0" gradientUnits="userSpaceOnUse"><stop stop-color="gray" stop-opacity=".25"/><stop offset=".54" stop-color="gray" stop-opacity=".12"/><stop offset="1" stop-color="gray" stop-opacity=".1"/></linearGradient><linearGradient id="d" x1="41634.5" y1="61047.3" x2="41634.5" y2="26293.6" gradientUnits="userSpaceOnUse"><stop stop-color="gray" stop-opacity=".25"/><stop offset=".54" stop-color="gray" stop-opacity=".12"/><stop offset="1" stop-color="gray" stop-opacity=".1"/></linearGradient><linearGradient id="e" x1="3089.72" y1="5676.23" x2="3089.72" y2="5025.35" gradientUnits="userSpaceOnUse"><stop stop-color="gray" stop-opacity=".25"/><stop offset=".54" stop-color="gray" stop-opacity=".12"/><stop offset="1" stop-color="gray" stop-opacity=".1"/></linearGradient><clipPath id="a"><path fill="#fff" transform="translate(.6)" d="M0 0h202.79v130H0z"/></clipPath></defs></svg>